<svg xmlns="http://www.w3.org/2000/svg" xmlns:xlink="http://www.w3.org/1999/xlink" width="190" zoomAndPan="magnify" viewBox="0 0 142.5 37.5" height="50" preserveAspectRatio="xMidYMid meet" version="1.0"><defs><g/><clipPath id="5c67aecd07"><path d="M 0.691406 0 L 141.316406 0 L 141.316406 37.007812 L 0.691406 37.007812 Z M 0.691406 0 " clip-rule="nonzero"/></clipPath></defs><g clip-path="url(#5c67aecd07)"><path fill="#ffffff" d="M 0.691406 0 L 141.316406 0 L 141.316406 37.007812 L 0.691406 37.007812 Z M 0.691406 0 " fill-opacity="1" fill-rule="nonzero"/><path fill="#ffffff" d="M 0.691406 0 L 141.316406 0 L 141.316406 37.007812 L 0.691406 37.007812 Z M 0.691406 0 " fill-opacity="1" fill-rule="nonzero"/></g><g fill="#545454" fill-opacity="1"><g transform="translate(37.259461, 8.742751)"><g><path d="M 2.15625 -0.703125 L 3.015625 -2.859375 L 4.109375 -2.859375 L 4.109375 -2.71875 C 4.023438 -2.71875 3.957031 -2.707031 3.90625 -2.6875 C 3.851562 -2.675781 3.8125 -2.648438 3.78125 -2.609375 C 3.757812 -2.566406 3.742188 -2.507812 3.734375 -2.4375 C 3.722656 -2.363281 3.71875 -2.269531 3.71875 -2.15625 L 3.71875 -0.703125 C 3.71875 -0.585938 3.722656 -0.492188 3.734375 -0.421875 C 3.742188 -0.347656 3.765625 -0.289062 3.796875 -0.25 C 3.828125 -0.207031 3.867188 -0.179688 3.921875 -0.171875 C 3.984375 -0.160156 4.054688 -0.15625 4.140625 -0.15625 L 4.140625 0 L 2.75 0 L 2.75 -0.15625 C 2.84375 -0.15625 2.914062 -0.160156 2.96875 -0.171875 C 3.019531 -0.179688 3.0625 -0.207031 3.09375 -0.25 C 3.125 -0.289062 3.144531 -0.34375 3.15625 -0.40625 C 3.164062 -0.476562 3.171875 -0.570312 3.171875 -0.6875 L 3.171875 -2.421875 L 3.15625 -2.421875 L 2.15625 0.03125 L 1.875 0.03125 L 0.84375 -2.421875 L 0.828125 -2.421875 L 0.828125 -0.703125 C 0.828125 -0.585938 0.832031 -0.492188 0.84375 -0.421875 C 0.851562 -0.347656 0.875 -0.289062 0.90625 -0.25 C 0.9375 -0.207031 0.976562 -0.179688 1.03125 -0.171875 C 1.09375 -0.160156 1.164062 -0.15625 1.25 -0.15625 L 1.25 0 L 0.109375 0 L 0.109375 -0.15625 C 0.203125 -0.15625 0.273438 -0.160156 0.328125 -0.171875 C 0.390625 -0.179688 0.4375 -0.207031 0.46875 -0.25 C 0.5 -0.289062 0.519531 -0.34375 0.53125 -0.40625 C 0.539062 -0.476562 0.546875 -0.570312 0.546875 -0.6875 L 0.546875 -2.171875 C 0.546875 -2.273438 0.539062 -2.363281 0.53125 -2.4375 C 0.519531 -2.507812 0.5 -2.566406 0.46875 -2.609375 C 0.445312 -2.648438 0.410156 -2.675781 0.359375 -2.6875 C 0.304688 -2.707031 0.238281 -2.71875 0.15625 -2.71875 L 0.15625 -2.859375 L 1.28125 -2.859375 L 2.140625 -0.703125 Z M 2.15625 -0.703125 "/></g></g></g><g fill="#545454" fill-opacity="1"><g transform="translate(43.164152, 8.742751)"><g><path d="M 1.75 -2.90625 C 1.976562 -2.90625 2.1875 -2.863281 2.375 -2.78125 C 2.570312 -2.707031 2.738281 -2.601562 2.875 -2.46875 C 3.019531 -2.332031 3.132812 -2.171875 3.21875 -1.984375 C 3.300781 -1.804688 3.34375 -1.613281 3.34375 -1.40625 C 3.34375 -1.207031 3.300781 -1.019531 3.21875 -0.84375 C 3.132812 -0.664062 3.019531 -0.507812 2.875 -0.375 C 2.738281 -0.25 2.570312 -0.148438 2.375 -0.078125 C 2.1875 -0.00390625 1.976562 0.03125 1.75 0.03125 C 1.53125 0.03125 1.320312 -0.00390625 1.125 -0.078125 C 0.9375 -0.148438 0.769531 -0.25 0.625 -0.375 C 0.476562 -0.507812 0.363281 -0.664062 0.28125 -0.84375 C 0.207031 -1.019531 0.171875 -1.207031 0.171875 -1.40625 C 0.171875 -1.613281 0.207031 -1.804688 0.28125 -1.984375 C 0.363281 -2.171875 0.476562 -2.332031 0.625 -2.46875 C 0.769531 -2.601562 0.9375 -2.707031 1.125 -2.78125 C 1.320312 -2.863281 1.53125 -2.90625 1.75 -2.90625 Z M 1.75 -0.203125 C 1.894531 -0.203125 2.023438 -0.226562 2.140625 -0.28125 C 2.265625 -0.34375 2.363281 -0.425781 2.4375 -0.53125 C 2.519531 -0.632812 2.582031 -0.757812 2.625 -0.90625 C 2.675781 -1.050781 2.703125 -1.210938 2.703125 -1.390625 C 2.703125 -1.585938 2.675781 -1.765625 2.625 -1.921875 C 2.582031 -2.078125 2.519531 -2.207031 2.4375 -2.3125 C 2.363281 -2.425781 2.265625 -2.507812 2.140625 -2.5625 C 2.023438 -2.625 1.894531 -2.65625 1.75 -2.65625 C 1.601562 -2.65625 1.472656 -2.625 1.359375 -2.5625 C 1.242188 -2.507812 1.144531 -2.425781 1.0625 -2.3125 C 0.976562 -2.207031 0.914062 -2.078125 0.875 -1.921875 C 0.832031 -1.765625 0.8125 -1.585938 0.8125 -1.390625 C 0.8125 -1.210938 0.832031 -1.050781 0.875 -0.90625 C 0.914062 -0.757812 0.976562 -0.632812 1.0625 -0.53125 C 1.144531 -0.425781 1.242188 -0.34375 1.359375 -0.28125 C 1.472656 -0.226562 1.601562 -0.203125 1.75 -0.203125 Z M 1.75 -0.203125 "/></g></g></g><g fill="#545454" fill-opacity="1"><g transform="translate(48.317743, 8.742751)"><g><path d="M 2.578125 -2.140625 C 2.578125 -1.941406 2.519531 -1.769531 2.40625 -1.625 C 2.289062 -1.488281 2.101562 -1.394531 1.84375 -1.34375 L 2.703125 -0.359375 C 2.765625 -0.285156 2.832031 -0.234375 2.90625 -0.203125 C 2.988281 -0.171875 3.070312 -0.15625 3.15625 -0.15625 L 3.15625 0 L 2.28125 0 L 1.359375 -1.125 C 1.296875 -1.195312 1.238281 -1.242188 1.1875 -1.265625 C 1.144531 -1.296875 1.101562 -1.3125 1.0625 -1.3125 L 1.0625 -0.59375 C 1.0625 -0.5 1.066406 -0.421875 1.078125 -0.359375 C 1.097656 -0.304688 1.125 -0.265625 1.15625 -0.234375 C 1.195312 -0.203125 1.25 -0.179688 1.3125 -0.171875 C 1.382812 -0.160156 1.484375 -0.15625 1.609375 -0.15625 L 1.609375 0 L 0.125 0 L 0.125 -0.15625 C 0.207031 -0.15625 0.273438 -0.160156 0.328125 -0.171875 C 0.378906 -0.179688 0.414062 -0.203125 0.4375 -0.234375 C 0.46875 -0.265625 0.488281 -0.304688 0.5 -0.359375 C 0.507812 -0.410156 0.515625 -0.484375 0.515625 -0.578125 L 0.515625 -2.296875 C 0.515625 -2.378906 0.507812 -2.445312 0.5 -2.5 C 0.5 -2.550781 0.484375 -2.59375 0.453125 -2.625 C 0.429688 -2.65625 0.394531 -2.675781 0.34375 -2.6875 C 0.300781 -2.695312 0.242188 -2.707031 0.171875 -2.71875 L 0.171875 -2.859375 L 1.453125 -2.859375 C 1.816406 -2.859375 2.09375 -2.796875 2.28125 -2.671875 C 2.476562 -2.546875 2.578125 -2.367188 2.578125 -2.140625 Z M 1.0625 -1.546875 L 1.3125 -1.546875 C 1.539062 -1.546875 1.710938 -1.585938 1.828125 -1.671875 C 1.941406 -1.765625 2 -1.914062 2 -2.125 C 2 -2.28125 1.953125 -2.40625 1.859375 -2.5 C 1.765625 -2.601562 1.628906 -2.65625 1.453125 -2.65625 L 1.140625 -2.65625 C 1.085938 -2.65625 1.0625 -2.632812 1.0625 -2.59375 Z M 1.0625 -1.546875 "/></g></g></g><g fill="#545454" fill-opacity="1"><g transform="translate(52.995388, 8.742751)"><g><path d="M 1.625 0.03125 C 1.40625 0.03125 1.203125 0 1.015625 -0.0625 C 0.835938 -0.125 0.6875 -0.21875 0.5625 -0.34375 C 0.4375 -0.46875 0.335938 -0.613281 0.265625 -0.78125 C 0.203125 -0.957031 0.171875 -1.15625 0.171875 -1.375 C 0.171875 -1.601562 0.207031 -1.8125 0.28125 -2 C 0.351562 -2.1875 0.453125 -2.347656 0.578125 -2.484375 C 0.710938 -2.617188 0.875 -2.722656 1.0625 -2.796875 C 1.25 -2.867188 1.453125 -2.90625 1.671875 -2.90625 C 1.828125 -2.90625 1.972656 -2.882812 2.109375 -2.84375 C 2.253906 -2.800781 2.40625 -2.734375 2.5625 -2.640625 L 2.640625 -2.859375 L 2.765625 -2.859375 L 2.765625 -1.921875 L 2.578125 -1.921875 C 2.523438 -2.148438 2.425781 -2.328125 2.28125 -2.453125 C 2.132812 -2.585938 1.945312 -2.65625 1.71875 -2.65625 C 1.4375 -2.65625 1.210938 -2.546875 1.046875 -2.328125 C 0.890625 -2.109375 0.8125 -1.800781 0.8125 -1.40625 C 0.8125 -1.019531 0.890625 -0.722656 1.046875 -0.515625 C 1.203125 -0.316406 1.425781 -0.21875 1.71875 -0.21875 C 1.925781 -0.21875 2.085938 -0.269531 2.203125 -0.375 C 2.328125 -0.476562 2.390625 -0.628906 2.390625 -0.828125 C 2.390625 -0.941406 2.359375 -1.023438 2.296875 -1.078125 C 2.234375 -1.128906 2.132812 -1.160156 2 -1.171875 L 2 -1.3125 L 3.203125 -1.3125 L 3.203125 -1.171875 C 3.078125 -1.171875 2.988281 -1.144531 2.9375 -1.09375 C 2.894531 -1.039062 2.875 -0.941406 2.875 -0.796875 L 2.875 -0.3125 C 2.820312 -0.3125 2.773438 -0.304688 2.734375 -0.296875 C 2.703125 -0.296875 2.664062 -0.289062 2.625 -0.28125 C 2.59375 -0.269531 2.550781 -0.25 2.5 -0.21875 C 2.457031 -0.195312 2.40625 -0.164062 2.34375 -0.125 C 2.15625 -0.0195312 1.914062 0.03125 1.625 0.03125 Z M 1.625 0.03125 "/></g></g></g><g fill="#545454" fill-opacity="1"><g transform="translate(57.899849, 8.742751)"><g><path d="M 1.859375 -0.859375 L 0.8125 -0.859375 C 0.695312 -0.597656 0.640625 -0.414062 0.640625 -0.3125 C 0.640625 -0.238281 0.664062 -0.191406 0.71875 -0.171875 C 0.769531 -0.160156 0.851562 -0.15625 0.96875 -0.15625 L 0.96875 0 L -0.046875 0 L -0.046875 -0.15625 C 0.015625 -0.15625 0.0664062 -0.160156 0.109375 -0.171875 C 0.148438 -0.191406 0.1875 -0.210938 0.21875 -0.234375 C 0.25 -0.253906 0.273438 -0.28125 0.296875 -0.3125 C 0.328125 -0.351562 0.351562 -0.398438 0.375 -0.453125 L 1.359375 -2.90625 L 1.625 -2.90625 L 2.515625 -0.734375 C 2.566406 -0.609375 2.609375 -0.507812 2.640625 -0.4375 C 2.679688 -0.363281 2.722656 -0.304688 2.765625 -0.265625 C 2.804688 -0.222656 2.851562 -0.191406 2.90625 -0.171875 C 2.957031 -0.160156 3.023438 -0.15625 3.109375 -0.15625 L 3.109375 0 L 1.703125 0 L 1.703125 -0.15625 C 1.828125 -0.15625 1.914062 -0.164062 1.96875 -0.1875 C 2.019531 -0.207031 2.046875 -0.25 2.046875 -0.3125 C 2.046875 -0.34375 2.035156 -0.382812 2.015625 -0.4375 C 2.003906 -0.5 1.984375 -0.566406 1.953125 -0.640625 Z M 0.890625 -1.09375 L 1.78125 -1.09375 L 1.359375 -2.21875 L 1.34375 -2.21875 Z M 0.890625 -1.09375 "/></g></g></g><g fill="#545454" fill-opacity="1"><g transform="translate(62.555183, 8.742751)"><g><path d="M 2.484375 0.03125 L 0.84375 -2.3125 L 0.828125 -2.3125 L 0.828125 -0.703125 C 0.828125 -0.585938 0.832031 -0.492188 0.84375 -0.421875 C 0.851562 -0.347656 0.867188 -0.289062 0.890625 -0.25 C 0.921875 -0.207031 0.960938 -0.179688 1.015625 -0.171875 C 1.066406 -0.160156 1.132812 -0.15625 1.21875 -0.15625 L 1.21875 0 L 0.109375 0 L 0.109375 -0.15625 C 0.203125 -0.15625 0.273438 -0.160156 0.328125 -0.171875 C 0.390625 -0.179688 0.4375 -0.207031 0.46875 -0.25 C 0.5 -0.289062 0.519531 -0.34375 0.53125 -0.40625 C 0.539062 -0.476562 0.546875 -0.570312 0.546875 -0.6875 L 0.546875 -2.171875 C 0.546875 -2.273438 0.539062 -2.363281 0.53125 -2.4375 C 0.519531 -2.507812 0.5 -2.5625 0.46875 -2.59375 C 0.4375 -2.632812 0.394531 -2.660156 0.34375 -2.671875 C 0.300781 -2.691406 0.238281 -2.707031 0.15625 -2.71875 L 0.15625 -2.859375 L 1.1875 -2.859375 L 2.6875 -0.71875 L 2.703125 -0.71875 L 2.703125 -2.15625 C 2.703125 -2.269531 2.695312 -2.363281 2.6875 -2.4375 C 2.675781 -2.519531 2.65625 -2.578125 2.625 -2.609375 C 2.601562 -2.648438 2.566406 -2.675781 2.515625 -2.6875 C 2.460938 -2.707031 2.394531 -2.71875 2.3125 -2.71875 L 2.3125 -2.859375 L 3.421875 -2.859375 L 3.421875 -2.71875 C 3.328125 -2.71875 3.25 -2.707031 3.1875 -2.6875 C 3.132812 -2.675781 3.09375 -2.648438 3.0625 -2.609375 C 3.03125 -2.578125 3.007812 -2.523438 3 -2.453125 C 2.988281 -2.378906 2.984375 -2.285156 2.984375 -2.171875 L 2.984375 0.03125 Z M 2.484375 0.03125 "/></g></g></g><g fill="#545454" fill-opacity="1"><g transform="translate(67.697616, 8.742751)"><g/></g></g><g fill="#545454" fill-opacity="1"><g transform="translate(70.333897, 8.742751)"><g><path d="M 2.609375 -2.0625 C 2.609375 -1.800781 2.503906 -1.597656 2.296875 -1.453125 C 2.085938 -1.316406 1.785156 -1.25 1.390625 -1.25 L 1.0625 -1.25 L 1.0625 -0.59375 C 1.0625 -0.5 1.066406 -0.421875 1.078125 -0.359375 C 1.097656 -0.304688 1.125 -0.257812 1.15625 -0.21875 C 1.195312 -0.1875 1.253906 -0.164062 1.328125 -0.15625 C 1.398438 -0.15625 1.492188 -0.15625 1.609375 -0.15625 L 1.609375 0 L 0.125 0 L 0.125 -0.15625 C 0.207031 -0.15625 0.273438 -0.160156 0.328125 -0.171875 C 0.378906 -0.179688 0.414062 -0.203125 0.4375 -0.234375 C 0.46875 -0.265625 0.488281 -0.304688 0.5 -0.359375 C 0.507812 -0.410156 0.515625 -0.484375 0.515625 -0.578125 L 0.515625 -2.296875 C 0.515625 -2.378906 0.507812 -2.445312 0.5 -2.5 C 0.5 -2.550781 0.484375 -2.59375 0.453125 -2.625 C 0.429688 -2.65625 0.394531 -2.675781 0.34375 -2.6875 C 0.300781 -2.695312 0.242188 -2.707031 0.171875 -2.71875 L 0.171875 -2.859375 L 1.453125 -2.859375 C 1.828125 -2.859375 2.113281 -2.789062 2.3125 -2.65625 C 2.507812 -2.53125 2.609375 -2.332031 2.609375 -2.0625 Z M 1.0625 -1.46875 L 1.3125 -1.46875 C 1.550781 -1.46875 1.722656 -1.515625 1.828125 -1.609375 C 1.941406 -1.710938 2 -1.867188 2 -2.078125 C 2 -2.253906 1.953125 -2.394531 1.859375 -2.5 C 1.765625 -2.601562 1.617188 -2.65625 1.421875 -2.65625 L 1.140625 -2.65625 C 1.085938 -2.65625 1.0625 -2.632812 1.0625 -2.59375 Z M 1.0625 -1.46875 "/></g></g></g><g fill="#545454" fill-opacity="1"><g transform="translate(74.647146, 8.742751)"><g><path d="M 2.578125 -2.140625 C 2.578125 -1.941406 2.519531 -1.769531 2.40625 -1.625 C 2.289062 -1.488281 2.101562 -1.394531 1.84375 -1.34375 L 2.703125 -0.359375 C 2.765625 -0.285156 2.832031 -0.234375 2.90625 -0.203125 C 2.988281 -0.171875 3.070312 -0.15625 3.15625 -0.15625 L 3.15625 0 L 2.28125 0 L 1.359375 -1.125 C 1.296875 -1.195312 1.238281 -1.242188 1.1875 -1.265625 C 1.144531 -1.296875 1.101562 -1.3125 1.0625 -1.3125 L 1.0625 -0.59375 C 1.0625 -0.5 1.066406 -0.421875 1.078125 -0.359375 C 1.097656 -0.304688 1.125 -0.265625 1.15625 -0.234375 C 1.195312 -0.203125 1.25 -0.179688 1.3125 -0.171875 C 1.382812 -0.160156 1.484375 -0.15625 1.609375 -0.15625 L 1.609375 0 L 0.125 0 L 0.125 -0.15625 C 0.207031 -0.15625 0.273438 -0.160156 0.328125 -0.171875 C 0.378906 -0.179688 0.414062 -0.203125 0.4375 -0.234375 C 0.46875 -0.265625 0.488281 -0.304688 0.5 -0.359375 C 0.507812 -0.410156 0.515625 -0.484375 0.515625 -0.578125 L 0.515625 -2.296875 C 0.515625 -2.378906 0.507812 -2.445312 0.5 -2.5 C 0.5 -2.550781 0.484375 -2.59375 0.453125 -2.625 C 0.429688 -2.65625 0.394531 -2.675781 0.34375 -2.6875 C 0.300781 -2.695312 0.242188 -2.707031 0.171875 -2.71875 L 0.171875 -2.859375 L 1.453125 -2.859375 C 1.816406 -2.859375 2.09375 -2.796875 2.28125 -2.671875 C 2.476562 -2.546875 2.578125 -2.367188 2.578125 -2.140625 Z M 1.0625 -1.546875 L 1.3125 -1.546875 C 1.539062 -1.546875 1.710938 -1.585938 1.828125 -1.671875 C 1.941406 -1.765625 2 -1.914062 2 -2.125 C 2 -2.28125 1.953125 -2.40625 1.859375 -2.5 C 1.765625 -2.601562 1.628906 -2.65625 1.453125 -2.65625 L 1.140625 -2.65625 C 1.085938 -2.65625 1.0625 -2.632812 1.0625 -2.59375 Z M 1.0625 -1.546875 "/></g></g></g><g fill="#545454" fill-opacity="1"><g transform="translate(79.324792, 8.742751)"><g><path d="M 1.0625 -1.578125 C 1.226562 -1.578125 1.359375 -1.582031 1.453125 -1.59375 C 1.546875 -1.601562 1.617188 -1.625 1.671875 -1.65625 C 1.722656 -1.6875 1.757812 -1.734375 1.78125 -1.796875 C 1.8125 -1.859375 1.832031 -1.9375 1.84375 -2.03125 L 1.984375 -2.03125 L 1.984375 -0.953125 L 1.84375 -0.953125 C 1.820312 -1.046875 1.800781 -1.125 1.78125 -1.1875 C 1.757812 -1.25 1.71875 -1.296875 1.65625 -1.328125 C 1.601562 -1.359375 1.53125 -1.375 1.4375 -1.375 C 1.34375 -1.382812 1.21875 -1.390625 1.0625 -1.390625 L 1.0625 -0.625 C 1.0625 -0.550781 1.070312 -0.484375 1.09375 -0.421875 C 1.113281 -0.367188 1.148438 -0.328125 1.203125 -0.296875 C 1.253906 -0.265625 1.320312 -0.238281 1.40625 -0.21875 C 1.488281 -0.207031 1.585938 -0.203125 1.703125 -0.203125 C 1.847656 -0.203125 1.96875 -0.210938 2.0625 -0.234375 C 2.15625 -0.253906 2.234375 -0.285156 2.296875 -0.328125 C 2.367188 -0.378906 2.421875 -0.445312 2.453125 -0.53125 C 2.492188 -0.613281 2.53125 -0.722656 2.5625 -0.859375 L 2.71875 -0.859375 L 2.65625 0 L 0.125 0 L 0.125 -0.15625 C 0.207031 -0.15625 0.273438 -0.160156 0.328125 -0.171875 C 0.378906 -0.179688 0.414062 -0.203125 0.4375 -0.234375 C 0.46875 -0.265625 0.488281 -0.304688 0.5 -0.359375 C 0.507812 -0.410156 0.515625 -0.484375 0.515625 -0.578125 L 0.515625 -2.296875 C 0.515625 -2.378906 0.507812 -2.445312 0.5 -2.5 C 0.5 -2.550781 0.484375 -2.59375 0.453125 -2.625 C 0.429688 -2.65625 0.394531 -2.675781 0.34375 -2.6875 C 0.300781 -2.695312 0.242188 -2.707031 0.171875 -2.71875 L 0.171875 -2.859375 L 2.515625 -2.859375 L 2.546875 -2.140625 L 2.390625 -2.140625 C 2.367188 -2.242188 2.34375 -2.328125 2.3125 -2.390625 C 2.28125 -2.460938 2.234375 -2.519531 2.171875 -2.5625 C 2.117188 -2.601562 2.046875 -2.628906 1.953125 -2.640625 C 1.867188 -2.660156 1.757812 -2.671875 1.625 -2.671875 L 1.203125 -2.671875 C 1.140625 -2.671875 1.097656 -2.660156 1.078125 -2.640625 C 1.066406 -2.628906 1.0625 -2.59375 1.0625 -2.53125 Z M 1.0625 -1.578125 "/></g></g></g><g fill="#545454" fill-opacity="1"><g transform="translate(83.812798, 8.742751)"><g><path d="M 0.203125 -0.953125 L 0.34375 -0.953125 C 0.375 -0.710938 0.46875 -0.523438 0.625 -0.390625 C 0.78125 -0.253906 0.972656 -0.1875 1.203125 -0.1875 C 1.285156 -0.1875 1.363281 -0.195312 1.4375 -0.21875 C 1.519531 -0.238281 1.585938 -0.269531 1.640625 -0.3125 C 1.703125 -0.351562 1.742188 -0.398438 1.765625 -0.453125 C 1.796875 -0.515625 1.8125 -0.582031 1.8125 -0.65625 C 1.8125 -0.707031 1.800781 -0.753906 1.78125 -0.796875 C 1.769531 -0.847656 1.738281 -0.894531 1.6875 -0.9375 C 1.632812 -0.976562 1.5625 -1.019531 1.46875 -1.0625 C 1.375 -1.101562 1.257812 -1.148438 1.125 -1.203125 C 0.832031 -1.316406 0.613281 -1.445312 0.46875 -1.59375 C 0.332031 -1.738281 0.265625 -1.910156 0.265625 -2.109375 C 0.265625 -2.222656 0.285156 -2.328125 0.328125 -2.421875 C 0.378906 -2.523438 0.441406 -2.609375 0.515625 -2.671875 C 0.597656 -2.742188 0.695312 -2.800781 0.8125 -2.84375 C 0.925781 -2.882812 1.050781 -2.90625 1.1875 -2.90625 C 1.3125 -2.90625 1.425781 -2.882812 1.53125 -2.84375 C 1.644531 -2.800781 1.757812 -2.738281 1.875 -2.65625 L 1.9375 -2.84375 L 2.03125 -2.84375 L 2.078125 -2.046875 L 1.921875 -2.046875 C 1.867188 -2.242188 1.773438 -2.394531 1.640625 -2.5 C 1.515625 -2.613281 1.367188 -2.671875 1.203125 -2.671875 C 1.054688 -2.671875 0.929688 -2.632812 0.828125 -2.5625 C 0.734375 -2.488281 0.6875 -2.390625 0.6875 -2.265625 C 0.6875 -2.210938 0.695312 -2.164062 0.71875 -2.125 C 0.738281 -2.082031 0.769531 -2.039062 0.8125 -2 C 0.863281 -1.96875 0.925781 -1.929688 1 -1.890625 C 1.082031 -1.859375 1.191406 -1.816406 1.328125 -1.765625 C 1.492188 -1.703125 1.640625 -1.632812 1.765625 -1.5625 C 1.890625 -1.5 1.988281 -1.425781 2.0625 -1.34375 C 2.144531 -1.269531 2.203125 -1.1875 2.234375 -1.09375 C 2.273438 -1.007812 2.296875 -0.914062 2.296875 -0.8125 C 2.296875 -0.6875 2.269531 -0.570312 2.21875 -0.46875 C 2.164062 -0.363281 2.085938 -0.273438 1.984375 -0.203125 C 1.890625 -0.128906 1.773438 -0.0703125 1.640625 -0.03125 C 1.503906 0.0078125 1.351562 0.03125 1.1875 0.03125 C 1.039062 0.03125 0.90625 0.015625 0.78125 -0.015625 C 0.664062 -0.0546875 0.546875 -0.125 0.421875 -0.21875 L 0.34375 0 L 0.25 0 Z M 0.203125 -0.953125 "/></g></g></g><g fill="#545454" fill-opacity="1"><g transform="translate(87.925253, 8.742751)"><g><path d="M 1.0625 -1.578125 C 1.226562 -1.578125 1.359375 -1.582031 1.453125 -1.59375 C 1.546875 -1.601562 1.617188 -1.625 1.671875 -1.65625 C 1.722656 -1.6875 1.757812 -1.734375 1.78125 -1.796875 C 1.8125 -1.859375 1.832031 -1.9375 1.84375 -2.03125 L 1.984375 -2.03125 L 1.984375 -0.953125 L 1.84375 -0.953125 C 1.820312 -1.046875 1.800781 -1.125 1.78125 -1.1875 C 1.757812 -1.25 1.71875 -1.296875 1.65625 -1.328125 C 1.601562 -1.359375 1.53125 -1.375 1.4375 -1.375 C 1.34375 -1.382812 1.21875 -1.390625 1.0625 -1.390625 L 1.0625 -0.625 C 1.0625 -0.550781 1.070312 -0.484375 1.09375 -0.421875 C 1.113281 -0.367188 1.148438 -0.328125 1.203125 -0.296875 C 1.253906 -0.265625 1.320312 -0.238281 1.40625 -0.21875 C 1.488281 -0.207031 1.585938 -0.203125 1.703125 -0.203125 C 1.847656 -0.203125 1.96875 -0.210938 2.0625 -0.234375 C 2.15625 -0.253906 2.234375 -0.285156 2.296875 -0.328125 C 2.367188 -0.378906 2.421875 -0.445312 2.453125 -0.53125 C 2.492188 -0.613281 2.53125 -0.722656 2.5625 -0.859375 L 2.71875 -0.859375 L 2.65625 0 L 0.125 0 L 0.125 -0.15625 C 0.207031 -0.15625 0.273438 -0.160156 0.328125 -0.171875 C 0.378906 -0.179688 0.414062 -0.203125 0.4375 -0.234375 C 0.46875 -0.265625 0.488281 -0.304688 0.5 -0.359375 C 0.507812 -0.410156 0.515625 -0.484375 0.515625 -0.578125 L 0.515625 -2.296875 C 0.515625 -2.378906 0.507812 -2.445312 0.5 -2.5 C 0.5 -2.550781 0.484375 -2.59375 0.453125 -2.625 C 0.429688 -2.65625 0.394531 -2.675781 0.34375 -2.6875 C 0.300781 -2.695312 0.242188 -2.707031 0.171875 -2.71875 L 0.171875 -2.859375 L 2.515625 -2.859375 L 2.546875 -2.140625 L 2.390625 -2.140625 C 2.367188 -2.242188 2.34375 -2.328125 2.3125 -2.390625 C 2.28125 -2.460938 2.234375 -2.519531 2.171875 -2.5625 C 2.117188 -2.601562 2.046875 -2.628906 1.953125 -2.640625 C 1.867188 -2.660156 1.757812 -2.671875 1.625 -2.671875 L 1.203125 -2.671875 C 1.140625 -2.671875 1.097656 -2.660156 1.078125 -2.640625 C 1.066406 -2.628906 1.0625 -2.59375 1.0625 -2.53125 Z M 1.0625 -1.578125 "/></g></g></g><g fill="#545454" fill-opacity="1"><g transform="translate(92.413259, 8.742751)"><g><path d="M 2.484375 0.03125 L 0.84375 -2.3125 L 0.828125 -2.3125 L 0.828125 -0.703125 C 0.828125 -0.585938 0.832031 -0.492188 0.84375 -0.421875 C 0.851562 -0.347656 0.867188 -0.289062 0.890625 -0.25 C 0.921875 -0.207031 0.960938 -0.179688 1.015625 -0.171875 C 1.066406 -0.160156 1.132812 -0.15625 1.21875 -0.15625 L 1.21875 0 L 0.109375 0 L 0.109375 -0.15625 C 0.203125 -0.15625 0.273438 -0.160156 0.328125 -0.171875 C 0.390625 -0.179688 0.4375 -0.207031 0.46875 -0.25 C 0.5 -0.289062 0.519531 -0.34375 0.53125 -0.40625 C 0.539062 -0.476562 0.546875 -0.570312 0.546875 -0.6875 L 0.546875 -2.171875 C 0.546875 -2.273438 0.539062 -2.363281 0.53125 -2.4375 C 0.519531 -2.507812 0.5 -2.5625 0.46875 -2.59375 C 0.4375 -2.632812 0.394531 -2.660156 0.34375 -2.671875 C 0.300781 -2.691406 0.238281 -2.707031 0.15625 -2.71875 L 0.15625 -2.859375 L 1.1875 -2.859375 L 2.6875 -0.71875 L 2.703125 -0.71875 L 2.703125 -2.15625 C 2.703125 -2.269531 2.695312 -2.363281 2.6875 -2.4375 C 2.675781 -2.519531 2.65625 -2.578125 2.625 -2.609375 C 2.601562 -2.648438 2.566406 -2.675781 2.515625 -2.6875 C 2.460938 -2.707031 2.394531 -2.71875 2.3125 -2.71875 L 2.3125 -2.859375 L 3.421875 -2.859375 L 3.421875 -2.71875 C 3.328125 -2.71875 3.25 -2.707031 3.1875 -2.6875 C 3.132812 -2.675781 3.09375 -2.648438 3.0625 -2.609375 C 3.03125 -2.578125 3.007812 -2.523438 3 -2.453125 C 2.988281 -2.378906 2.984375 -2.285156 2.984375 -2.171875 L 2.984375 0.03125 Z M 2.484375 0.03125 "/></g></g></g><g fill="#545454" fill-opacity="1"><g transform="translate(97.55569, 8.742751)"><g><path d="M 3.03125 -2.046875 L 2.875 -2.046875 C 2.863281 -2.171875 2.84375 -2.269531 2.8125 -2.34375 C 2.789062 -2.425781 2.753906 -2.488281 2.703125 -2.53125 C 2.648438 -2.582031 2.582031 -2.617188 2.5 -2.640625 C 2.425781 -2.660156 2.34375 -2.671875 2.25 -2.671875 C 2.144531 -2.671875 2.0625 -2.664062 2 -2.65625 C 1.945312 -2.65625 1.90625 -2.648438 1.875 -2.640625 C 1.84375 -2.640625 1.820312 -2.628906 1.8125 -2.609375 C 1.800781 -2.597656 1.796875 -2.582031 1.796875 -2.5625 L 1.796875 -0.609375 C 1.796875 -0.523438 1.800781 -0.453125 1.8125 -0.390625 C 1.832031 -0.335938 1.859375 -0.289062 1.890625 -0.25 C 1.921875 -0.21875 1.96875 -0.191406 2.03125 -0.171875 C 2.101562 -0.160156 2.195312 -0.15625 2.3125 -0.15625 L 2.3125 0 L 0.75 0 L 0.75 -0.15625 C 0.863281 -0.15625 0.953125 -0.160156 1.015625 -0.171875 C 1.078125 -0.191406 1.125 -0.21875 1.15625 -0.25 C 1.195312 -0.289062 1.222656 -0.335938 1.234375 -0.390625 C 1.242188 -0.453125 1.25 -0.523438 1.25 -0.609375 L 1.25 -2.5625 C 1.25 -2.582031 1.242188 -2.597656 1.234375 -2.609375 C 1.234375 -2.628906 1.21875 -2.640625 1.1875 -2.640625 C 1.164062 -2.648438 1.128906 -2.65625 1.078125 -2.65625 C 1.023438 -2.664062 0.957031 -2.671875 0.875 -2.671875 C 0.78125 -2.671875 0.691406 -2.664062 0.609375 -2.65625 C 0.535156 -2.644531 0.46875 -2.617188 0.40625 -2.578125 C 0.34375 -2.535156 0.289062 -2.472656 0.25 -2.390625 C 0.207031 -2.304688 0.1875 -2.191406 0.1875 -2.046875 L 0.046875 -2.046875 L 0.078125 -2.859375 L 3 -2.859375 Z M 3.03125 -2.046875 "/></g></g></g><g fill="#545454" fill-opacity="1"><g transform="translate(102.277952, 8.742751)"><g><path d="M 0.203125 -0.953125 L 0.34375 -0.953125 C 0.375 -0.710938 0.46875 -0.523438 0.625 -0.390625 C 0.78125 -0.253906 0.972656 -0.1875 1.203125 -0.1875 C 1.285156 -0.1875 1.363281 -0.195312 1.4375 -0.21875 C 1.519531 -0.238281 1.585938 -0.269531 1.640625 -0.3125 C 1.703125 -0.351562 1.742188 -0.398438 1.765625 -0.453125 C 1.796875 -0.515625 1.8125 -0.582031 1.8125 -0.65625 C 1.8125 -0.707031 1.800781 -0.753906 1.78125 -0.796875 C 1.769531 -0.847656 1.738281 -0.894531 1.6875 -0.9375 C 1.632812 -0.976562 1.5625 -1.019531 1.46875 -1.0625 C 1.375 -1.101562 1.257812 -1.148438 1.125 -1.203125 C 0.832031 -1.316406 0.613281 -1.445312 0.46875 -1.59375 C 0.332031 -1.738281 0.265625 -1.910156 0.265625 -2.109375 C 0.265625 -2.222656 0.285156 -2.328125 0.328125 -2.421875 C 0.378906 -2.523438 0.441406 -2.609375 0.515625 -2.671875 C 0.597656 -2.742188 0.695312 -2.800781 0.8125 -2.84375 C 0.925781 -2.882812 1.050781 -2.90625 1.1875 -2.90625 C 1.3125 -2.90625 1.425781 -2.882812 1.53125 -2.84375 C 1.644531 -2.800781 1.757812 -2.738281 1.875 -2.65625 L 1.9375 -2.84375 L 2.03125 -2.84375 L 2.078125 -2.046875 L 1.921875 -2.046875 C 1.867188 -2.242188 1.773438 -2.394531 1.640625 -2.5 C 1.515625 -2.613281 1.367188 -2.671875 1.203125 -2.671875 C 1.054688 -2.671875 0.929688 -2.632812 0.828125 -2.5625 C 0.734375 -2.488281 0.6875 -2.390625 0.6875 -2.265625 C 0.6875 -2.210938 0.695312 -2.164062 0.71875 -2.125 C 0.738281 -2.082031 0.769531 -2.039062 0.8125 -2 C 0.863281 -1.96875 0.925781 -1.929688 1 -1.890625 C 1.082031 -1.859375 1.191406 -1.816406 1.328125 -1.765625 C 1.492188 -1.703125 1.640625 -1.632812 1.765625 -1.5625 C 1.890625 -1.5 1.988281 -1.425781 2.0625 -1.34375 C 2.144531 -1.269531 2.203125 -1.1875 2.234375 -1.09375 C 2.273438 -1.007812 2.296875 -0.914062 2.296875 -0.8125 C 2.296875 -0.6875 2.269531 -0.570312 2.21875 -0.46875 C 2.164062 -0.363281 2.085938 -0.273438 1.984375 -0.203125 C 1.890625 -0.128906 1.773438 -0.0703125 1.640625 -0.03125 C 1.503906 0.0078125 1.351562 0.03125 1.1875 0.03125 C 1.039062 0.03125 0.90625 0.015625 0.78125 -0.015625 C 0.664062 -0.0546875 0.546875 -0.125 0.421875 -0.21875 L 0.34375 0 L 0.25 0 Z M 0.203125 -0.953125 "/></g></g></g><g fill="#004aad" fill-opacity="1"><g transform="translate(8.002053, 21.137086)"><g><path d="M 4.453125 -1.4375 L 6.21875 -5.890625 L 8.453125 -5.890625 L 8.453125 -5.59375 C 8.285156 -5.59375 8.148438 -5.570312 8.046875 -5.53125 C 7.941406 -5.5 7.859375 -5.441406 7.796875 -5.359375 C 7.742188 -5.273438 7.707031 -5.15625 7.6875 -5 C 7.664062 -4.851562 7.65625 -4.664062 7.65625 -4.4375 L 7.65625 -1.46875 C 7.65625 -1.207031 7.664062 -1.003906 7.6875 -0.859375 C 7.707031 -0.710938 7.75 -0.597656 7.8125 -0.515625 C 7.875 -0.429688 7.960938 -0.375 8.078125 -0.34375 C 8.191406 -0.320312 8.34375 -0.3125 8.53125 -0.3125 L 8.53125 0 L 5.65625 0 L 5.65625 -0.3125 C 5.84375 -0.3125 5.992188 -0.320312 6.109375 -0.34375 C 6.222656 -0.375 6.3125 -0.425781 6.375 -0.5 C 6.445312 -0.582031 6.488281 -0.691406 6.5 -0.828125 C 6.519531 -0.972656 6.53125 -1.164062 6.53125 -1.40625 L 6.53125 -4.984375 L 6.5 -4.984375 L 4.4375 0.078125 L 3.875 0.078125 L 1.75 -4.984375 L 1.71875 -4.984375 L 1.71875 -1.46875 C 1.71875 -1.207031 1.726562 -1.003906 1.75 -0.859375 C 1.769531 -0.710938 1.804688 -0.597656 1.859375 -0.515625 C 1.921875 -0.429688 2.007812 -0.375 2.125 -0.34375 C 2.238281 -0.320312 2.394531 -0.3125 2.59375 -0.3125 L 2.59375 0 L 0.234375 0 L 0.234375 -0.3125 C 0.421875 -0.3125 0.570312 -0.320312 0.6875 -0.34375 C 0.800781 -0.375 0.890625 -0.425781 0.953125 -0.5 C 1.023438 -0.582031 1.070312 -0.691406 1.09375 -0.828125 C 1.113281 -0.972656 1.125 -1.164062 1.125 -1.40625 L 1.125 -4.484375 C 1.125 -4.703125 1.113281 -4.878906 1.09375 -5.015625 C 1.070312 -5.160156 1.03125 -5.273438 0.96875 -5.359375 C 0.914062 -5.441406 0.835938 -5.5 0.734375 -5.53125 C 0.628906 -5.570312 0.488281 -5.59375 0.3125 -5.59375 L 0.3125 -5.890625 L 2.640625 -5.890625 L 4.421875 -1.4375 Z M 4.453125 -1.4375 "/></g></g></g><g fill="#004aad" fill-opacity="1"><g transform="translate(20.16785, 21.137086)"><g><path d="M 3.609375 -5.96875 C 4.066406 -5.96875 4.492188 -5.890625 4.890625 -5.734375 C 5.296875 -5.578125 5.644531 -5.359375 5.9375 -5.078125 C 6.226562 -4.804688 6.457031 -4.484375 6.625 -4.109375 C 6.800781 -3.734375 6.890625 -3.332031 6.890625 -2.90625 C 6.890625 -2.488281 6.800781 -2.097656 6.625 -1.734375 C 6.457031 -1.367188 6.222656 -1.050781 5.921875 -0.78125 C 5.628906 -0.519531 5.285156 -0.3125 4.890625 -0.15625 C 4.492188 0 4.066406 0.078125 3.609375 0.078125 C 3.160156 0.078125 2.734375 0 2.328125 -0.15625 C 1.929688 -0.3125 1.582031 -0.519531 1.28125 -0.78125 C 0.988281 -1.050781 0.757812 -1.367188 0.59375 -1.734375 C 0.425781 -2.097656 0.34375 -2.488281 0.34375 -2.90625 C 0.34375 -3.332031 0.425781 -3.734375 0.59375 -4.109375 C 0.757812 -4.484375 0.988281 -4.804688 1.28125 -5.078125 C 1.582031 -5.359375 1.929688 -5.578125 2.328125 -5.734375 C 2.722656 -5.890625 3.148438 -5.96875 3.609375 -5.96875 Z M 3.609375 -0.421875 C 3.910156 -0.421875 4.179688 -0.476562 4.421875 -0.59375 C 4.660156 -0.707031 4.863281 -0.867188 5.03125 -1.078125 C 5.195312 -1.296875 5.320312 -1.554688 5.40625 -1.859375 C 5.5 -2.160156 5.546875 -2.5 5.546875 -2.875 C 5.546875 -3.269531 5.5 -3.628906 5.40625 -3.953125 C 5.320312 -4.273438 5.195312 -4.546875 5.03125 -4.765625 C 4.863281 -4.992188 4.660156 -5.164062 4.421875 -5.28125 C 4.179688 -5.40625 3.910156 -5.46875 3.609375 -5.46875 C 3.304688 -5.46875 3.035156 -5.40625 2.796875 -5.28125 C 2.566406 -5.164062 2.363281 -4.992188 2.1875 -4.765625 C 2.019531 -4.546875 1.890625 -4.273438 1.796875 -3.953125 C 1.710938 -3.628906 1.671875 -3.269531 1.671875 -2.875 C 1.671875 -2.5 1.710938 -2.160156 1.796875 -1.859375 C 1.890625 -1.554688 2.019531 -1.296875 2.1875 -1.078125 C 2.363281 -0.867188 2.566406 -0.707031 2.796875 -0.59375 C 3.035156 -0.476562 3.304688 -0.421875 3.609375 -0.421875 Z M 3.609375 -0.421875 "/></g></g></g><g fill="#004aad" fill-opacity="1"><g transform="translate(30.786468, 21.137086)"><g><path d="M 5.328125 -4.421875 C 5.328125 -3.992188 5.203125 -3.632812 4.953125 -3.34375 C 4.710938 -3.0625 4.320312 -2.875 3.78125 -2.78125 L 5.5625 -0.75 C 5.6875 -0.601562 5.832031 -0.492188 6 -0.421875 C 6.164062 -0.347656 6.335938 -0.3125 6.515625 -0.3125 L 6.515625 0 L 4.6875 0 L 2.796875 -2.328125 C 2.671875 -2.484375 2.554688 -2.585938 2.453125 -2.640625 C 2.359375 -2.691406 2.273438 -2.71875 2.203125 -2.71875 L 2.203125 -1.21875 C 2.203125 -1.03125 2.210938 -0.875 2.234375 -0.75 C 2.265625 -0.632812 2.316406 -0.539062 2.390625 -0.46875 C 2.460938 -0.40625 2.570312 -0.363281 2.71875 -0.34375 C 2.863281 -0.320312 3.0625 -0.3125 3.3125 -0.3125 L 3.3125 0 L 0.265625 0 L 0.265625 -0.3125 C 0.429688 -0.3125 0.566406 -0.320312 0.671875 -0.34375 C 0.773438 -0.363281 0.859375 -0.40625 0.921875 -0.46875 C 0.984375 -0.53125 1.023438 -0.617188 1.046875 -0.734375 C 1.066406 -0.847656 1.078125 -0.992188 1.078125 -1.171875 L 1.078125 -4.71875 C 1.078125 -4.894531 1.066406 -5.035156 1.046875 -5.140625 C 1.035156 -5.253906 1.003906 -5.34375 0.953125 -5.40625 C 0.898438 -5.46875 0.828125 -5.507812 0.734375 -5.53125 C 0.640625 -5.5625 0.515625 -5.582031 0.359375 -5.59375 L 0.359375 -5.890625 L 3 -5.890625 C 3.738281 -5.890625 4.3125 -5.757812 4.71875 -5.5 C 5.125 -5.238281 5.328125 -4.878906 5.328125 -4.421875 Z M 2.203125 -3.171875 L 2.6875 -3.171875 C 3.175781 -3.171875 3.535156 -3.265625 3.765625 -3.453125 C 4.003906 -3.640625 4.125 -3.945312 4.125 -4.375 C 4.125 -4.707031 4.023438 -4.972656 3.828125 -5.171875 C 3.628906 -5.367188 3.351562 -5.46875 3 -5.46875 L 2.328125 -5.46875 C 2.242188 -5.46875 2.203125 -5.425781 2.203125 -5.34375 Z M 2.203125 -3.171875 "/></g></g></g><g fill="#004aad" fill-opacity="1"><g transform="translate(40.424694, 21.137086)"><g><path d="M 3.359375 0.078125 C 2.898438 0.078125 2.484375 0.0078125 2.109375 -0.125 C 1.734375 -0.257812 1.414062 -0.453125 1.15625 -0.703125 C 0.90625 -0.960938 0.707031 -1.269531 0.5625 -1.625 C 0.425781 -1.988281 0.359375 -2.394531 0.359375 -2.84375 C 0.359375 -3.300781 0.429688 -3.722656 0.578125 -4.109375 C 0.734375 -4.492188 0.945312 -4.820312 1.21875 -5.09375 C 1.488281 -5.375 1.8125 -5.585938 2.1875 -5.734375 C 2.5625 -5.890625 2.984375 -5.96875 3.453125 -5.96875 C 3.765625 -5.96875 4.0625 -5.925781 4.34375 -5.84375 C 4.632812 -5.757812 4.945312 -5.617188 5.28125 -5.421875 L 5.421875 -5.890625 L 5.703125 -5.890625 L 5.703125 -3.953125 L 5.3125 -3.953125 C 5.207031 -4.429688 5 -4.800781 4.6875 -5.0625 C 4.382812 -5.332031 4 -5.46875 3.53125 -5.46875 C 2.945312 -5.46875 2.492188 -5.242188 2.171875 -4.796875 C 1.847656 -4.347656 1.6875 -3.71875 1.6875 -2.90625 C 1.6875 -2.101562 1.84375 -1.488281 2.15625 -1.0625 C 2.476562 -0.644531 2.9375 -0.4375 3.53125 -0.4375 C 3.96875 -0.4375 4.304688 -0.546875 4.546875 -0.765625 C 4.796875 -0.992188 4.921875 -1.300781 4.921875 -1.6875 C 4.921875 -1.925781 4.859375 -2.097656 4.734375 -2.203125 C 4.609375 -2.316406 4.398438 -2.382812 4.109375 -2.40625 L 4.109375 -2.71875 L 6.59375 -2.71875 L 6.59375 -2.40625 C 6.34375 -2.40625 6.164062 -2.347656 6.0625 -2.234375 C 5.96875 -2.128906 5.921875 -1.9375 5.921875 -1.65625 L 5.921875 -0.640625 C 5.804688 -0.640625 5.710938 -0.632812 5.640625 -0.625 C 5.566406 -0.613281 5.492188 -0.597656 5.421875 -0.578125 C 5.347656 -0.554688 5.265625 -0.519531 5.171875 -0.46875 C 5.078125 -0.414062 4.960938 -0.347656 4.828125 -0.265625 C 4.429688 -0.0351562 3.941406 0.078125 3.359375 0.078125 Z M 3.359375 0.078125 "/></g></g></g><g fill="#004aad" fill-opacity="1"><g transform="translate(50.530138, 21.137086)"><g/></g></g><g fill="#004aad" fill-opacity="1"><g transform="translate(55.963397, 21.137086)"><g><path d="M 6.15625 -1.234375 C 6.15625 -1.035156 6.164062 -0.875 6.1875 -0.75 C 6.207031 -0.632812 6.242188 -0.546875 6.296875 -0.484375 C 6.359375 -0.421875 6.441406 -0.375 6.546875 -0.34375 C 6.648438 -0.320312 6.789062 -0.3125 6.96875 -0.3125 L 6.96875 0 L 4.15625 0 L 4.15625 -0.3125 C 4.34375 -0.3125 4.492188 -0.320312 4.609375 -0.34375 C 4.722656 -0.375 4.8125 -0.421875 4.875 -0.484375 C 4.945312 -0.546875 4.988281 -0.628906 5 -0.734375 C 5.019531 -0.847656 5.03125 -0.992188 5.03125 -1.171875 L 5.03125 -2.78125 L 2.203125 -2.78125 L 2.203125 -1.234375 C 2.203125 -1.035156 2.210938 -0.875 2.234375 -0.75 C 2.253906 -0.632812 2.289062 -0.546875 2.34375 -0.484375 C 2.40625 -0.421875 2.492188 -0.375 2.609375 -0.34375 C 2.722656 -0.320312 2.875 -0.3125 3.0625 -0.3125 L 3.0625 0 L 0.265625 0 L 0.265625 -0.3125 C 0.441406 -0.3125 0.582031 -0.320312 0.6875 -0.34375 C 0.789062 -0.375 0.867188 -0.421875 0.921875 -0.484375 C 0.984375 -0.546875 1.023438 -0.628906 1.046875 -0.734375 C 1.066406 -0.847656 1.078125 -0.992188 1.078125 -1.171875 L 1.078125 -4.71875 C 1.078125 -4.894531 1.066406 -5.035156 1.046875 -5.140625 C 1.023438 -5.253906 0.988281 -5.34375 0.9375 -5.40625 C 0.882812 -5.46875 0.8125 -5.507812 0.71875 -5.53125 C 0.625 -5.5625 0.503906 -5.582031 0.359375 -5.59375 L 0.359375 -5.890625 L 3 -5.890625 L 3 -5.59375 C 2.820312 -5.582031 2.679688 -5.5625 2.578125 -5.53125 C 2.472656 -5.507812 2.390625 -5.46875 2.328125 -5.40625 C 2.273438 -5.34375 2.238281 -5.25 2.21875 -5.125 C 2.207031 -5.007812 2.203125 -4.851562 2.203125 -4.65625 L 2.203125 -3.25 L 5.03125 -3.25 L 5.03125 -4.71875 C 5.03125 -4.894531 5.019531 -5.035156 5 -5.140625 C 4.988281 -5.253906 4.953125 -5.34375 4.890625 -5.40625 C 4.835938 -5.46875 4.757812 -5.507812 4.65625 -5.53125 C 4.550781 -5.5625 4.410156 -5.582031 4.234375 -5.59375 L 4.234375 -5.890625 L 6.890625 -5.890625 L 6.890625 -5.59375 C 6.734375 -5.582031 6.609375 -5.5625 6.515625 -5.53125 C 6.421875 -5.507812 6.347656 -5.46875 6.296875 -5.40625 C 6.242188 -5.34375 6.207031 -5.25 6.1875 -5.125 C 6.164062 -5.007812 6.15625 -4.851562 6.15625 -4.65625 Z M 6.15625 -1.234375 "/></g></g></g><g fill="#004aad" fill-opacity="1"><g transform="translate(66.597332, 21.137086)"><g><path d="M 3.609375 -5.96875 C 4.066406 -5.96875 4.492188 -5.890625 4.890625 -5.734375 C 5.296875 -5.578125 5.644531 -5.359375 5.9375 -5.078125 C 6.226562 -4.804688 6.457031 -4.484375 6.625 -4.109375 C 6.800781 -3.734375 6.890625 -3.332031 6.890625 -2.90625 C 6.890625 -2.488281 6.800781 -2.097656 6.625 -1.734375 C 6.457031 -1.367188 6.222656 -1.050781 5.921875 -0.78125 C 5.628906 -0.519531 5.285156 -0.3125 4.890625 -0.15625 C 4.492188 0 4.066406 0.078125 3.609375 0.078125 C 3.160156 0.078125 2.734375 0 2.328125 -0.15625 C 1.929688 -0.3125 1.582031 -0.519531 1.28125 -0.78125 C 0.988281 -1.050781 0.757812 -1.367188 0.59375 -1.734375 C 0.425781 -2.097656 0.34375 -2.488281 0.34375 -2.90625 C 0.34375 -3.332031 0.425781 -3.734375 0.59375 -4.109375 C 0.757812 -4.484375 0.988281 -4.804688 1.28125 -5.078125 C 1.582031 -5.359375 1.929688 -5.578125 2.328125 -5.734375 C 2.722656 -5.890625 3.148438 -5.96875 3.609375 -5.96875 Z M 3.609375 -0.421875 C 3.910156 -0.421875 4.179688 -0.476562 4.421875 -0.59375 C 4.660156 -0.707031 4.863281 -0.867188 5.03125 -1.078125 C 5.195312 -1.296875 5.320312 -1.554688 5.40625 -1.859375 C 5.5 -2.160156 5.546875 -2.5 5.546875 -2.875 C 5.546875 -3.269531 5.5 -3.628906 5.40625 -3.953125 C 5.320312 -4.273438 5.195312 -4.546875 5.03125 -4.765625 C 4.863281 -4.992188 4.660156 -5.164062 4.421875 -5.28125 C 4.179688 -5.40625 3.910156 -5.46875 3.609375 -5.46875 C 3.304688 -5.46875 3.035156 -5.40625 2.796875 -5.28125 C 2.566406 -5.164062 2.363281 -4.992188 2.1875 -4.765625 C 2.019531 -4.546875 1.890625 -4.273438 1.796875 -3.953125 C 1.710938 -3.628906 1.671875 -3.269531 1.671875 -2.875 C 1.671875 -2.5 1.710938 -2.160156 1.796875 -1.859375 C 1.890625 -1.554688 2.019531 -1.296875 2.1875 -1.078125 C 2.363281 -0.867188 2.566406 -0.707031 2.796875 -0.59375 C 3.035156 -0.476562 3.304688 -0.421875 3.609375 -0.421875 Z M 3.609375 -0.421875 "/></g></g></g><g fill="#004aad" fill-opacity="1"><g transform="translate(77.215948, 21.137086)"><g><path d="M 4.453125 -1.4375 L 6.21875 -5.890625 L 8.453125 -5.890625 L 8.453125 -5.59375 C 8.285156 -5.59375 8.148438 -5.570312 8.046875 -5.53125 C 7.941406 -5.5 7.859375 -5.441406 7.796875 -5.359375 C 7.742188 -5.273438 7.707031 -5.15625 7.6875 -5 C 7.664062 -4.851562 7.65625 -4.664062 7.65625 -4.4375 L 7.65625 -1.46875 C 7.65625 -1.207031 7.664062 -1.003906 7.6875 -0.859375 C 7.707031 -0.710938 7.75 -0.597656 7.8125 -0.515625 C 7.875 -0.429688 7.960938 -0.375 8.078125 -0.34375 C 8.191406 -0.320312 8.34375 -0.3125 8.53125 -0.3125 L 8.53125 0 L 5.65625 0 L 5.65625 -0.3125 C 5.84375 -0.3125 5.992188 -0.320312 6.109375 -0.34375 C 6.222656 -0.375 6.3125 -0.425781 6.375 -0.5 C 6.445312 -0.582031 6.488281 -0.691406 6.5 -0.828125 C 6.519531 -0.972656 6.53125 -1.164062 6.53125 -1.40625 L 6.53125 -4.984375 L 6.5 -4.984375 L 4.4375 0.078125 L 3.875 0.078125 L 1.75 -4.984375 L 1.71875 -4.984375 L 1.71875 -1.46875 C 1.71875 -1.207031 1.726562 -1.003906 1.75 -0.859375 C 1.769531 -0.710938 1.804688 -0.597656 1.859375 -0.515625 C 1.921875 -0.429688 2.007812 -0.375 2.125 -0.34375 C 2.238281 -0.320312 2.394531 -0.3125 2.59375 -0.3125 L 2.59375 0 L 0.234375 0 L 0.234375 -0.3125 C 0.421875 -0.3125 0.570312 -0.320312 0.6875 -0.34375 C 0.800781 -0.375 0.890625 -0.425781 0.953125 -0.5 C 1.023438 -0.582031 1.070312 -0.691406 1.09375 -0.828125 C 1.113281 -0.972656 1.125 -1.164062 1.125 -1.40625 L 1.125 -4.484375 C 1.125 -4.703125 1.113281 -4.878906 1.09375 -5.015625 C 1.070312 -5.160156 1.03125 -5.273438 0.96875 -5.359375 C 0.914062 -5.441406 0.835938 -5.5 0.734375 -5.53125 C 0.628906 -5.570312 0.488281 -5.59375 0.3125 -5.59375 L 0.3125 -5.890625 L 2.640625 -5.890625 L 4.421875 -1.4375 Z M 4.453125 -1.4375 "/></g></g></g><g fill="#004aad" fill-opacity="1"><g transform="translate(89.381748, 21.137086)"><g><path d="M 2.203125 -3.265625 C 2.523438 -3.265625 2.785156 -3.273438 2.984375 -3.296875 C 3.179688 -3.316406 3.332031 -3.359375 3.4375 -3.421875 C 3.550781 -3.484375 3.628906 -3.570312 3.671875 -3.6875 C 3.722656 -3.8125 3.765625 -3.984375 3.796875 -4.203125 L 4.078125 -4.203125 L 4.078125 -1.953125 L 3.796875 -1.953125 C 3.765625 -2.160156 3.722656 -2.320312 3.671875 -2.4375 C 3.617188 -2.5625 3.535156 -2.65625 3.421875 -2.71875 C 3.304688 -2.78125 3.15625 -2.820312 2.96875 -2.84375 C 2.78125 -2.863281 2.523438 -2.875 2.203125 -2.875 L 2.203125 -1.296875 C 2.203125 -1.128906 2.222656 -0.988281 2.265625 -0.875 C 2.304688 -0.769531 2.378906 -0.679688 2.484375 -0.609375 C 2.585938 -0.535156 2.722656 -0.484375 2.890625 -0.453125 C 3.054688 -0.429688 3.257812 -0.421875 3.5 -0.421875 C 3.789062 -0.421875 4.035156 -0.441406 4.234375 -0.484375 C 4.441406 -0.523438 4.613281 -0.59375 4.75 -0.6875 C 4.882812 -0.789062 4.988281 -0.925781 5.0625 -1.09375 C 5.144531 -1.269531 5.21875 -1.488281 5.28125 -1.75 L 5.578125 -1.75 L 5.453125 0 L 0.265625 0 L 0.265625 -0.3125 C 0.429688 -0.3125 0.566406 -0.320312 0.671875 -0.34375 C 0.785156 -0.375 0.867188 -0.421875 0.921875 -0.484375 C 0.984375 -0.546875 1.023438 -0.628906 1.046875 -0.734375 C 1.066406 -0.847656 1.078125 -0.992188 1.078125 -1.171875 L 1.078125 -4.71875 C 1.078125 -4.894531 1.066406 -5.035156 1.046875 -5.140625 C 1.023438 -5.253906 0.988281 -5.34375 0.9375 -5.40625 C 0.882812 -5.46875 0.8125 -5.507812 0.71875 -5.53125 C 0.625 -5.5625 0.503906 -5.582031 0.359375 -5.59375 L 0.359375 -5.890625 L 5.1875 -5.890625 L 5.25 -4.390625 L 4.921875 -4.390625 C 4.890625 -4.609375 4.835938 -4.785156 4.765625 -4.921875 C 4.703125 -5.066406 4.609375 -5.179688 4.484375 -5.265625 C 4.367188 -5.347656 4.21875 -5.40625 4.03125 -5.4375 C 3.851562 -5.46875 3.628906 -5.484375 3.359375 -5.484375 L 2.484375 -5.484375 C 2.359375 -5.484375 2.28125 -5.46875 2.25 -5.4375 C 2.21875 -5.40625 2.203125 -5.328125 2.203125 -5.203125 Z M 2.203125 -3.265625 "/></g></g></g><g fill="#004aad" fill-opacity="1"><g transform="translate(98.629348, 21.137086)"><g><path d="M 0.40625 -1.953125 L 0.71875 -1.953125 C 0.78125 -1.460938 0.96875 -1.078125 1.28125 -0.796875 C 1.601562 -0.523438 2 -0.390625 2.46875 -0.390625 C 2.65625 -0.390625 2.828125 -0.410156 2.984375 -0.453125 C 3.140625 -0.503906 3.273438 -0.570312 3.390625 -0.65625 C 3.503906 -0.738281 3.59375 -0.835938 3.65625 -0.953125 C 3.71875 -1.066406 3.75 -1.195312 3.75 -1.34375 C 3.75 -1.46875 3.726562 -1.570312 3.6875 -1.65625 C 3.644531 -1.75 3.570312 -1.835938 3.46875 -1.921875 C 3.363281 -2.003906 3.21875 -2.085938 3.03125 -2.171875 C 2.84375 -2.253906 2.597656 -2.351562 2.296875 -2.46875 C 1.703125 -2.695312 1.257812 -2.960938 0.96875 -3.265625 C 0.6875 -3.578125 0.546875 -3.9375 0.546875 -4.34375 C 0.546875 -4.582031 0.59375 -4.800781 0.6875 -5 C 0.78125 -5.207031 0.910156 -5.378906 1.078125 -5.515625 C 1.242188 -5.660156 1.441406 -5.769531 1.671875 -5.84375 C 1.898438 -5.925781 2.15625 -5.96875 2.4375 -5.96875 C 2.695312 -5.96875 2.941406 -5.925781 3.171875 -5.84375 C 3.398438 -5.769531 3.628906 -5.648438 3.859375 -5.484375 L 4 -5.859375 L 4.1875 -5.859375 L 4.265625 -4.21875 L 3.96875 -4.21875 C 3.84375 -4.632812 3.648438 -4.953125 3.390625 -5.171875 C 3.128906 -5.390625 2.828125 -5.5 2.484375 -5.5 C 2.171875 -5.5 1.914062 -5.421875 1.71875 -5.265625 C 1.519531 -5.109375 1.421875 -4.910156 1.421875 -4.671875 C 1.421875 -4.566406 1.4375 -4.46875 1.46875 -4.375 C 1.507812 -4.289062 1.578125 -4.210938 1.671875 -4.140625 C 1.773438 -4.066406 1.910156 -3.988281 2.078125 -3.90625 C 2.242188 -3.832031 2.457031 -3.742188 2.71875 -3.640625 C 3.082031 -3.503906 3.390625 -3.363281 3.640625 -3.21875 C 3.890625 -3.082031 4.09375 -2.929688 4.25 -2.765625 C 4.414062 -2.609375 4.535156 -2.441406 4.609375 -2.265625 C 4.691406 -2.085938 4.734375 -1.890625 4.734375 -1.671875 C 4.734375 -1.410156 4.675781 -1.171875 4.5625 -0.953125 C 4.445312 -0.742188 4.289062 -0.5625 4.09375 -0.40625 C 3.894531 -0.257812 3.65625 -0.140625 3.375 -0.046875 C 3.09375 0.0351562 2.785156 0.078125 2.453125 0.078125 C 2.140625 0.078125 1.859375 0.0351562 1.609375 -0.046875 C 1.367188 -0.128906 1.117188 -0.265625 0.859375 -0.453125 L 0.71875 0 L 0.53125 0 Z M 0.40625 -1.953125 "/></g></g></g><g fill="#004aad" fill-opacity="1"><g transform="translate(107.103352, 21.137086)"><g><path d="M 6.234375 -4.21875 L 5.90625 -4.21875 C 5.894531 -4.46875 5.859375 -4.671875 5.796875 -4.828125 C 5.742188 -4.992188 5.660156 -5.125 5.546875 -5.21875 C 5.441406 -5.320312 5.3125 -5.394531 5.15625 -5.4375 C 5.007812 -5.476562 4.832031 -5.5 4.625 -5.5 C 4.425781 -5.5 4.265625 -5.492188 4.140625 -5.484375 C 4.023438 -5.472656 3.9375 -5.457031 3.875 -5.4375 C 3.8125 -5.425781 3.769531 -5.40625 3.75 -5.375 C 3.726562 -5.34375 3.71875 -5.304688 3.71875 -5.265625 L 3.71875 -1.25 C 3.71875 -1.082031 3.726562 -0.941406 3.75 -0.828125 C 3.769531 -0.710938 3.816406 -0.613281 3.890625 -0.53125 C 3.960938 -0.457031 4.066406 -0.398438 4.203125 -0.359375 C 4.335938 -0.328125 4.519531 -0.3125 4.75 -0.3125 L 4.75 0 L 1.53125 0 L 1.53125 -0.3125 C 1.769531 -0.3125 1.957031 -0.328125 2.09375 -0.359375 C 2.226562 -0.398438 2.332031 -0.457031 2.40625 -0.53125 C 2.476562 -0.613281 2.523438 -0.710938 2.546875 -0.828125 C 2.578125 -0.941406 2.59375 -1.082031 2.59375 -1.25 L 2.59375 -5.265625 C 2.59375 -5.304688 2.582031 -5.34375 2.5625 -5.375 C 2.539062 -5.40625 2.5 -5.425781 2.4375 -5.4375 C 2.382812 -5.457031 2.304688 -5.472656 2.203125 -5.484375 C 2.097656 -5.492188 1.960938 -5.5 1.796875 -5.5 C 1.617188 -5.5 1.441406 -5.488281 1.265625 -5.46875 C 1.097656 -5.445312 0.953125 -5.394531 0.828125 -5.3125 C 0.703125 -5.226562 0.597656 -5.097656 0.515625 -4.921875 C 0.429688 -4.753906 0.390625 -4.519531 0.390625 -4.21875 L 0.09375 -4.21875 L 0.171875 -5.890625 L 6.15625 -5.890625 Z M 6.234375 -4.21875 "/></g></g></g><g fill="#004aad" fill-opacity="1"><g transform="translate(116.83349, 21.137086)"><g><path d="M 3.828125 -1.78125 L 1.671875 -1.78125 C 1.429688 -1.238281 1.3125 -0.863281 1.3125 -0.65625 C 1.3125 -0.5 1.367188 -0.398438 1.484375 -0.359375 C 1.597656 -0.328125 1.769531 -0.3125 2 -0.3125 L 2 0 L -0.09375 0 L -0.09375 -0.3125 C 0.0195312 -0.320312 0.125 -0.335938 0.21875 -0.359375 C 0.3125 -0.390625 0.390625 -0.425781 0.453125 -0.46875 C 0.523438 -0.519531 0.585938 -0.582031 0.640625 -0.65625 C 0.691406 -0.726562 0.738281 -0.816406 0.78125 -0.921875 L 2.796875 -5.96875 L 3.359375 -5.96875 L 5.1875 -1.5 C 5.300781 -1.238281 5.394531 -1.035156 5.46875 -0.890625 C 5.539062 -0.742188 5.617188 -0.628906 5.703125 -0.546875 C 5.785156 -0.460938 5.878906 -0.40625 5.984375 -0.375 C 6.097656 -0.351562 6.242188 -0.332031 6.421875 -0.3125 L 6.421875 0 L 3.515625 0 L 3.515625 -0.3125 C 3.765625 -0.320312 3.941406 -0.347656 4.046875 -0.390625 C 4.160156 -0.429688 4.21875 -0.515625 4.21875 -0.640625 C 4.21875 -0.710938 4.195312 -0.800781 4.15625 -0.90625 C 4.125 -1.019531 4.078125 -1.160156 4.015625 -1.328125 Z M 1.84375 -2.25 L 3.671875 -2.25 L 2.78125 -4.5625 L 2.75 -4.5625 Z M 1.84375 -2.25 "/></g></g></g><g fill="#004aad" fill-opacity="1"><g transform="translate(126.425757, 21.137086)"><g><path d="M 0.765625 -4.9375 C 0.691406 -5.0625 0.625 -5.164062 0.5625 -5.25 C 0.5 -5.34375 0.429688 -5.410156 0.359375 -5.453125 C 0.296875 -5.503906 0.222656 -5.539062 0.140625 -5.5625 C 0.0664062 -5.582031 -0.015625 -5.59375 -0.109375 -5.59375 L -0.109375 -5.890625 L 2.46875 -5.890625 L 2.46875 -5.59375 C 2.25 -5.59375 2.097656 -5.570312 2.015625 -5.53125 C 1.929688 -5.488281 1.890625 -5.425781 1.890625 -5.34375 C 1.890625 -5.289062 1.898438 -5.226562 1.921875 -5.15625 C 1.953125 -5.082031 2.003906 -4.988281 2.078125 -4.875 L 3.171875 -2.78125 L 3.203125 -2.78125 L 4.171875 -4.390625 C 4.335938 -4.671875 4.453125 -4.878906 4.515625 -5.015625 C 4.578125 -5.160156 4.609375 -5.273438 4.609375 -5.359375 C 4.609375 -5.441406 4.566406 -5.5 4.484375 -5.53125 C 4.410156 -5.570312 4.269531 -5.59375 4.0625 -5.59375 L 4.0625 -5.890625 L 5.984375 -5.890625 L 5.984375 -5.59375 C 5.867188 -5.59375 5.765625 -5.570312 5.671875 -5.53125 C 5.578125 -5.5 5.476562 -5.429688 5.375 -5.328125 C 5.28125 -5.222656 5.171875 -5.078125 5.046875 -4.890625 C 4.921875 -4.703125 4.769531 -4.457031 4.59375 -4.15625 L 3.484375 -2.25 L 3.484375 -1.46875 C 3.484375 -1.207031 3.492188 -1 3.515625 -0.84375 C 3.535156 -0.695312 3.578125 -0.582031 3.640625 -0.5 C 3.703125 -0.425781 3.78125 -0.375 3.875 -0.34375 C 3.976562 -0.320312 4.113281 -0.3125 4.28125 -0.3125 L 4.28125 0 L 1.546875 0 L 1.546875 -0.3125 C 1.710938 -0.3125 1.847656 -0.320312 1.953125 -0.34375 C 2.054688 -0.375 2.140625 -0.425781 2.203125 -0.5 C 2.265625 -0.570312 2.304688 -0.679688 2.328125 -0.828125 C 2.347656 -0.972656 2.359375 -1.164062 2.359375 -1.40625 L 2.359375 -2.109375 Z M 0.765625 -4.9375 "/></g></g></g><g fill="#545454" fill-opacity="1"><g transform="translate(31.236589, 30.122979)"><g><path d="M 0.203125 -0.953125 L 0.34375 -0.953125 C 0.375 -0.710938 0.46875 -0.523438 0.625 -0.390625 C 0.78125 -0.253906 0.972656 -0.1875 1.203125 -0.1875 C 1.285156 -0.1875 1.363281 -0.195312 1.4375 -0.21875 C 1.519531 -0.238281 1.585938 -0.269531 1.640625 -0.3125 C 1.703125 -0.351562 1.742188 -0.398438 1.765625 -0.453125 C 1.796875 -0.515625 1.8125 -0.582031 1.8125 -0.65625 C 1.8125 -0.707031 1.800781 -0.753906 1.78125 -0.796875 C 1.769531 -0.847656 1.738281 -0.894531 1.6875 -0.9375 C 1.632812 -0.976562 1.5625 -1.019531 1.46875 -1.0625 C 1.375 -1.101562 1.257812 -1.148438 1.125 -1.203125 C 0.832031 -1.316406 0.613281 -1.445312 0.46875 -1.59375 C 0.332031 -1.738281 0.265625 -1.910156 0.265625 -2.109375 C 0.265625 -2.222656 0.285156 -2.328125 0.328125 -2.421875 C 0.378906 -2.523438 0.441406 -2.609375 0.515625 -2.671875 C 0.597656 -2.742188 0.695312 -2.800781 0.8125 -2.84375 C 0.925781 -2.882812 1.050781 -2.90625 1.1875 -2.90625 C 1.3125 -2.90625 1.425781 -2.882812 1.53125 -2.84375 C 1.644531 -2.800781 1.757812 -2.738281 1.875 -2.65625 L 1.9375 -2.84375 L 2.03125 -2.84375 L 2.078125 -2.046875 L 1.921875 -2.046875 C 1.867188 -2.242188 1.773438 -2.394531 1.640625 -2.5 C 1.515625 -2.613281 1.367188 -2.671875 1.203125 -2.671875 C 1.054688 -2.671875 0.929688 -2.632812 0.828125 -2.5625 C 0.734375 -2.488281 0.6875 -2.390625 0.6875 -2.265625 C 0.6875 -2.210938 0.695312 -2.164062 0.71875 -2.125 C 0.738281 -2.082031 0.769531 -2.039062 0.8125 -2 C 0.863281 -1.96875 0.925781 -1.929688 1 -1.890625 C 1.082031 -1.859375 1.191406 -1.816406 1.328125 -1.765625 C 1.492188 -1.703125 1.640625 -1.632812 1.765625 -1.5625 C 1.890625 -1.5 1.988281 -1.425781 2.0625 -1.34375 C 2.144531 -1.269531 2.203125 -1.1875 2.234375 -1.09375 C 2.273438 -1.007812 2.296875 -0.914062 2.296875 -0.8125 C 2.296875 -0.6875 2.269531 -0.570312 2.21875 -0.46875 C 2.164062 -0.363281 2.085938 -0.273438 1.984375 -0.203125 C 1.890625 -0.128906 1.773438 -0.0703125 1.640625 -0.03125 C 1.503906 0.0078125 1.351562 0.03125 1.1875 0.03125 C 1.039062 0.03125 0.90625 0.015625 0.78125 -0.015625 C 0.664062 -0.0546875 0.546875 -0.125 0.421875 -0.21875 L 0.34375 0 L 0.25 0 Z M 0.203125 -0.953125 "/></g></g></g><g fill="#545454" fill-opacity="1"><g transform="translate(35.349046, 30.122979)"><g><path d="M 3.03125 -2.046875 L 2.875 -2.046875 C 2.863281 -2.171875 2.84375 -2.269531 2.8125 -2.34375 C 2.789062 -2.425781 2.753906 -2.488281 2.703125 -2.53125 C 2.648438 -2.582031 2.582031 -2.617188 2.5 -2.640625 C 2.425781 -2.660156 2.34375 -2.671875 2.25 -2.671875 C 2.144531 -2.671875 2.0625 -2.664062 2 -2.65625 C 1.945312 -2.65625 1.90625 -2.648438 1.875 -2.640625 C 1.84375 -2.640625 1.820312 -2.628906 1.8125 -2.609375 C 1.800781 -2.597656 1.796875 -2.582031 1.796875 -2.5625 L 1.796875 -0.609375 C 1.796875 -0.523438 1.800781 -0.453125 1.8125 -0.390625 C 1.832031 -0.335938 1.859375 -0.289062 1.890625 -0.25 C 1.921875 -0.21875 1.96875 -0.191406 2.03125 -0.171875 C 2.101562 -0.160156 2.195312 -0.15625 2.3125 -0.15625 L 2.3125 0 L 0.75 0 L 0.75 -0.15625 C 0.863281 -0.15625 0.953125 -0.160156 1.015625 -0.171875 C 1.078125 -0.191406 1.125 -0.21875 1.15625 -0.25 C 1.195312 -0.289062 1.222656 -0.335938 1.234375 -0.390625 C 1.242188 -0.453125 1.25 -0.523438 1.25 -0.609375 L 1.25 -2.5625 C 1.25 -2.582031 1.242188 -2.597656 1.234375 -2.609375 C 1.234375 -2.628906 1.21875 -2.640625 1.1875 -2.640625 C 1.164062 -2.648438 1.128906 -2.65625 1.078125 -2.65625 C 1.023438 -2.664062 0.957031 -2.671875 0.875 -2.671875 C 0.78125 -2.671875 0.691406 -2.664062 0.609375 -2.65625 C 0.535156 -2.644531 0.46875 -2.617188 0.40625 -2.578125 C 0.34375 -2.535156 0.289062 -2.472656 0.25 -2.390625 C 0.207031 -2.304688 0.1875 -2.191406 0.1875 -2.046875 L 0.046875 -2.046875 L 0.078125 -2.859375 L 3 -2.859375 Z M 3.03125 -2.046875 "/></g></g></g><g fill="#545454" fill-opacity="1"><g transform="translate(40.07131, 30.122979)"><g><path d="M 1.859375 -0.859375 L 0.8125 -0.859375 C 0.695312 -0.597656 0.640625 -0.414062 0.640625 -0.3125 C 0.640625 -0.238281 0.664062 -0.191406 0.71875 -0.171875 C 0.769531 -0.160156 0.851562 -0.15625 0.96875 -0.15625 L 0.96875 0 L -0.046875 0 L -0.046875 -0.15625 C 0.015625 -0.15625 0.0664062 -0.160156 0.109375 -0.171875 C 0.148438 -0.191406 0.1875 -0.210938 0.21875 -0.234375 C 0.25 -0.253906 0.273438 -0.28125 0.296875 -0.3125 C 0.328125 -0.351562 0.351562 -0.398438 0.375 -0.453125 L 1.359375 -2.90625 L 1.625 -2.90625 L 2.515625 -0.734375 C 2.566406 -0.609375 2.609375 -0.507812 2.640625 -0.4375 C 2.679688 -0.363281 2.722656 -0.304688 2.765625 -0.265625 C 2.804688 -0.222656 2.851562 -0.191406 2.90625 -0.171875 C 2.957031 -0.160156 3.023438 -0.15625 3.109375 -0.15625 L 3.109375 0 L 1.703125 0 L 1.703125 -0.15625 C 1.828125 -0.15625 1.914062 -0.164062 1.96875 -0.1875 C 2.019531 -0.207031 2.046875 -0.25 2.046875 -0.3125 C 2.046875 -0.34375 2.035156 -0.382812 2.015625 -0.4375 C 2.003906 -0.5 1.984375 -0.566406 1.953125 -0.640625 Z M 0.890625 -1.09375 L 1.78125 -1.09375 L 1.359375 -2.21875 L 1.34375 -2.21875 Z M 0.890625 -1.09375 "/></g></g></g><g fill="#545454" fill-opacity="1"><g transform="translate(44.726643, 30.122979)"><g><path d="M 0.375 -2.390625 C 0.332031 -2.453125 0.296875 -2.503906 0.265625 -2.546875 C 0.242188 -2.597656 0.210938 -2.632812 0.171875 -2.65625 C 0.140625 -2.675781 0.101562 -2.691406 0.0625 -2.703125 C 0.03125 -2.710938 -0.00390625 -2.71875 -0.046875 -2.71875 L -0.046875 -2.859375 L 1.203125 -2.859375 L 1.203125 -2.71875 C 1.097656 -2.71875 1.023438 -2.707031 0.984375 -2.6875 C 0.941406 -2.664062 0.921875 -2.632812 0.921875 -2.59375 C 0.921875 -2.570312 0.925781 -2.539062 0.9375 -2.5 C 0.945312 -2.46875 0.96875 -2.421875 1 -2.359375 L 1.546875 -1.34375 L 2.015625 -2.125 C 2.097656 -2.269531 2.15625 -2.375 2.1875 -2.4375 C 2.226562 -2.507812 2.25 -2.566406 2.25 -2.609375 C 2.25 -2.648438 2.226562 -2.675781 2.1875 -2.6875 C 2.144531 -2.707031 2.070312 -2.71875 1.96875 -2.71875 L 1.96875 -2.859375 L 2.90625 -2.859375 L 2.90625 -2.71875 C 2.851562 -2.71875 2.800781 -2.707031 2.75 -2.6875 C 2.707031 -2.664062 2.660156 -2.628906 2.609375 -2.578125 C 2.566406 -2.535156 2.515625 -2.46875 2.453125 -2.375 C 2.390625 -2.28125 2.316406 -2.160156 2.234375 -2.015625 L 1.6875 -1.09375 L 1.6875 -0.703125 C 1.6875 -0.585938 1.691406 -0.488281 1.703125 -0.40625 C 1.710938 -0.332031 1.734375 -0.273438 1.765625 -0.234375 C 1.796875 -0.203125 1.832031 -0.179688 1.875 -0.171875 C 1.925781 -0.160156 1.992188 -0.15625 2.078125 -0.15625 L 2.078125 0 L 0.75 0 L 0.75 -0.15625 C 0.832031 -0.15625 0.894531 -0.160156 0.9375 -0.171875 C 0.988281 -0.179688 1.03125 -0.203125 1.0625 -0.234375 C 1.09375 -0.273438 1.113281 -0.332031 1.125 -0.40625 C 1.132812 -0.476562 1.140625 -0.570312 1.140625 -0.6875 L 1.140625 -1.03125 Z M 0.375 -2.390625 "/></g></g></g><g fill="#545454" fill-opacity="1"><g transform="translate(49.199781, 30.122979)"><g><path d="M 2.625 -2.859375 L 2.8125 -2.859375 L 2.734375 -1.921875 L 2.59375 -1.921875 C 2.539062 -2.148438 2.4375 -2.328125 2.28125 -2.453125 C 2.132812 -2.585938 1.953125 -2.65625 1.734375 -2.65625 C 1.585938 -2.65625 1.457031 -2.625 1.34375 -2.5625 C 1.226562 -2.507812 1.128906 -2.425781 1.046875 -2.3125 C 0.972656 -2.207031 0.914062 -2.078125 0.875 -1.921875 C 0.84375 -1.773438 0.828125 -1.601562 0.828125 -1.40625 C 0.828125 -1.019531 0.90625 -0.722656 1.0625 -0.515625 C 1.21875 -0.304688 1.445312 -0.203125 1.75 -0.203125 C 2 -0.203125 2.203125 -0.269531 2.359375 -0.40625 C 2.523438 -0.539062 2.644531 -0.738281 2.71875 -1 L 2.875 -1 L 2.875 0 L 2.703125 0 L 2.65625 -0.296875 C 2.382812 -0.078125 2.050781 0.03125 1.65625 0.03125 C 1.4375 0.03125 1.234375 0 1.046875 -0.0625 C 0.867188 -0.125 0.710938 -0.21875 0.578125 -0.34375 C 0.453125 -0.46875 0.351562 -0.617188 0.28125 -0.796875 C 0.207031 -0.972656 0.171875 -1.171875 0.171875 -1.390625 C 0.171875 -1.609375 0.207031 -1.8125 0.28125 -2 C 0.351562 -2.1875 0.457031 -2.347656 0.59375 -2.484375 C 0.726562 -2.617188 0.890625 -2.722656 1.078125 -2.796875 C 1.265625 -2.867188 1.472656 -2.90625 1.703125 -2.90625 C 1.859375 -2.90625 2 -2.882812 2.125 -2.84375 C 2.257812 -2.800781 2.40625 -2.734375 2.5625 -2.640625 Z M 2.625 -2.859375 "/></g></g></g><g fill="#545454" fill-opacity="1"><g transform="translate(53.907172, 30.122979)"><g><path d="M 1.859375 -0.859375 L 0.8125 -0.859375 C 0.695312 -0.597656 0.640625 -0.414062 0.640625 -0.3125 C 0.640625 -0.238281 0.664062 -0.191406 0.71875 -0.171875 C 0.769531 -0.160156 0.851562 -0.15625 0.96875 -0.15625 L 0.96875 0 L -0.046875 0 L -0.046875 -0.15625 C 0.015625 -0.15625 0.0664062 -0.160156 0.109375 -0.171875 C 0.148438 -0.191406 0.1875 -0.210938 0.21875 -0.234375 C 0.25 -0.253906 0.273438 -0.28125 0.296875 -0.3125 C 0.328125 -0.351562 0.351562 -0.398438 0.375 -0.453125 L 1.359375 -2.90625 L 1.625 -2.90625 L 2.515625 -0.734375 C 2.566406 -0.609375 2.609375 -0.507812 2.640625 -0.4375 C 2.679688 -0.363281 2.722656 -0.304688 2.765625 -0.265625 C 2.804688 -0.222656 2.851562 -0.191406 2.90625 -0.171875 C 2.957031 -0.160156 3.023438 -0.15625 3.109375 -0.15625 L 3.109375 0 L 1.703125 0 L 1.703125 -0.15625 C 1.828125 -0.15625 1.914062 -0.164062 1.96875 -0.1875 C 2.019531 -0.207031 2.046875 -0.25 2.046875 -0.3125 C 2.046875 -0.34375 2.035156 -0.382812 2.015625 -0.4375 C 2.003906 -0.5 1.984375 -0.566406 1.953125 -0.640625 Z M 0.890625 -1.09375 L 1.78125 -1.09375 L 1.359375 -2.21875 L 1.34375 -2.21875 Z M 0.890625 -1.09375 "/></g></g></g><g fill="#545454" fill-opacity="1"><g transform="translate(58.562506, 30.122979)"><g><path d="M 3.03125 -2.046875 L 2.875 -2.046875 C 2.863281 -2.171875 2.84375 -2.269531 2.8125 -2.34375 C 2.789062 -2.425781 2.753906 -2.488281 2.703125 -2.53125 C 2.648438 -2.582031 2.582031 -2.617188 2.5 -2.640625 C 2.425781 -2.660156 2.34375 -2.671875 2.25 -2.671875 C 2.144531 -2.671875 2.0625 -2.664062 2 -2.65625 C 1.945312 -2.65625 1.90625 -2.648438 1.875 -2.640625 C 1.84375 -2.640625 1.820312 -2.628906 1.8125 -2.609375 C 1.800781 -2.597656 1.796875 -2.582031 1.796875 -2.5625 L 1.796875 -0.609375 C 1.796875 -0.523438 1.800781 -0.453125 1.8125 -0.390625 C 1.832031 -0.335938 1.859375 -0.289062 1.890625 -0.25 C 1.921875 -0.21875 1.96875 -0.191406 2.03125 -0.171875 C 2.101562 -0.160156 2.195312 -0.15625 2.3125 -0.15625 L 2.3125 0 L 0.75 0 L 0.75 -0.15625 C 0.863281 -0.15625 0.953125 -0.160156 1.015625 -0.171875 C 1.078125 -0.191406 1.125 -0.21875 1.15625 -0.25 C 1.195312 -0.289062 1.222656 -0.335938 1.234375 -0.390625 C 1.242188 -0.453125 1.25 -0.523438 1.25 -0.609375 L 1.25 -2.5625 C 1.25 -2.582031 1.242188 -2.597656 1.234375 -2.609375 C 1.234375 -2.628906 1.21875 -2.640625 1.1875 -2.640625 C 1.164062 -2.648438 1.128906 -2.65625 1.078125 -2.65625 C 1.023438 -2.664062 0.957031 -2.671875 0.875 -2.671875 C 0.78125 -2.671875 0.691406 -2.664062 0.609375 -2.65625 C 0.535156 -2.644531 0.46875 -2.617188 0.40625 -2.578125 C 0.34375 -2.535156 0.289062 -2.472656 0.25 -2.390625 C 0.207031 -2.304688 0.1875 -2.191406 0.1875 -2.046875 L 0.046875 -2.046875 L 0.078125 -2.859375 L 3 -2.859375 Z M 3.03125 -2.046875 "/></g></g></g><g fill="#545454" fill-opacity="1"><g transform="translate(63.28477, 30.122979)"><g><path d="M 1.46875 0 L 0.140625 0 L 0.140625 -0.15625 C 0.222656 -0.15625 0.285156 -0.160156 0.328125 -0.171875 C 0.378906 -0.179688 0.421875 -0.207031 0.453125 -0.25 C 0.484375 -0.289062 0.503906 -0.34375 0.515625 -0.40625 C 0.523438 -0.476562 0.53125 -0.570312 0.53125 -0.6875 L 0.53125 -2.171875 C 0.53125 -2.273438 0.523438 -2.363281 0.515625 -2.4375 C 0.503906 -2.507812 0.484375 -2.5625 0.453125 -2.59375 C 0.429688 -2.632812 0.394531 -2.660156 0.34375 -2.671875 C 0.300781 -2.691406 0.242188 -2.707031 0.171875 -2.71875 L 0.171875 -2.859375 L 1.421875 -2.859375 L 1.421875 -2.71875 C 1.347656 -2.707031 1.285156 -2.691406 1.234375 -2.671875 C 1.191406 -2.660156 1.15625 -2.632812 1.125 -2.59375 C 1.101562 -2.5625 1.085938 -2.507812 1.078125 -2.4375 C 1.078125 -2.363281 1.078125 -2.273438 1.078125 -2.171875 L 1.078125 -0.6875 C 1.078125 -0.570312 1.078125 -0.476562 1.078125 -0.40625 C 1.085938 -0.34375 1.109375 -0.289062 1.140625 -0.25 C 1.171875 -0.207031 1.207031 -0.179688 1.25 -0.171875 C 1.300781 -0.160156 1.375 -0.15625 1.46875 -0.15625 Z M 1.46875 0 "/></g></g></g><g fill="#545454" fill-opacity="1"><g transform="translate(66.527141, 30.122979)"><g><path d="M 1.75 -2.90625 C 1.976562 -2.90625 2.1875 -2.863281 2.375 -2.78125 C 2.570312 -2.707031 2.738281 -2.601562 2.875 -2.46875 C 3.019531 -2.332031 3.132812 -2.171875 3.21875 -1.984375 C 3.300781 -1.804688 3.34375 -1.613281 3.34375 -1.40625 C 3.34375 -1.207031 3.300781 -1.019531 3.21875 -0.84375 C 3.132812 -0.664062 3.019531 -0.507812 2.875 -0.375 C 2.738281 -0.25 2.570312 -0.148438 2.375 -0.078125 C 2.1875 -0.00390625 1.976562 0.03125 1.75 0.03125 C 1.53125 0.03125 1.320312 -0.00390625 1.125 -0.078125 C 0.9375 -0.148438 0.769531 -0.25 0.625 -0.375 C 0.476562 -0.507812 0.363281 -0.664062 0.28125 -0.84375 C 0.207031 -1.019531 0.171875 -1.207031 0.171875 -1.40625 C 0.171875 -1.613281 0.207031 -1.804688 0.28125 -1.984375 C 0.363281 -2.171875 0.476562 -2.332031 0.625 -2.46875 C 0.769531 -2.601562 0.9375 -2.707031 1.125 -2.78125 C 1.320312 -2.863281 1.53125 -2.90625 1.75 -2.90625 Z M 1.75 -0.203125 C 1.894531 -0.203125 2.023438 -0.226562 2.140625 -0.28125 C 2.265625 -0.34375 2.363281 -0.425781 2.4375 -0.53125 C 2.519531 -0.632812 2.582031 -0.757812 2.625 -0.90625 C 2.675781 -1.050781 2.703125 -1.210938 2.703125 -1.390625 C 2.703125 -1.585938 2.675781 -1.765625 2.625 -1.921875 C 2.582031 -2.078125 2.519531 -2.207031 2.4375 -2.3125 C 2.363281 -2.425781 2.265625 -2.507812 2.140625 -2.5625 C 2.023438 -2.625 1.894531 -2.65625 1.75 -2.65625 C 1.601562 -2.65625 1.472656 -2.625 1.359375 -2.5625 C 1.242188 -2.507812 1.144531 -2.425781 1.0625 -2.3125 C 0.976562 -2.207031 0.914062 -2.078125 0.875 -1.921875 C 0.832031 -1.765625 0.8125 -1.585938 0.8125 -1.390625 C 0.8125 -1.210938 0.832031 -1.050781 0.875 -0.90625 C 0.914062 -0.757812 0.976562 -0.632812 1.0625 -0.53125 C 1.144531 -0.425781 1.242188 -0.34375 1.359375 -0.28125 C 1.472656 -0.226562 1.601562 -0.203125 1.75 -0.203125 Z M 1.75 -0.203125 "/></g></g></g><g fill="#545454" fill-opacity="1"><g transform="translate(71.680733, 30.122979)"><g><path d="M 2.484375 0.03125 L 0.84375 -2.3125 L 0.828125 -2.3125 L 0.828125 -0.703125 C 0.828125 -0.585938 0.832031 -0.492188 0.84375 -0.421875 C 0.851562 -0.347656 0.867188 -0.289062 0.890625 -0.25 C 0.921875 -0.207031 0.960938 -0.179688 1.015625 -0.171875 C 1.066406 -0.160156 1.132812 -0.15625 1.21875 -0.15625 L 1.21875 0 L 0.109375 0 L 0.109375 -0.15625 C 0.203125 -0.15625 0.273438 -0.160156 0.328125 -0.171875 C 0.390625 -0.179688 0.4375 -0.207031 0.46875 -0.25 C 0.5 -0.289062 0.519531 -0.34375 0.53125 -0.40625 C 0.539062 -0.476562 0.546875 -0.570312 0.546875 -0.6875 L 0.546875 -2.171875 C 0.546875 -2.273438 0.539062 -2.363281 0.53125 -2.4375 C 0.519531 -2.507812 0.5 -2.5625 0.46875 -2.59375 C 0.4375 -2.632812 0.394531 -2.660156 0.34375 -2.671875 C 0.300781 -2.691406 0.238281 -2.707031 0.15625 -2.71875 L 0.15625 -2.859375 L 1.1875 -2.859375 L 2.6875 -0.71875 L 2.703125 -0.71875 L 2.703125 -2.15625 C 2.703125 -2.269531 2.695312 -2.363281 2.6875 -2.4375 C 2.675781 -2.519531 2.65625 -2.578125 2.625 -2.609375 C 2.601562 -2.648438 2.566406 -2.675781 2.515625 -2.6875 C 2.460938 -2.707031 2.394531 -2.71875 2.3125 -2.71875 L 2.3125 -2.859375 L 3.421875 -2.859375 L 3.421875 -2.71875 C 3.328125 -2.71875 3.25 -2.707031 3.1875 -2.6875 C 3.132812 -2.675781 3.09375 -2.648438 3.0625 -2.609375 C 3.03125 -2.578125 3.007812 -2.523438 3 -2.453125 C 2.988281 -2.378906 2.984375 -2.285156 2.984375 -2.171875 L 2.984375 0.03125 Z M 2.484375 0.03125 "/></g></g></g><g fill="#545454" fill-opacity="1"><g transform="translate(76.823164, 30.122979)"><g/></g></g><g fill="#545454" fill-opacity="1"><g transform="translate(79.459443, 30.122979)"><g><path d="M 1.328125 -1.765625 C 1.429688 -1.835938 1.503906 -1.914062 1.546875 -2 C 1.597656 -2.09375 1.625 -2.191406 1.625 -2.296875 C 1.625 -2.398438 1.597656 -2.484375 1.546875 -2.546875 C 1.492188 -2.609375 1.425781 -2.640625 1.34375 -2.640625 C 1.1875 -2.640625 1.109375 -2.523438 1.109375 -2.296875 C 1.109375 -2.203125 1.125 -2.109375 1.15625 -2.015625 C 1.195312 -1.921875 1.253906 -1.835938 1.328125 -1.765625 Z M 1.046875 -1.3125 C 0.921875 -1.226562 0.820312 -1.128906 0.75 -1.015625 C 0.6875 -0.898438 0.65625 -0.785156 0.65625 -0.671875 C 0.65625 -0.535156 0.691406 -0.425781 0.765625 -0.34375 C 0.847656 -0.269531 0.953125 -0.234375 1.078125 -0.234375 C 1.171875 -0.234375 1.273438 -0.253906 1.390625 -0.296875 C 1.503906 -0.347656 1.609375 -0.414062 1.703125 -0.5 Z M 2.046875 -0.828125 C 2.109375 -0.898438 2.164062 -0.96875 2.21875 -1.03125 C 2.269531 -1.101562 2.3125 -1.164062 2.34375 -1.21875 C 2.382812 -1.28125 2.414062 -1.332031 2.4375 -1.375 C 2.457031 -1.425781 2.46875 -1.46875 2.46875 -1.5 C 2.46875 -1.53125 2.445312 -1.554688 2.40625 -1.578125 C 2.375 -1.597656 2.3125 -1.609375 2.21875 -1.609375 L 2.21875 -1.75 L 3.125 -1.75 L 3.125 -1.609375 C 3.0625 -1.609375 3.007812 -1.601562 2.96875 -1.59375 C 2.9375 -1.582031 2.898438 -1.566406 2.859375 -1.546875 C 2.828125 -1.523438 2.796875 -1.5 2.765625 -1.46875 C 2.742188 -1.445312 2.71875 -1.414062 2.6875 -1.375 L 2.171875 -0.65625 C 2.273438 -0.53125 2.382812 -0.425781 2.5 -0.34375 C 2.613281 -0.269531 2.726562 -0.234375 2.84375 -0.234375 C 2.914062 -0.234375 2.96875 -0.242188 3 -0.265625 C 3.039062 -0.296875 3.082031 -0.347656 3.125 -0.421875 L 3.21875 -0.390625 C 3.195312 -0.253906 3.132812 -0.148438 3.03125 -0.078125 C 2.9375 -0.00390625 2.804688 0.03125 2.640625 0.03125 C 2.578125 0.03125 2.515625 0.0234375 2.453125 0.015625 C 2.398438 0.00390625 2.34375 -0.015625 2.28125 -0.046875 C 2.21875 -0.0859375 2.15625 -0.128906 2.09375 -0.171875 C 2.03125 -0.222656 1.957031 -0.285156 1.875 -0.359375 C 1.75 -0.242188 1.597656 -0.148438 1.421875 -0.078125 C 1.242188 -0.00390625 1.066406 0.03125 0.890625 0.03125 C 0.773438 0.03125 0.664062 0.015625 0.5625 -0.015625 C 0.46875 -0.046875 0.382812 -0.0859375 0.3125 -0.140625 C 0.238281 -0.203125 0.179688 -0.273438 0.140625 -0.359375 C 0.0976562 -0.441406 0.078125 -0.53125 0.078125 -0.625 C 0.078125 -0.789062 0.144531 -0.941406 0.28125 -1.078125 C 0.414062 -1.222656 0.628906 -1.367188 0.921875 -1.515625 C 0.835938 -1.628906 0.773438 -1.738281 0.734375 -1.84375 C 0.703125 -1.945312 0.6875 -2.054688 0.6875 -2.171875 C 0.6875 -2.273438 0.703125 -2.367188 0.734375 -2.453125 C 0.765625 -2.546875 0.8125 -2.625 0.875 -2.6875 C 0.945312 -2.757812 1.023438 -2.8125 1.109375 -2.84375 C 1.191406 -2.882812 1.289062 -2.90625 1.40625 -2.90625 C 1.5 -2.90625 1.582031 -2.890625 1.65625 -2.859375 C 1.738281 -2.828125 1.804688 -2.785156 1.859375 -2.734375 C 1.921875 -2.691406 1.96875 -2.632812 2 -2.5625 C 2.03125 -2.5 2.046875 -2.425781 2.046875 -2.34375 C 2.046875 -2.207031 2 -2.078125 1.90625 -1.953125 C 1.8125 -1.835938 1.660156 -1.710938 1.453125 -1.578125 Z M 2.046875 -0.828125 "/></g></g></g><g fill="#545454" fill-opacity="1"><g transform="translate(84.419678, 30.122979)"><g/></g></g><g fill="#545454" fill-opacity="1"><g transform="translate(87.055956, 30.122979)"><g><path d="M 2.609375 -2.0625 C 2.609375 -1.800781 2.503906 -1.597656 2.296875 -1.453125 C 2.085938 -1.316406 1.785156 -1.25 1.390625 -1.25 L 1.0625 -1.25 L 1.0625 -0.59375 C 1.0625 -0.5 1.066406 -0.421875 1.078125 -0.359375 C 1.097656 -0.304688 1.125 -0.257812 1.15625 -0.21875 C 1.195312 -0.1875 1.253906 -0.164062 1.328125 -0.15625 C 1.398438 -0.15625 1.492188 -0.15625 1.609375 -0.15625 L 1.609375 0 L 0.125 0 L 0.125 -0.15625 C 0.207031 -0.15625 0.273438 -0.160156 0.328125 -0.171875 C 0.378906 -0.179688 0.414062 -0.203125 0.4375 -0.234375 C 0.46875 -0.265625 0.488281 -0.304688 0.5 -0.359375 C 0.507812 -0.410156 0.515625 -0.484375 0.515625 -0.578125 L 0.515625 -2.296875 C 0.515625 -2.378906 0.507812 -2.445312 0.5 -2.5 C 0.5 -2.550781 0.484375 -2.59375 0.453125 -2.625 C 0.429688 -2.65625 0.394531 -2.675781 0.34375 -2.6875 C 0.300781 -2.695312 0.242188 -2.707031 0.171875 -2.71875 L 0.171875 -2.859375 L 1.453125 -2.859375 C 1.828125 -2.859375 2.113281 -2.789062 2.3125 -2.65625 C 2.507812 -2.53125 2.609375 -2.332031 2.609375 -2.0625 Z M 1.0625 -1.46875 L 1.3125 -1.46875 C 1.550781 -1.46875 1.722656 -1.515625 1.828125 -1.609375 C 1.941406 -1.710938 2 -1.867188 2 -2.078125 C 2 -2.253906 1.953125 -2.394531 1.859375 -2.5 C 1.765625 -2.601562 1.617188 -2.65625 1.421875 -2.65625 L 1.140625 -2.65625 C 1.085938 -2.65625 1.0625 -2.632812 1.0625 -2.59375 Z M 1.0625 -1.46875 "/></g></g></g><g fill="#545454" fill-opacity="1"><g transform="translate(91.369203, 30.122979)"><g><path d="M 1.46875 0 L 0.140625 0 L 0.140625 -0.15625 C 0.222656 -0.15625 0.285156 -0.160156 0.328125 -0.171875 C 0.378906 -0.179688 0.421875 -0.207031 0.453125 -0.25 C 0.484375 -0.289062 0.503906 -0.34375 0.515625 -0.40625 C 0.523438 -0.476562 0.53125 -0.570312 0.53125 -0.6875 L 0.53125 -2.171875 C 0.53125 -2.273438 0.523438 -2.363281 0.515625 -2.4375 C 0.503906 -2.507812 0.484375 -2.5625 0.453125 -2.59375 C 0.429688 -2.632812 0.394531 -2.660156 0.34375 -2.671875 C 0.300781 -2.691406 0.242188 -2.707031 0.171875 -2.71875 L 0.171875 -2.859375 L 1.421875 -2.859375 L 1.421875 -2.71875 C 1.347656 -2.707031 1.285156 -2.691406 1.234375 -2.671875 C 1.191406 -2.660156 1.15625 -2.632812 1.125 -2.59375 C 1.101562 -2.5625 1.085938 -2.507812 1.078125 -2.4375 C 1.078125 -2.363281 1.078125 -2.273438 1.078125 -2.171875 L 1.078125 -0.6875 C 1.078125 -0.570312 1.078125 -0.476562 1.078125 -0.40625 C 1.085938 -0.34375 1.109375 -0.289062 1.140625 -0.25 C 1.171875 -0.207031 1.207031 -0.179688 1.25 -0.171875 C 1.300781 -0.160156 1.375 -0.15625 1.46875 -0.15625 Z M 1.46875 0 "/></g></g></g><g fill="#545454" fill-opacity="1"><g transform="translate(94.611572, 30.122979)"><g><path d="M 2.625 -2.859375 L 2.8125 -2.859375 L 2.734375 -1.921875 L 2.59375 -1.921875 C 2.539062 -2.148438 2.4375 -2.328125 2.28125 -2.453125 C 2.132812 -2.585938 1.953125 -2.65625 1.734375 -2.65625 C 1.585938 -2.65625 1.457031 -2.625 1.34375 -2.5625 C 1.226562 -2.507812 1.128906 -2.425781 1.046875 -2.3125 C 0.972656 -2.207031 0.914062 -2.078125 0.875 -1.921875 C 0.84375 -1.773438 0.828125 -1.601562 0.828125 -1.40625 C 0.828125 -1.019531 0.90625 -0.722656 1.0625 -0.515625 C 1.21875 -0.304688 1.445312 -0.203125 1.75 -0.203125 C 2 -0.203125 2.203125 -0.269531 2.359375 -0.40625 C 2.523438 -0.539062 2.644531 -0.738281 2.71875 -1 L 2.875 -1 L 2.875 0 L 2.703125 0 L 2.65625 -0.296875 C 2.382812 -0.078125 2.050781 0.03125 1.65625 0.03125 C 1.4375 0.03125 1.234375 0 1.046875 -0.0625 C 0.867188 -0.125 0.710938 -0.21875 0.578125 -0.34375 C 0.453125 -0.46875 0.351562 -0.617188 0.28125 -0.796875 C 0.207031 -0.972656 0.171875 -1.171875 0.171875 -1.390625 C 0.171875 -1.609375 0.207031 -1.8125 0.28125 -2 C 0.351562 -2.1875 0.457031 -2.347656 0.59375 -2.484375 C 0.726562 -2.617188 0.890625 -2.722656 1.078125 -2.796875 C 1.265625 -2.867188 1.472656 -2.90625 1.703125 -2.90625 C 1.859375 -2.90625 2 -2.882812 2.125 -2.84375 C 2.257812 -2.800781 2.40625 -2.734375 2.5625 -2.640625 Z M 2.625 -2.859375 "/></g></g></g><g fill="#545454" fill-opacity="1"><g transform="translate(99.31896, 30.122979)"><g><path d="M 2.484375 0.03125 L 0.84375 -2.3125 L 0.828125 -2.3125 L 0.828125 -0.703125 C 0.828125 -0.585938 0.832031 -0.492188 0.84375 -0.421875 C 0.851562 -0.347656 0.867188 -0.289062 0.890625 -0.25 C 0.921875 -0.207031 0.960938 -0.179688 1.015625 -0.171875 C 1.066406 -0.160156 1.132812 -0.15625 1.21875 -0.15625 L 1.21875 0 L 0.109375 0 L 0.109375 -0.15625 C 0.203125 -0.15625 0.273438 -0.160156 0.328125 -0.171875 C 0.390625 -0.179688 0.4375 -0.207031 0.46875 -0.25 C 0.5 -0.289062 0.519531 -0.34375 0.53125 -0.40625 C 0.539062 -0.476562 0.546875 -0.570312 0.546875 -0.6875 L 0.546875 -2.171875 C 0.546875 -2.273438 0.539062 -2.363281 0.53125 -2.4375 C 0.519531 -2.507812 0.5 -2.5625 0.46875 -2.59375 C 0.4375 -2.632812 0.394531 -2.660156 0.34375 -2.671875 C 0.300781 -2.691406 0.238281 -2.707031 0.15625 -2.71875 L 0.15625 -2.859375 L 1.1875 -2.859375 L 2.6875 -0.71875 L 2.703125 -0.71875 L 2.703125 -2.15625 C 2.703125 -2.269531 2.695312 -2.363281 2.6875 -2.4375 C 2.675781 -2.519531 2.65625 -2.578125 2.625 -2.609375 C 2.601562 -2.648438 2.566406 -2.675781 2.515625 -2.6875 C 2.460938 -2.707031 2.394531 -2.71875 2.3125 -2.71875 L 2.3125 -2.859375 L 3.421875 -2.859375 L 3.421875 -2.71875 C 3.328125 -2.71875 3.25 -2.707031 3.1875 -2.6875 C 3.132812 -2.675781 3.09375 -2.648438 3.0625 -2.609375 C 3.03125 -2.578125 3.007812 -2.523438 3 -2.453125 C 2.988281 -2.378906 2.984375 -2.285156 2.984375 -2.171875 L 2.984375 0.03125 Z M 2.484375 0.03125 "/></g></g></g><g fill="#545454" fill-opacity="1"><g transform="translate(104.461391, 30.122979)"><g><path d="M 1.46875 0 L 0.140625 0 L 0.140625 -0.15625 C 0.222656 -0.15625 0.285156 -0.160156 0.328125 -0.171875 C 0.378906 -0.179688 0.421875 -0.207031 0.453125 -0.25 C 0.484375 -0.289062 0.503906 -0.34375 0.515625 -0.40625 C 0.523438 -0.476562 0.53125 -0.570312 0.53125 -0.6875 L 0.53125 -2.171875 C 0.53125 -2.273438 0.523438 -2.363281 0.515625 -2.4375 C 0.503906 -2.507812 0.484375 -2.5625 0.453125 -2.59375 C 0.429688 -2.632812 0.394531 -2.660156 0.34375 -2.671875 C 0.300781 -2.691406 0.242188 -2.707031 0.171875 -2.71875 L 0.171875 -2.859375 L 1.421875 -2.859375 L 1.421875 -2.71875 C 1.347656 -2.707031 1.285156 -2.691406 1.234375 -2.671875 C 1.191406 -2.660156 1.15625 -2.632812 1.125 -2.59375 C 1.101562 -2.5625 1.085938 -2.507812 1.078125 -2.4375 C 1.078125 -2.363281 1.078125 -2.273438 1.078125 -2.171875 L 1.078125 -0.6875 C 1.078125 -0.570312 1.078125 -0.476562 1.078125 -0.40625 C 1.085938 -0.34375 1.109375 -0.289062 1.140625 -0.25 C 1.171875 -0.207031 1.207031 -0.179688 1.25 -0.171875 C 1.300781 -0.160156 1.375 -0.15625 1.46875 -0.15625 Z M 1.46875 0 "/></g></g></g><g fill="#545454" fill-opacity="1"><g transform="translate(107.703759, 30.122979)"><g><path d="M 2.625 -2.859375 L 2.8125 -2.859375 L 2.734375 -1.921875 L 2.59375 -1.921875 C 2.539062 -2.148438 2.4375 -2.328125 2.28125 -2.453125 C 2.132812 -2.585938 1.953125 -2.65625 1.734375 -2.65625 C 1.585938 -2.65625 1.457031 -2.625 1.34375 -2.5625 C 1.226562 -2.507812 1.128906 -2.425781 1.046875 -2.3125 C 0.972656 -2.207031 0.914062 -2.078125 0.875 -1.921875 C 0.84375 -1.773438 0.828125 -1.601562 0.828125 -1.40625 C 0.828125 -1.019531 0.90625 -0.722656 1.0625 -0.515625 C 1.21875 -0.304688 1.445312 -0.203125 1.75 -0.203125 C 2 -0.203125 2.203125 -0.269531 2.359375 -0.40625 C 2.523438 -0.539062 2.644531 -0.738281 2.71875 -1 L 2.875 -1 L 2.875 0 L 2.703125 0 L 2.65625 -0.296875 C 2.382812 -0.078125 2.050781 0.03125 1.65625 0.03125 C 1.4375 0.03125 1.234375 0 1.046875 -0.0625 C 0.867188 -0.125 0.710938 -0.21875 0.578125 -0.34375 C 0.453125 -0.46875 0.351562 -0.617188 0.28125 -0.796875 C 0.207031 -0.972656 0.171875 -1.171875 0.171875 -1.390625 C 0.171875 -1.609375 0.207031 -1.8125 0.28125 -2 C 0.351562 -2.1875 0.457031 -2.347656 0.59375 -2.484375 C 0.726562 -2.617188 0.890625 -2.722656 1.078125 -2.796875 C 1.265625 -2.867188 1.472656 -2.90625 1.703125 -2.90625 C 1.859375 -2.90625 2 -2.882812 2.125 -2.84375 C 2.257812 -2.800781 2.40625 -2.734375 2.5625 -2.640625 Z M 2.625 -2.859375 "/></g></g></g></svg>