<svg xmlns="http://www.w3.org/2000/svg" xmlns:xlink="http://www.w3.org/1999/xlink" width="190" zoomAndPan="magnify" viewBox="0 0 142.5 37.5" height="50" preserveAspectRatio="xMidYMid meet" version="1.0"><defs><g/></defs><g fill="#ffffff" fill-opacity="1"><g transform="translate(43.437121, 13.63199)"><g><path d="M 0.421875 0 L 0.421875 -0.46875 C 0.679688 -0.476562 0.890625 -0.5 1.046875 -0.53125 C 1.210938 -0.570312 1.335938 -0.640625 1.421875 -0.734375 C 1.515625 -0.835938 1.578125 -0.972656 1.609375 -1.140625 C 1.640625 -1.304688 1.65625 -1.535156 1.65625 -1.828125 L 1.65625 -7.296875 C 1.65625 -7.566406 1.644531 -7.785156 1.625 -7.953125 C 1.601562 -8.128906 1.550781 -8.265625 1.46875 -8.359375 C 1.382812 -8.460938 1.273438 -8.53125 1.140625 -8.5625 C 1.003906 -8.601562 0.828125 -8.628906 0.609375 -8.640625 L 0.609375 -9.125 L 5.109375 -9.125 C 5.859375 -9.125 6.550781 -9.003906 7.1875 -8.765625 C 7.832031 -8.523438 8.390625 -8.195312 8.859375 -7.78125 C 9.328125 -7.363281 9.691406 -6.863281 9.953125 -6.28125 C 10.210938 -5.707031 10.34375 -5.082031 10.34375 -4.40625 C 10.34375 -3.757812 10.21875 -3.164062 9.96875 -2.625 C 9.726562 -2.082031 9.390625 -1.617188 8.953125 -1.234375 C 8.515625 -0.847656 7.988281 -0.546875 7.375 -0.328125 C 6.757812 -0.109375 6.085938 0 5.359375 0 Z M 3.59375 -8.390625 C 3.46875 -8.390625 3.40625 -8.328125 3.40625 -8.203125 L 3.40625 -2.078125 C 3.40625 -1.617188 3.546875 -1.273438 3.828125 -1.046875 C 4.109375 -0.828125 4.546875 -0.71875 5.140625 -0.71875 C 6.171875 -0.71875 6.960938 -1.03125 7.515625 -1.65625 C 8.078125 -2.28125 8.359375 -3.1875 8.359375 -4.375 C 8.359375 -5.007812 8.28125 -5.578125 8.125 -6.078125 C 7.976562 -6.578125 7.765625 -7 7.484375 -7.34375 C 7.203125 -7.6875 6.859375 -7.945312 6.453125 -8.125 C 6.046875 -8.300781 5.585938 -8.390625 5.078125 -8.390625 Z M 3.59375 -8.390625 "/></g></g></g><g fill="#ffffff" fill-opacity="1"><g transform="translate(59.572721, 13.63199)"><g><path d="M 5.9375 -2.765625 L 2.578125 -2.765625 C 2.210938 -1.921875 2.03125 -1.335938 2.03125 -1.015625 C 2.03125 -0.773438 2.117188 -0.625 2.296875 -0.5625 C 2.472656 -0.5 2.738281 -0.46875 3.09375 -0.46875 L 3.09375 0 L -0.15625 0 L -0.15625 -0.46875 C 0.03125 -0.5 0.191406 -0.53125 0.328125 -0.5625 C 0.472656 -0.601562 0.597656 -0.660156 0.703125 -0.734375 C 0.804688 -0.804688 0.894531 -0.898438 0.96875 -1.015625 C 1.050781 -1.128906 1.128906 -1.269531 1.203125 -1.4375 L 4.328125 -9.234375 L 5.203125 -9.234375 L 8.03125 -2.328125 C 8.195312 -1.921875 8.335938 -1.601562 8.453125 -1.375 C 8.566406 -1.144531 8.6875 -0.96875 8.8125 -0.84375 C 8.945312 -0.71875 9.097656 -0.628906 9.265625 -0.578125 C 9.429688 -0.535156 9.648438 -0.503906 9.921875 -0.484375 L 9.921875 0 L 5.453125 0 L 5.453125 -0.484375 C 5.828125 -0.503906 6.097656 -0.546875 6.265625 -0.609375 C 6.429688 -0.671875 6.515625 -0.796875 6.515625 -0.984375 C 6.515625 -1.097656 6.484375 -1.238281 6.421875 -1.40625 C 6.367188 -1.582031 6.296875 -1.796875 6.203125 -2.046875 Z M 2.859375 -3.46875 L 5.671875 -3.46875 L 4.3125 -7.0625 L 4.265625 -7.0625 Z M 2.859375 -3.46875 "/></g></g></g><g fill="#ffffff" fill-opacity="1"><g transform="translate(74.40515, 13.63199)"><g><path d="M 9.65625 -6.515625 L 9.140625 -6.515625 C 9.117188 -6.898438 9.0625 -7.21875 8.96875 -7.46875 C 8.875 -7.726562 8.742188 -7.9375 8.578125 -8.09375 C 8.421875 -8.25 8.222656 -8.351562 7.984375 -8.40625 C 7.742188 -8.46875 7.46875 -8.5 7.15625 -8.5 C 6.84375 -8.5 6.59375 -8.492188 6.40625 -8.484375 C 6.226562 -8.472656 6.085938 -8.453125 5.984375 -8.421875 C 5.890625 -8.398438 5.828125 -8.363281 5.796875 -8.3125 C 5.765625 -8.269531 5.75 -8.210938 5.75 -8.140625 L 5.75 -1.9375 C 5.75 -1.675781 5.765625 -1.453125 5.796875 -1.265625 C 5.828125 -1.085938 5.898438 -0.941406 6.015625 -0.828125 C 6.128906 -0.710938 6.289062 -0.625 6.5 -0.5625 C 6.71875 -0.507812 7 -0.476562 7.34375 -0.46875 L 7.34375 0 L 2.375 0 L 2.375 -0.46875 C 2.726562 -0.476562 3.007812 -0.507812 3.21875 -0.5625 C 3.4375 -0.625 3.601562 -0.710938 3.71875 -0.828125 C 3.832031 -0.941406 3.90625 -1.085938 3.9375 -1.265625 C 3.976562 -1.453125 4 -1.675781 4 -1.9375 L 4 -8.140625 C 4 -8.210938 3.984375 -8.269531 3.953125 -8.3125 C 3.929688 -8.363281 3.875 -8.398438 3.78125 -8.421875 C 3.695312 -8.453125 3.570312 -8.472656 3.40625 -8.484375 C 3.25 -8.492188 3.039062 -8.5 2.78125 -8.5 C 2.5 -8.5 2.226562 -8.484375 1.96875 -8.453125 C 1.707031 -8.429688 1.476562 -8.351562 1.28125 -8.21875 C 1.082031 -8.09375 0.921875 -7.894531 0.796875 -7.625 C 0.671875 -7.363281 0.609375 -6.992188 0.609375 -6.515625 L 0.140625 -6.515625 L 0.265625 -9.125 L 9.53125 -9.125 Z M 9.65625 -6.515625 "/></g></g></g><g fill="#ffffff" fill-opacity="1"><g transform="translate(89.450827, 13.63199)"><g><path d="M 5.9375 -2.765625 L 2.578125 -2.765625 C 2.210938 -1.921875 2.03125 -1.335938 2.03125 -1.015625 C 2.03125 -0.773438 2.117188 -0.625 2.296875 -0.5625 C 2.472656 -0.5 2.738281 -0.46875 3.09375 -0.46875 L 3.09375 0 L -0.15625 0 L -0.15625 -0.46875 C 0.03125 -0.5 0.191406 -0.53125 0.328125 -0.5625 C 0.472656 -0.601562 0.597656 -0.660156 0.703125 -0.734375 C 0.804688 -0.804688 0.894531 -0.898438 0.96875 -1.015625 C 1.050781 -1.128906 1.128906 -1.269531 1.203125 -1.4375 L 4.328125 -9.234375 L 5.203125 -9.234375 L 8.03125 -2.328125 C 8.195312 -1.921875 8.335938 -1.601562 8.453125 -1.375 C 8.566406 -1.144531 8.6875 -0.96875 8.8125 -0.84375 C 8.945312 -0.71875 9.097656 -0.628906 9.265625 -0.578125 C 9.429688 -0.535156 9.648438 -0.503906 9.921875 -0.484375 L 9.921875 0 L 5.453125 0 L 5.453125 -0.484375 C 5.828125 -0.503906 6.097656 -0.546875 6.265625 -0.609375 C 6.429688 -0.671875 6.515625 -0.796875 6.515625 -0.984375 C 6.515625 -1.097656 6.484375 -1.238281 6.421875 -1.40625 C 6.367188 -1.582031 6.296875 -1.796875 6.203125 -2.046875 Z M 2.859375 -3.46875 L 5.671875 -3.46875 L 4.3125 -7.0625 L 4.265625 -7.0625 Z M 2.859375 -3.46875 "/></g></g></g><g fill="#ffffff" fill-opacity="1"><g transform="translate(38.269513, 29.427903)"><g><path d="M 4.65625 0 L 0.421875 0 L 0.421875 -0.46875 C 0.691406 -0.476562 0.90625 -0.503906 1.0625 -0.546875 C 1.226562 -0.585938 1.351562 -0.664062 1.4375 -0.78125 C 1.53125 -0.90625 1.59375 -1.078125 1.625 -1.296875 C 1.65625 -1.515625 1.671875 -1.804688 1.671875 -2.171875 L 1.671875 -6.9375 C 1.671875 -7.269531 1.65625 -7.546875 1.625 -7.765625 C 1.601562 -7.984375 1.550781 -8.15625 1.46875 -8.28125 C 1.382812 -8.40625 1.269531 -8.492188 1.125 -8.546875 C 0.976562 -8.597656 0.785156 -8.628906 0.546875 -8.640625 L 0.546875 -9.125 L 4.53125 -9.125 L 4.53125 -8.640625 C 4.289062 -8.628906 4.097656 -8.597656 3.953125 -8.546875 C 3.804688 -8.492188 3.691406 -8.40625 3.609375 -8.28125 C 3.535156 -8.15625 3.484375 -7.984375 3.453125 -7.765625 C 3.421875 -7.546875 3.40625 -7.269531 3.40625 -6.9375 L 3.40625 -2.171875 C 3.40625 -1.804688 3.421875 -1.515625 3.453125 -1.296875 C 3.484375 -1.078125 3.539062 -0.90625 3.625 -0.78125 C 3.71875 -0.664062 3.84375 -0.585938 4 -0.546875 C 4.164062 -0.503906 4.382812 -0.476562 4.65625 -0.46875 Z M 4.65625 0 "/></g></g></g><g fill="#ffffff" fill-opacity="1"><g transform="translate(48.60008, 29.427903)"><g><path d="M 7.9375 0.125 L 2.6875 -7.359375 L 2.640625 -7.359375 L 2.640625 -2.265625 C 2.640625 -1.867188 2.648438 -1.554688 2.671875 -1.328125 C 2.703125 -1.097656 2.765625 -0.921875 2.859375 -0.796875 C 2.953125 -0.671875 3.078125 -0.585938 3.234375 -0.546875 C 3.398438 -0.503906 3.613281 -0.476562 3.875 -0.46875 L 3.875 0 L 0.359375 0 L 0.359375 -0.46875 C 0.648438 -0.476562 0.882812 -0.503906 1.0625 -0.546875 C 1.238281 -0.585938 1.375 -0.664062 1.46875 -0.78125 C 1.570312 -0.90625 1.640625 -1.078125 1.671875 -1.296875 C 1.703125 -1.515625 1.71875 -1.804688 1.71875 -2.171875 L 1.71875 -6.9375 C 1.71875 -7.269531 1.703125 -7.546875 1.671875 -7.765625 C 1.640625 -7.984375 1.578125 -8.15625 1.484375 -8.28125 C 1.398438 -8.40625 1.273438 -8.492188 1.109375 -8.546875 C 0.953125 -8.597656 0.738281 -8.628906 0.46875 -8.640625 L 0.46875 -9.125 L 3.78125 -9.125 L 8.546875 -2.28125 L 8.59375 -2.28125 L 8.59375 -6.859375 C 8.59375 -7.242188 8.578125 -7.550781 8.546875 -7.78125 C 8.523438 -8.019531 8.46875 -8.203125 8.375 -8.328125 C 8.289062 -8.453125 8.164062 -8.535156 8 -8.578125 C 7.832031 -8.617188 7.617188 -8.640625 7.359375 -8.640625 L 7.359375 -9.125 L 10.890625 -9.125 L 10.890625 -8.640625 C 10.597656 -8.640625 10.359375 -8.613281 10.171875 -8.5625 C 9.992188 -8.519531 9.851562 -8.441406 9.75 -8.328125 C 9.65625 -8.210938 9.59375 -8.039062 9.5625 -7.8125 C 9.53125 -7.59375 9.515625 -7.300781 9.515625 -6.9375 L 9.515625 0.125 Z M 7.9375 0.125 "/></g></g></g><g fill="#ffffff" fill-opacity="1"><g transform="translate(64.984464, 29.427903)"><g><path d="M 8.296875 -6.578125 C 8.296875 -5.734375 7.960938 -5.085938 7.296875 -4.640625 C 6.628906 -4.191406 5.664062 -3.96875 4.40625 -3.96875 L 3.40625 -3.96875 L 3.40625 -1.890625 C 3.40625 -1.585938 3.421875 -1.34375 3.453125 -1.15625 C 3.492188 -0.96875 3.578125 -0.820312 3.703125 -0.71875 C 3.828125 -0.613281 4 -0.546875 4.21875 -0.515625 C 4.445312 -0.484375 4.742188 -0.46875 5.109375 -0.46875 L 5.109375 0 L 0.421875 0 L 0.421875 -0.46875 C 0.679688 -0.476562 0.890625 -0.503906 1.046875 -0.546875 C 1.210938 -0.585938 1.335938 -0.65625 1.421875 -0.75 C 1.515625 -0.84375 1.578125 -0.972656 1.609375 -1.140625 C 1.640625 -1.316406 1.65625 -1.546875 1.65625 -1.828125 L 1.65625 -7.296875 C 1.65625 -7.566406 1.640625 -7.785156 1.609375 -7.953125 C 1.585938 -8.128906 1.535156 -8.265625 1.453125 -8.359375 C 1.378906 -8.460938 1.269531 -8.53125 1.125 -8.5625 C 0.976562 -8.601562 0.785156 -8.628906 0.546875 -8.640625 L 0.546875 -9.125 L 4.640625 -9.125 C 5.835938 -9.125 6.742188 -8.910156 7.359375 -8.484375 C 7.984375 -8.054688 8.296875 -7.421875 8.296875 -6.578125 Z M 3.40625 -4.671875 L 4.171875 -4.671875 C 4.929688 -4.671875 5.488281 -4.828125 5.84375 -5.140625 C 6.207031 -5.453125 6.390625 -5.9375 6.390625 -6.59375 C 6.390625 -7.1875 6.238281 -7.644531 5.9375 -7.96875 C 5.632812 -8.289062 5.164062 -8.453125 4.53125 -8.453125 L 3.609375 -8.453125 C 3.472656 -8.453125 3.40625 -8.382812 3.40625 -8.25 Z M 3.40625 -4.671875 "/></g></g></g><g fill="#ffffff" fill-opacity="1"><g transform="translate(78.72697, 29.427903)"><g><path d="M 8.96875 -3.671875 C 8.96875 -3.003906 8.894531 -2.429688 8.75 -1.953125 C 8.601562 -1.472656 8.375 -1.078125 8.0625 -0.765625 C 7.757812 -0.460938 7.363281 -0.238281 6.875 -0.09375 C 6.382812 0.0507812 5.800781 0.125 5.125 0.125 C 3.851562 0.125 2.921875 -0.140625 2.328125 -0.671875 C 1.742188 -1.210938 1.453125 -2.066406 1.453125 -3.234375 L 1.453125 -6.484375 C 1.453125 -6.785156 1.445312 -7.039062 1.4375 -7.25 C 1.4375 -7.457031 1.425781 -7.632812 1.40625 -7.78125 C 1.394531 -7.925781 1.375 -8.039062 1.34375 -8.125 C 1.3125 -8.21875 1.28125 -8.296875 1.25 -8.359375 C 1.175781 -8.472656 1.070312 -8.546875 0.9375 -8.578125 C 0.800781 -8.617188 0.59375 -8.640625 0.3125 -8.640625 L 0.3125 -9.125 L 4.578125 -9.125 L 4.578125 -8.640625 C 4.242188 -8.640625 3.992188 -8.625 3.828125 -8.59375 C 3.671875 -8.5625 3.550781 -8.492188 3.46875 -8.390625 C 3.414062 -8.328125 3.367188 -8.25 3.328125 -8.15625 C 3.296875 -8.0625 3.269531 -7.941406 3.25 -7.796875 C 3.226562 -7.648438 3.210938 -7.46875 3.203125 -7.25 C 3.203125 -7.039062 3.203125 -6.785156 3.203125 -6.484375 L 3.203125 -3.375 C 3.203125 -2.476562 3.390625 -1.8125 3.765625 -1.375 C 4.148438 -0.945312 4.742188 -0.734375 5.546875 -0.734375 C 7.171875 -0.734375 7.984375 -1.640625 7.984375 -3.453125 L 7.984375 -6.1875 C 7.984375 -6.519531 7.976562 -6.800781 7.96875 -7.03125 C 7.957031 -7.269531 7.9375 -7.472656 7.90625 -7.640625 C 7.875 -7.804688 7.835938 -7.941406 7.796875 -8.046875 C 7.753906 -8.160156 7.703125 -8.253906 7.640625 -8.328125 C 7.523438 -8.429688 7.378906 -8.507812 7.203125 -8.5625 C 7.035156 -8.613281 6.796875 -8.640625 6.484375 -8.640625 L 6.484375 -9.125 L 10.328125 -9.125 L 10.328125 -8.640625 C 10.035156 -8.640625 9.8125 -8.617188 9.65625 -8.578125 C 9.5 -8.535156 9.375 -8.457031 9.28125 -8.34375 C 9.21875 -8.28125 9.164062 -8.191406 9.125 -8.078125 C 9.09375 -7.960938 9.0625 -7.816406 9.03125 -7.640625 C 9.007812 -7.472656 8.992188 -7.269531 8.984375 -7.03125 C 8.972656 -6.800781 8.96875 -6.519531 8.96875 -6.1875 Z M 8.96875 -3.671875 "/></g></g></g><g fill="#ffffff" fill-opacity="1"><g transform="translate(94.400539, 29.427903)"><g><path d="M 9.65625 -6.515625 L 9.140625 -6.515625 C 9.117188 -6.898438 9.0625 -7.21875 8.96875 -7.46875 C 8.875 -7.726562 8.742188 -7.9375 8.578125 -8.09375 C 8.421875 -8.25 8.222656 -8.351562 7.984375 -8.40625 C 7.742188 -8.46875 7.46875 -8.5 7.15625 -8.5 C 6.84375 -8.5 6.59375 -8.492188 6.40625 -8.484375 C 6.226562 -8.472656 6.085938 -8.453125 5.984375 -8.421875 C 5.890625 -8.398438 5.828125 -8.363281 5.796875 -8.3125 C 5.765625 -8.269531 5.75 -8.210938 5.75 -8.140625 L 5.75 -1.9375 C 5.75 -1.675781 5.765625 -1.453125 5.796875 -1.265625 C 5.828125 -1.085938 5.898438 -0.941406 6.015625 -0.828125 C 6.128906 -0.710938 6.289062 -0.625 6.5 -0.5625 C 6.71875 -0.507812 7 -0.476562 7.34375 -0.46875 L 7.34375 0 L 2.375 0 L 2.375 -0.46875 C 2.726562 -0.476562 3.007812 -0.507812 3.21875 -0.5625 C 3.4375 -0.625 3.601562 -0.710938 3.71875 -0.828125 C 3.832031 -0.941406 3.90625 -1.085938 3.9375 -1.265625 C 3.976562 -1.453125 4 -1.675781 4 -1.9375 L 4 -8.140625 C 4 -8.210938 3.984375 -8.269531 3.953125 -8.3125 C 3.929688 -8.363281 3.875 -8.398438 3.78125 -8.421875 C 3.695312 -8.453125 3.570312 -8.472656 3.40625 -8.484375 C 3.25 -8.492188 3.039062 -8.5 2.78125 -8.5 C 2.5 -8.5 2.226562 -8.484375 1.96875 -8.453125 C 1.707031 -8.429688 1.476562 -8.351562 1.28125 -8.21875 C 1.082031 -8.09375 0.921875 -7.894531 0.796875 -7.625 C 0.671875 -7.363281 0.609375 -6.992188 0.609375 -6.515625 L 0.140625 -6.515625 L 0.265625 -9.125 L 9.53125 -9.125 Z M 9.65625 -6.515625 "/></g></g></g></svg>