<svg xmlns="http://www.w3.org/2000/svg" xmlns:xlink="http://www.w3.org/1999/xlink" width="190" zoomAndPan="magnify" viewBox="0 0 142.5 37.5" height="50" preserveAspectRatio="xMidYMid meet" version="1.0"><defs><g/></defs><g fill="#ffffff" fill-opacity="1"><g transform="translate(9.122674, 21.779445)"><g><path d="M 8.5 -6.59375 L 4.375 0 L 3.9375 0 L 3.15625 -6.59375 L 3.125 -6.59375 L 1.828125 -1.6875 C 1.804688 -1.601562 1.789062 -1.523438 1.78125 -1.453125 C 1.769531 -1.378906 1.765625 -1.3125 1.765625 -1.25 C 1.765625 -0.96875 1.84375 -0.753906 2 -0.609375 C 2.15625 -0.472656 2.363281 -0.40625 2.625 -0.40625 L 2.5 0 L -0.265625 0 L -0.15625 -0.40625 C 0.15625 -0.40625 0.4375 -0.515625 0.6875 -0.734375 C 0.9375 -0.960938 1.109375 -1.25 1.203125 -1.59375 L 2.375 -6.03125 C 2.476562 -6.40625 2.53125 -6.679688 2.53125 -6.859375 C 2.53125 -7.066406 2.453125 -7.195312 2.296875 -7.25 C 2.148438 -7.3125 1.894531 -7.34375 1.53125 -7.34375 L 1.640625 -7.75 L 4.0625 -7.75 L 4.765625 -1.75 L 4.8125 -1.75 L 8.609375 -7.75 L 10.734375 -7.75 L 10.609375 -7.34375 C 10.421875 -7.34375 10.265625 -7.320312 10.140625 -7.28125 C 10.023438 -7.238281 9.921875 -7.15625 9.828125 -7.03125 C 9.734375 -6.914062 9.648438 -6.75 9.578125 -6.53125 C 9.503906 -6.3125 9.425781 -6.035156 9.34375 -5.703125 L 8.28125 -1.6875 C 8.195312 -1.394531 8.15625 -1.160156 8.15625 -0.984375 C 8.15625 -0.753906 8.234375 -0.597656 8.390625 -0.515625 C 8.554688 -0.441406 8.816406 -0.40625 9.171875 -0.40625 L 9.0625 0 L 5.84375 0 L 5.953125 -0.40625 C 6.140625 -0.40625 6.296875 -0.421875 6.421875 -0.453125 C 6.546875 -0.484375 6.65625 -0.539062 6.75 -0.625 C 6.851562 -0.707031 6.9375 -0.828125 7 -0.984375 C 7.070312 -1.140625 7.144531 -1.34375 7.21875 -1.59375 L 8.546875 -6.59375 Z M 8.5 -6.59375 "/></g></g></g><g fill="#ffffff" fill-opacity="1"><g transform="translate(21.348391, 21.779445)"><g><path d="M 5.078125 -7.84375 C 5.503906 -7.84375 5.890625 -7.769531 6.234375 -7.625 C 6.585938 -7.476562 6.882812 -7.269531 7.125 -7 C 7.375 -6.726562 7.5625 -6.398438 7.6875 -6.015625 C 7.820312 -5.628906 7.890625 -5.195312 7.890625 -4.71875 C 7.890625 -4.070312 7.769531 -3.457031 7.53125 -2.875 C 7.300781 -2.289062 6.988281 -1.773438 6.59375 -1.328125 C 6.195312 -0.890625 5.738281 -0.539062 5.21875 -0.28125 C 4.707031 -0.03125 4.160156 0.09375 3.578125 0.09375 C 3.148438 0.09375 2.757812 0.0195312 2.40625 -0.125 C 2.0625 -0.28125 1.765625 -0.492188 1.515625 -0.765625 C 1.265625 -1.035156 1.070312 -1.363281 0.9375 -1.75 C 0.8125 -2.132812 0.75 -2.566406 0.75 -3.046875 C 0.75 -3.691406 0.863281 -4.300781 1.09375 -4.875 C 1.332031 -5.457031 1.648438 -5.96875 2.046875 -6.40625 C 2.441406 -6.851562 2.898438 -7.203125 3.421875 -7.453125 C 3.953125 -7.710938 4.503906 -7.84375 5.078125 -7.84375 Z M 5.078125 -7.328125 C 4.640625 -7.328125 4.234375 -7.210938 3.859375 -6.984375 C 3.484375 -6.765625 3.148438 -6.460938 2.859375 -6.078125 C 2.578125 -5.691406 2.359375 -5.234375 2.203125 -4.703125 C 2.046875 -4.179688 1.96875 -3.617188 1.96875 -3.015625 C 1.96875 -2.160156 2.113281 -1.515625 2.40625 -1.078125 C 2.707031 -0.648438 3.144531 -0.4375 3.71875 -0.4375 C 4.144531 -0.4375 4.535156 -0.550781 4.890625 -0.78125 C 5.253906 -1.007812 5.566406 -1.320312 5.828125 -1.71875 C 6.097656 -2.125 6.304688 -2.601562 6.453125 -3.15625 C 6.597656 -3.71875 6.671875 -4.328125 6.671875 -4.984375 C 6.671875 -5.796875 6.539062 -6.390625 6.28125 -6.765625 C 6.019531 -7.140625 5.617188 -7.328125 5.078125 -7.328125 Z M 5.078125 -7.328125 "/></g></g></g><g fill="#ffffff" fill-opacity="1"><g transform="translate(31.561762, 21.779445)"><g><path d="M 2.34375 -2.078125 C 2.28125 -1.847656 2.226562 -1.640625 2.1875 -1.453125 C 2.15625 -1.273438 2.140625 -1.144531 2.140625 -1.0625 C 2.140625 -0.65625 2.519531 -0.453125 3.28125 -0.453125 L 3.171875 0 L -0.171875 0 L -0.0625 -0.40625 C 0.257812 -0.40625 0.519531 -0.5 0.71875 -0.6875 C 0.925781 -0.875 1.085938 -1.175781 1.203125 -1.59375 L 2.390625 -6.03125 C 2.472656 -6.351562 2.515625 -6.609375 2.515625 -6.796875 C 2.515625 -6.890625 2.5 -6.96875 2.46875 -7.03125 C 2.4375 -7.101562 2.378906 -7.160156 2.296875 -7.203125 C 2.210938 -7.253906 2.101562 -7.285156 1.96875 -7.296875 C 1.832031 -7.316406 1.664062 -7.332031 1.46875 -7.34375 L 1.578125 -7.75 L 4.375 -7.75 C 5.175781 -7.75 5.804688 -7.59375 6.265625 -7.28125 C 6.734375 -6.976562 6.96875 -6.554688 6.96875 -6.015625 C 6.96875 -5.742188 6.914062 -5.492188 6.8125 -5.265625 C 6.707031 -5.035156 6.554688 -4.828125 6.359375 -4.640625 C 6.171875 -4.460938 5.941406 -4.3125 5.671875 -4.1875 C 5.398438 -4.0625 5.097656 -3.960938 4.765625 -3.890625 L 5.515625 -2.046875 C 5.648438 -1.710938 5.773438 -1.4375 5.890625 -1.21875 C 6.003906 -1 6.117188 -0.828125 6.234375 -0.703125 C 6.359375 -0.585938 6.492188 -0.507812 6.640625 -0.46875 C 6.796875 -0.425781 6.984375 -0.40625 7.203125 -0.40625 L 7.09375 0 L 5.1875 0 L 3.703125 -3.765625 L 2.8125 -3.765625 Z M 2.953125 -4.28125 L 3.4375 -4.28125 C 3.789062 -4.28125 4.113281 -4.320312 4.40625 -4.40625 C 4.707031 -4.488281 4.960938 -4.601562 5.171875 -4.75 C 5.390625 -4.90625 5.554688 -5.09375 5.671875 -5.3125 C 5.796875 -5.53125 5.859375 -5.785156 5.859375 -6.078125 C 5.859375 -6.484375 5.734375 -6.785156 5.484375 -6.984375 C 5.234375 -7.191406 4.867188 -7.296875 4.390625 -7.296875 C 4.265625 -7.296875 4.15625 -7.28125 4.0625 -7.25 C 3.96875 -7.226562 3.890625 -7.1875 3.828125 -7.125 C 3.765625 -7.070312 3.707031 -6.992188 3.65625 -6.890625 C 3.613281 -6.785156 3.570312 -6.648438 3.53125 -6.484375 Z M 2.953125 -4.28125 "/></g></g></g><g fill="#ffffff" fill-opacity="1"><g transform="translate(41.201618, 21.779445)"><g><path d="M 3.890625 -0.4375 C 4.171875 -0.4375 4.429688 -0.472656 4.671875 -0.546875 C 4.910156 -0.628906 5.117188 -0.742188 5.296875 -0.890625 C 5.472656 -1.046875 5.609375 -1.234375 5.703125 -1.453125 C 5.804688 -1.679688 5.859375 -1.941406 5.859375 -2.234375 C 5.859375 -2.503906 5.796875 -2.703125 5.671875 -2.828125 C 5.554688 -2.953125 5.332031 -3.015625 5 -3.015625 L 5.09375 -3.40625 L 7.84375 -3.40625 L 7.75 -3.015625 C 7.601562 -3.015625 7.484375 -3.003906 7.390625 -2.984375 C 7.296875 -2.960938 7.210938 -2.90625 7.140625 -2.8125 C 7.066406 -2.726562 6.992188 -2.59375 6.921875 -2.40625 C 6.859375 -2.226562 6.785156 -1.984375 6.703125 -1.671875 C 6.648438 -1.472656 6.597656 -1.273438 6.546875 -1.078125 C 6.503906 -0.878906 6.476562 -0.6875 6.46875 -0.5 C 6.3125 -0.46875 6.144531 -0.421875 5.96875 -0.359375 C 5.800781 -0.296875 5.609375 -0.226562 5.390625 -0.15625 C 5.179688 -0.09375 4.929688 -0.0351562 4.640625 0.015625 C 4.359375 0.0664062 4.035156 0.09375 3.671875 0.09375 C 3.210938 0.09375 2.800781 0.0234375 2.4375 -0.109375 C 2.082031 -0.253906 1.773438 -0.460938 1.515625 -0.734375 C 1.265625 -1.003906 1.070312 -1.332031 0.9375 -1.71875 C 0.800781 -2.101562 0.734375 -2.539062 0.734375 -3.03125 C 0.734375 -3.664062 0.851562 -4.269531 1.09375 -4.84375 C 1.34375 -5.425781 1.671875 -5.9375 2.078125 -6.375 C 2.492188 -6.820312 2.972656 -7.175781 3.515625 -7.4375 C 4.054688 -7.707031 4.625 -7.84375 5.21875 -7.84375 C 5.570312 -7.84375 5.910156 -7.796875 6.234375 -7.703125 C 6.566406 -7.609375 6.894531 -7.457031 7.21875 -7.25 L 7.59375 -7.75 L 7.96875 -7.75 L 7.609375 -5.53125 L 7.21875 -5.53125 C 7.15625 -6.144531 6.96875 -6.597656 6.65625 -6.890625 C 6.351562 -7.179688 5.898438 -7.328125 5.296875 -7.328125 C 4.828125 -7.328125 4.390625 -7.210938 3.984375 -6.984375 C 3.578125 -6.765625 3.222656 -6.460938 2.921875 -6.078125 C 2.617188 -5.691406 2.378906 -5.234375 2.203125 -4.703125 C 2.035156 -4.179688 1.953125 -3.617188 1.953125 -3.015625 C 1.953125 -1.296875 2.597656 -0.4375 3.890625 -0.4375 Z M 3.890625 -0.4375 "/></g></g></g><g fill="#ffffff" fill-opacity="1"><g transform="translate(51.304308, 21.779445)"><g/></g></g><g fill="#ffffff" fill-opacity="1"><g transform="translate(56.034049, 21.779445)"><g><path d="M 7.1875 -1.6875 C 7.113281 -1.394531 7.078125 -1.160156 7.078125 -0.984375 C 7.078125 -0.753906 7.144531 -0.597656 7.28125 -0.515625 C 7.425781 -0.441406 7.660156 -0.40625 7.984375 -0.40625 L 7.875 0 L 4.65625 0 L 4.765625 -0.40625 C 4.972656 -0.40625 5.144531 -0.421875 5.28125 -0.453125 C 5.425781 -0.484375 5.550781 -0.539062 5.65625 -0.625 C 5.757812 -0.707031 5.847656 -0.828125 5.921875 -0.984375 C 5.992188 -1.140625 6.0625 -1.34375 6.125 -1.59375 L 6.6875 -3.6875 L 2.78125 -3.6875 L 2.25 -1.6875 C 2.175781 -1.394531 2.140625 -1.160156 2.140625 -0.984375 C 2.140625 -0.753906 2.207031 -0.597656 2.34375 -0.515625 C 2.488281 -0.441406 2.726562 -0.40625 3.0625 -0.40625 L 2.921875 0 L -0.28125 0 L -0.171875 -0.40625 C 0.0234375 -0.40625 0.191406 -0.421875 0.328125 -0.453125 C 0.472656 -0.484375 0.597656 -0.539062 0.703125 -0.625 C 0.804688 -0.707031 0.894531 -0.828125 0.96875 -0.984375 C 1.050781 -1.140625 1.125 -1.34375 1.1875 -1.59375 L 2.359375 -6.03125 C 2.460938 -6.40625 2.515625 -6.679688 2.515625 -6.859375 C 2.515625 -7.066406 2.4375 -7.195312 2.28125 -7.25 C 2.132812 -7.3125 1.878906 -7.34375 1.515625 -7.34375 L 1.625 -7.75 L 4.90625 -7.75 L 4.796875 -7.34375 C 4.566406 -7.34375 4.378906 -7.320312 4.234375 -7.28125 C 4.085938 -7.238281 3.957031 -7.15625 3.84375 -7.03125 C 3.738281 -6.914062 3.644531 -6.75 3.5625 -6.53125 C 3.476562 -6.3125 3.394531 -6.035156 3.3125 -5.703125 L 2.921875 -4.203125 L 6.828125 -4.203125 L 7.3125 -6.03125 C 7.40625 -6.40625 7.453125 -6.679688 7.453125 -6.859375 C 7.453125 -7.066406 7.375 -7.195312 7.21875 -7.25 C 7.070312 -7.3125 6.816406 -7.34375 6.453125 -7.34375 L 6.578125 -7.75 L 9.84375 -7.75 L 9.734375 -7.34375 C 9.503906 -7.34375 9.316406 -7.320312 9.171875 -7.28125 C 9.023438 -7.238281 8.898438 -7.15625 8.796875 -7.03125 C 8.691406 -6.914062 8.59375 -6.75 8.5 -6.53125 C 8.414062 -6.3125 8.332031 -6.035156 8.25 -5.703125 Z M 7.1875 -1.6875 "/></g></g></g><g fill="#ffffff" fill-opacity="1"><g transform="translate(67.163037, 21.779445)"><g><path d="M 5.078125 -7.84375 C 5.503906 -7.84375 5.890625 -7.769531 6.234375 -7.625 C 6.585938 -7.476562 6.882812 -7.269531 7.125 -7 C 7.375 -6.726562 7.5625 -6.398438 7.6875 -6.015625 C 7.820312 -5.628906 7.890625 -5.195312 7.890625 -4.71875 C 7.890625 -4.070312 7.769531 -3.457031 7.53125 -2.875 C 7.300781 -2.289062 6.988281 -1.773438 6.59375 -1.328125 C 6.195312 -0.890625 5.738281 -0.539062 5.21875 -0.28125 C 4.707031 -0.03125 4.160156 0.09375 3.578125 0.09375 C 3.148438 0.09375 2.757812 0.0195312 2.40625 -0.125 C 2.0625 -0.28125 1.765625 -0.492188 1.515625 -0.765625 C 1.265625 -1.035156 1.070312 -1.363281 0.9375 -1.75 C 0.8125 -2.132812 0.75 -2.566406 0.75 -3.046875 C 0.75 -3.691406 0.863281 -4.300781 1.09375 -4.875 C 1.332031 -5.457031 1.648438 -5.96875 2.046875 -6.40625 C 2.441406 -6.851562 2.898438 -7.203125 3.421875 -7.453125 C 3.953125 -7.710938 4.503906 -7.84375 5.078125 -7.84375 Z M 5.078125 -7.328125 C 4.640625 -7.328125 4.234375 -7.210938 3.859375 -6.984375 C 3.484375 -6.765625 3.148438 -6.460938 2.859375 -6.078125 C 2.578125 -5.691406 2.359375 -5.234375 2.203125 -4.703125 C 2.046875 -4.179688 1.96875 -3.617188 1.96875 -3.015625 C 1.96875 -2.160156 2.113281 -1.515625 2.40625 -1.078125 C 2.707031 -0.648438 3.144531 -0.4375 3.71875 -0.4375 C 4.144531 -0.4375 4.535156 -0.550781 4.890625 -0.78125 C 5.253906 -1.007812 5.566406 -1.320312 5.828125 -1.71875 C 6.097656 -2.125 6.304688 -2.601562 6.453125 -3.15625 C 6.597656 -3.71875 6.671875 -4.328125 6.671875 -4.984375 C 6.671875 -5.796875 6.539062 -6.390625 6.28125 -6.765625 C 6.019531 -7.140625 5.617188 -7.328125 5.078125 -7.328125 Z M 5.078125 -7.328125 "/></g></g></g><g fill="#ffffff" fill-opacity="1"><g transform="translate(77.376409, 21.779445)"><g><path d="M 8.5 -6.59375 L 4.375 0 L 3.9375 0 L 3.15625 -6.59375 L 3.125 -6.59375 L 1.828125 -1.6875 C 1.804688 -1.601562 1.789062 -1.523438 1.78125 -1.453125 C 1.769531 -1.378906 1.765625 -1.3125 1.765625 -1.25 C 1.765625 -0.96875 1.84375 -0.753906 2 -0.609375 C 2.15625 -0.472656 2.363281 -0.40625 2.625 -0.40625 L 2.5 0 L -0.265625 0 L -0.15625 -0.40625 C 0.15625 -0.40625 0.4375 -0.515625 0.6875 -0.734375 C 0.9375 -0.960938 1.109375 -1.25 1.203125 -1.59375 L 2.375 -6.03125 C 2.476562 -6.40625 2.53125 -6.679688 2.53125 -6.859375 C 2.53125 -7.066406 2.453125 -7.195312 2.296875 -7.25 C 2.148438 -7.3125 1.894531 -7.34375 1.53125 -7.34375 L 1.640625 -7.75 L 4.0625 -7.75 L 4.765625 -1.75 L 4.8125 -1.75 L 8.609375 -7.75 L 10.734375 -7.75 L 10.609375 -7.34375 C 10.421875 -7.34375 10.265625 -7.320312 10.140625 -7.28125 C 10.023438 -7.238281 9.921875 -7.15625 9.828125 -7.03125 C 9.734375 -6.914062 9.648438 -6.75 9.578125 -6.53125 C 9.503906 -6.3125 9.425781 -6.035156 9.34375 -5.703125 L 8.28125 -1.6875 C 8.195312 -1.394531 8.15625 -1.160156 8.15625 -0.984375 C 8.15625 -0.753906 8.234375 -0.597656 8.390625 -0.515625 C 8.554688 -0.441406 8.816406 -0.40625 9.171875 -0.40625 L 9.0625 0 L 5.84375 0 L 5.953125 -0.40625 C 6.140625 -0.40625 6.296875 -0.421875 6.421875 -0.453125 C 6.546875 -0.484375 6.65625 -0.539062 6.75 -0.625 C 6.851562 -0.707031 6.9375 -0.828125 7 -0.984375 C 7.070312 -1.140625 7.144531 -1.34375 7.21875 -1.59375 L 8.546875 -6.59375 Z M 8.5 -6.59375 "/></g></g></g><g fill="#ffffff" fill-opacity="1"><g transform="translate(89.602128, 21.779445)"><g><path d="M -0.15625 -0.40625 C 0.0703125 -0.40625 0.253906 -0.421875 0.390625 -0.453125 C 0.535156 -0.484375 0.65625 -0.546875 0.75 -0.640625 C 0.851562 -0.734375 0.9375 -0.851562 1 -1 C 1.070312 -1.15625 1.140625 -1.351562 1.203125 -1.59375 L 2.359375 -6.03125 C 2.410156 -6.195312 2.445312 -6.34375 2.46875 -6.46875 C 2.488281 -6.601562 2.5 -6.71875 2.5 -6.8125 C 2.5 -7.03125 2.421875 -7.171875 2.265625 -7.234375 C 2.117188 -7.304688 1.863281 -7.34375 1.5 -7.34375 L 1.609375 -7.75 L 7.109375 -7.75 L 7.109375 -5.71875 L 6.71875 -5.71875 C 6.632812 -6.039062 6.535156 -6.300781 6.421875 -6.5 C 6.316406 -6.707031 6.195312 -6.867188 6.0625 -6.984375 C 5.925781 -7.109375 5.769531 -7.191406 5.59375 -7.234375 C 5.425781 -7.285156 5.238281 -7.3125 5.03125 -7.3125 L 3.71875 -7.3125 L 2.9375 -4.3125 L 3.578125 -4.3125 C 3.753906 -4.3125 3.90625 -4.328125 4.03125 -4.359375 C 4.15625 -4.398438 4.269531 -4.460938 4.375 -4.546875 C 4.476562 -4.628906 4.578125 -4.742188 4.671875 -4.890625 C 4.765625 -5.035156 4.863281 -5.226562 4.96875 -5.46875 L 5.34375 -5.46875 L 4.734375 -2.484375 L 4.34375 -2.484375 C 4.351562 -2.679688 4.359375 -2.859375 4.359375 -3.015625 C 4.359375 -3.316406 4.300781 -3.535156 4.1875 -3.671875 C 4.082031 -3.804688 3.875 -3.875 3.5625 -3.875 L 2.8125 -3.875 L 2.234375 -1.703125 C 2.171875 -1.484375 2.140625 -1.296875 2.140625 -1.140625 C 2.140625 -0.898438 2.242188 -0.722656 2.453125 -0.609375 C 2.671875 -0.492188 3.046875 -0.4375 3.578125 -0.4375 C 3.953125 -0.4375 4.28125 -0.460938 4.5625 -0.515625 C 4.851562 -0.578125 5.101562 -0.671875 5.3125 -0.796875 C 5.53125 -0.929688 5.71875 -1.109375 5.875 -1.328125 C 6.03125 -1.546875 6.175781 -1.8125 6.3125 -2.125 L 6.796875 -2.125 L 6 0 L -0.265625 0 Z M -0.15625 -0.40625 "/></g></g></g><g fill="#ffffff" fill-opacity="1"><g transform="translate(99.010564, 21.779445)"><g><path d="M 5.609375 -7.59375 L 5.921875 -7.59375 L 5.5 -5.609375 L 5.15625 -5.609375 C 5.132812 -6.222656 5.019531 -6.660156 4.8125 -6.921875 C 4.613281 -7.191406 4.300781 -7.328125 3.875 -7.328125 C 3.664062 -7.328125 3.472656 -7.300781 3.296875 -7.25 C 3.117188 -7.195312 2.96875 -7.113281 2.84375 -7 C 2.726562 -6.894531 2.632812 -6.769531 2.5625 -6.625 C 2.488281 -6.476562 2.453125 -6.320312 2.453125 -6.15625 C 2.453125 -5.914062 2.519531 -5.703125 2.65625 -5.515625 C 2.789062 -5.328125 2.957031 -5.148438 3.15625 -4.984375 C 3.363281 -4.816406 3.585938 -4.648438 3.828125 -4.484375 C 4.066406 -4.316406 4.285156 -4.128906 4.484375 -3.921875 C 4.691406 -3.722656 4.863281 -3.5 5 -3.25 C 5.132812 -3 5.203125 -2.703125 5.203125 -2.359375 C 5.203125 -2.015625 5.132812 -1.691406 5 -1.390625 C 4.863281 -1.097656 4.679688 -0.835938 4.453125 -0.609375 C 4.222656 -0.390625 3.953125 -0.21875 3.640625 -0.09375 C 3.335938 0.03125 3.003906 0.09375 2.640625 0.09375 C 1.910156 0.09375 1.269531 -0.191406 0.71875 -0.765625 L 0.515625 0 L 0.15625 0 L 0.578125 -2.5625 L 0.921875 -2.5625 C 0.960938 -1.863281 1.128906 -1.332031 1.421875 -0.96875 C 1.722656 -0.613281 2.132812 -0.4375 2.65625 -0.4375 C 2.894531 -0.4375 3.113281 -0.46875 3.3125 -0.53125 C 3.519531 -0.601562 3.695312 -0.703125 3.84375 -0.828125 C 3.988281 -0.953125 4.101562 -1.097656 4.1875 -1.265625 C 4.269531 -1.441406 4.3125 -1.628906 4.3125 -1.828125 C 4.3125 -2.109375 4.238281 -2.351562 4.09375 -2.5625 C 3.957031 -2.78125 3.785156 -2.984375 3.578125 -3.171875 C 3.367188 -3.367188 3.140625 -3.550781 2.890625 -3.71875 C 2.640625 -3.894531 2.410156 -4.082031 2.203125 -4.28125 C 1.992188 -4.476562 1.816406 -4.695312 1.671875 -4.9375 C 1.535156 -5.175781 1.46875 -5.445312 1.46875 -5.75 C 1.46875 -6.039062 1.53125 -6.3125 1.65625 -6.5625 C 1.78125 -6.820312 1.945312 -7.046875 2.15625 -7.234375 C 2.375 -7.421875 2.625 -7.566406 2.90625 -7.671875 C 3.195312 -7.785156 3.507812 -7.84375 3.84375 -7.84375 C 4.15625 -7.84375 4.4375 -7.789062 4.6875 -7.6875 C 4.9375 -7.582031 5.175781 -7.410156 5.40625 -7.171875 Z M 5.609375 -7.59375 "/></g></g></g><g fill="#ffffff" fill-opacity="1"><g transform="translate(106.990243, 21.779445)"><g><path d="M 4.09375 -1.6875 C 4.050781 -1.53125 4.015625 -1.394531 3.984375 -1.28125 C 3.953125 -1.175781 3.9375 -1.078125 3.9375 -0.984375 C 3.9375 -0.773438 4.019531 -0.625 4.1875 -0.53125 C 4.363281 -0.445312 4.664062 -0.40625 5.09375 -0.40625 L 4.96875 0 L 1.46875 0 L 1.578125 -0.40625 C 1.773438 -0.40625 1.945312 -0.414062 2.09375 -0.4375 C 2.25 -0.46875 2.382812 -0.519531 2.5 -0.59375 C 2.613281 -0.675781 2.710938 -0.796875 2.796875 -0.953125 C 2.878906 -1.117188 2.957031 -1.332031 3.03125 -1.59375 L 4.265625 -6.171875 C 4.328125 -6.421875 4.359375 -6.625 4.359375 -6.78125 C 4.359375 -6.976562 4.3125 -7.117188 4.21875 -7.203125 C 4.132812 -7.285156 3.992188 -7.328125 3.796875 -7.328125 C 3.210938 -7.328125 2.703125 -7.175781 2.265625 -6.875 C 1.835938 -6.570312 1.476562 -6.148438 1.1875 -5.609375 L 0.78125 -5.609375 L 1.734375 -7.75 L 8.46875 -7.75 L 8.265625 -5.609375 L 7.875 -5.609375 C 7.875 -6.253906 7.753906 -6.703125 7.515625 -6.953125 C 7.285156 -7.203125 6.929688 -7.328125 6.453125 -7.328125 C 6.285156 -7.328125 6.144531 -7.304688 6.03125 -7.265625 C 5.914062 -7.234375 5.8125 -7.175781 5.71875 -7.09375 C 5.625 -7.007812 5.539062 -6.890625 5.46875 -6.734375 C 5.40625 -6.578125 5.34375 -6.378906 5.28125 -6.140625 Z M 4.09375 -1.6875 "/></g></g></g><g fill="#ffffff" fill-opacity="1"><g transform="translate(116.801148, 21.779445)"><g><path d="M 5.546875 -1.671875 C 5.460938 -1.316406 5.421875 -1.054688 5.421875 -0.890625 C 5.421875 -0.703125 5.484375 -0.570312 5.609375 -0.5 C 5.742188 -0.4375 5.992188 -0.40625 6.359375 -0.40625 L 6.265625 0 L 3.28125 0 L 3.375 -0.40625 C 3.570312 -0.40625 3.734375 -0.421875 3.859375 -0.453125 C 3.992188 -0.484375 4.101562 -0.539062 4.1875 -0.625 C 4.269531 -0.71875 4.335938 -0.847656 4.390625 -1.015625 C 4.453125 -1.179688 4.515625 -1.40625 4.578125 -1.6875 L 4.84375 -2.921875 L 2.6875 -2.921875 L 2.046875 -2.25 C 1.773438 -1.96875 1.5625 -1.734375 1.40625 -1.546875 C 1.25 -1.367188 1.128906 -1.226562 1.046875 -1.125 C 0.960938 -1.019531 0.910156 -0.941406 0.890625 -0.890625 C 0.867188 -0.835938 0.859375 -0.789062 0.859375 -0.75 C 0.859375 -0.613281 0.914062 -0.519531 1.03125 -0.46875 C 1.144531 -0.425781 1.34375 -0.40625 1.625 -0.40625 L 1.515625 0 L -1.09375 0 L -0.984375 -0.40625 C -0.828125 -0.40625 -0.664062 -0.4375 -0.5 -0.5 C -0.34375 -0.5625 -0.171875 -0.664062 0.015625 -0.8125 C 0.203125 -0.957031 0.410156 -1.148438 0.640625 -1.390625 C 0.878906 -1.640625 1.148438 -1.953125 1.453125 -2.328125 L 6.09375 -7.84375 L 6.9375 -7.84375 Z M 4.9375 -3.421875 L 5.765625 -6.546875 L 5.71875 -6.546875 L 3.125 -3.421875 Z M 4.9375 -3.421875 "/></g></g></g><g fill="#ffffff" fill-opacity="1"><g transform="translate(126.441001, 21.779445)"><g><path d="M 3.953125 -1.6875 C 3.867188 -1.394531 3.828125 -1.160156 3.828125 -0.984375 C 3.828125 -0.753906 3.90625 -0.597656 4.0625 -0.515625 C 4.226562 -0.441406 4.488281 -0.40625 4.84375 -0.40625 L 4.734375 0 L 1.3125 0 L 1.421875 -0.40625 C 1.640625 -0.40625 1.828125 -0.421875 1.984375 -0.453125 C 2.140625 -0.484375 2.273438 -0.539062 2.390625 -0.625 C 2.503906 -0.707031 2.597656 -0.828125 2.671875 -0.984375 C 2.742188 -1.140625 2.816406 -1.34375 2.890625 -1.59375 L 3.34375 -3.375 L 2.140625 -6.28125 C 2.046875 -6.519531 1.957031 -6.707031 1.875 -6.84375 C 1.789062 -6.988281 1.703125 -7.097656 1.609375 -7.171875 C 1.523438 -7.242188 1.425781 -7.289062 1.3125 -7.3125 C 1.207031 -7.332031 1.070312 -7.34375 0.90625 -7.34375 L 1.015625 -7.75 L 3.84375 -7.75 L 3.734375 -7.34375 C 3.472656 -7.34375 3.285156 -7.316406 3.171875 -7.265625 C 3.066406 -7.210938 3.015625 -7.125 3.015625 -7 C 3.015625 -6.945312 3.019531 -6.890625 3.03125 -6.828125 C 3.039062 -6.765625 3.0625 -6.695312 3.09375 -6.625 L 4.171875 -4.03125 L 5.578125 -6.078125 C 5.722656 -6.285156 5.828125 -6.445312 5.890625 -6.5625 C 5.953125 -6.675781 5.984375 -6.789062 5.984375 -6.90625 C 5.984375 -7.050781 5.914062 -7.160156 5.78125 -7.234375 C 5.65625 -7.304688 5.476562 -7.34375 5.25 -7.34375 L 5.359375 -7.75 L 7.84375 -7.75 L 7.734375 -7.34375 C 7.597656 -7.34375 7.484375 -7.332031 7.390625 -7.3125 C 7.296875 -7.289062 7.207031 -7.25 7.125 -7.1875 C 7.039062 -7.132812 6.957031 -7.050781 6.875 -6.9375 C 6.800781 -6.832031 6.703125 -6.695312 6.578125 -6.53125 L 4.421875 -3.5 Z M 3.953125 -1.6875 "/></g></g></g><g fill="#000000" fill-opacity="1"><g transform="translate(35.029514, 5.421274)"><g><path d="M 2.3125 -0.75 L 3.234375 -3.0625 L 4.40625 -3.0625 L 4.40625 -2.90625 C 4.3125 -2.90625 4.238281 -2.894531 4.1875 -2.875 C 4.132812 -2.863281 4.09375 -2.832031 4.0625 -2.78125 C 4.03125 -2.738281 4.007812 -2.675781 4 -2.59375 C 3.988281 -2.519531 3.984375 -2.425781 3.984375 -2.3125 L 3.984375 -0.765625 C 3.984375 -0.628906 3.988281 -0.519531 4 -0.4375 C 4.007812 -0.363281 4.03125 -0.304688 4.0625 -0.265625 C 4.09375 -0.222656 4.140625 -0.191406 4.203125 -0.171875 C 4.265625 -0.160156 4.34375 -0.15625 4.4375 -0.15625 L 4.4375 0 L 2.9375 0 L 2.9375 -0.15625 C 3.039062 -0.15625 3.117188 -0.160156 3.171875 -0.171875 C 3.234375 -0.191406 3.28125 -0.222656 3.3125 -0.265625 C 3.351562 -0.304688 3.378906 -0.363281 3.390625 -0.4375 C 3.398438 -0.507812 3.40625 -0.609375 3.40625 -0.734375 L 3.40625 -2.59375 L 3.375 -2.59375 L 2.3125 0.046875 L 2.015625 0.046875 L 0.90625 -2.59375 L 0.890625 -2.59375 L 0.890625 -0.765625 C 0.890625 -0.628906 0.894531 -0.519531 0.90625 -0.4375 C 0.914062 -0.363281 0.9375 -0.304688 0.96875 -0.265625 C 1 -0.222656 1.046875 -0.191406 1.109375 -0.171875 C 1.171875 -0.160156 1.25 -0.15625 1.34375 -0.15625 L 1.34375 0 L 0.125 0 L 0.125 -0.15625 C 0.21875 -0.15625 0.296875 -0.160156 0.359375 -0.171875 C 0.421875 -0.191406 0.46875 -0.222656 0.5 -0.265625 C 0.53125 -0.304688 0.550781 -0.363281 0.5625 -0.4375 C 0.570312 -0.507812 0.578125 -0.609375 0.578125 -0.734375 L 0.578125 -2.328125 C 0.578125 -2.441406 0.570312 -2.535156 0.5625 -2.609375 C 0.550781 -2.679688 0.53125 -2.738281 0.5 -2.78125 C 0.476562 -2.832031 0.4375 -2.863281 0.375 -2.875 C 0.320312 -2.894531 0.25 -2.90625 0.15625 -2.90625 L 0.15625 -3.0625 L 1.375 -3.0625 L 2.296875 -0.75 Z M 2.3125 -0.75 "/></g></g></g><g fill="#000000" fill-opacity="1"><g transform="translate(41.367054, 5.421274)"><g><path d="M 1.875 -3.109375 C 2.113281 -3.109375 2.335938 -3.066406 2.546875 -2.984375 C 2.753906 -2.898438 2.929688 -2.785156 3.078125 -2.640625 C 3.234375 -2.503906 3.351562 -2.335938 3.4375 -2.140625 C 3.53125 -1.941406 3.578125 -1.734375 3.578125 -1.515625 C 3.578125 -1.296875 3.53125 -1.09375 3.4375 -0.90625 C 3.351562 -0.71875 3.234375 -0.550781 3.078125 -0.40625 C 2.929688 -0.269531 2.753906 -0.160156 2.546875 -0.078125 C 2.335938 0.00390625 2.113281 0.046875 1.875 0.046875 C 1.644531 0.046875 1.425781 0.00390625 1.21875 -0.078125 C 1.007812 -0.160156 0.828125 -0.269531 0.671875 -0.40625 C 0.515625 -0.550781 0.390625 -0.71875 0.296875 -0.90625 C 0.210938 -1.09375 0.171875 -1.296875 0.171875 -1.515625 C 0.171875 -1.734375 0.210938 -1.941406 0.296875 -2.140625 C 0.390625 -2.335938 0.515625 -2.503906 0.671875 -2.640625 C 0.828125 -2.785156 1.003906 -2.898438 1.203125 -2.984375 C 1.410156 -3.066406 1.632812 -3.109375 1.875 -3.109375 Z M 1.875 -0.21875 C 2.03125 -0.21875 2.171875 -0.25 2.296875 -0.3125 C 2.421875 -0.375 2.523438 -0.457031 2.609375 -0.5625 C 2.703125 -0.675781 2.769531 -0.8125 2.8125 -0.96875 C 2.863281 -1.125 2.890625 -1.300781 2.890625 -1.5 C 2.890625 -1.707031 2.863281 -1.894531 2.8125 -2.0625 C 2.769531 -2.226562 2.703125 -2.367188 2.609375 -2.484375 C 2.523438 -2.597656 2.421875 -2.6875 2.296875 -2.75 C 2.171875 -2.8125 2.03125 -2.84375 1.875 -2.84375 C 1.71875 -2.84375 1.578125 -2.8125 1.453125 -2.75 C 1.335938 -2.6875 1.234375 -2.597656 1.140625 -2.484375 C 1.054688 -2.367188 0.988281 -2.226562 0.9375 -2.0625 C 0.894531 -1.894531 0.875 -1.707031 0.875 -1.5 C 0.875 -1.300781 0.894531 -1.125 0.9375 -0.96875 C 0.988281 -0.8125 1.054688 -0.675781 1.140625 -0.5625 C 1.234375 -0.457031 1.335938 -0.375 1.453125 -0.3125 C 1.578125 -0.25 1.71875 -0.21875 1.875 -0.21875 Z M 1.875 -0.21875 "/></g></g></g><g fill="#000000" fill-opacity="1"><g transform="translate(46.898434, 5.421274)"><g><path d="M 2.765625 -2.296875 C 2.765625 -2.078125 2.703125 -1.890625 2.578125 -1.734375 C 2.453125 -1.585938 2.25 -1.492188 1.96875 -1.453125 L 2.890625 -0.390625 C 2.953125 -0.316406 3.023438 -0.257812 3.109375 -0.21875 C 3.203125 -0.175781 3.296875 -0.15625 3.390625 -0.15625 L 3.390625 0 L 2.4375 0 L 1.453125 -1.21875 C 1.390625 -1.289062 1.332031 -1.34375 1.28125 -1.375 C 1.226562 -1.40625 1.179688 -1.421875 1.140625 -1.421875 L 1.140625 -0.640625 C 1.140625 -0.535156 1.144531 -0.453125 1.15625 -0.390625 C 1.175781 -0.328125 1.203125 -0.273438 1.234375 -0.234375 C 1.273438 -0.203125 1.332031 -0.179688 1.40625 -0.171875 C 1.488281 -0.160156 1.59375 -0.15625 1.71875 -0.15625 L 1.71875 0 L 0.140625 0 L 0.140625 -0.15625 C 0.222656 -0.15625 0.289062 -0.160156 0.34375 -0.171875 C 0.40625 -0.179688 0.453125 -0.203125 0.484375 -0.234375 C 0.515625 -0.273438 0.535156 -0.320312 0.546875 -0.375 C 0.554688 -0.4375 0.5625 -0.515625 0.5625 -0.609375 L 0.5625 -2.453125 C 0.5625 -2.546875 0.554688 -2.617188 0.546875 -2.671875 C 0.535156 -2.734375 0.515625 -2.78125 0.484375 -2.8125 C 0.460938 -2.84375 0.425781 -2.863281 0.375 -2.875 C 0.332031 -2.894531 0.269531 -2.90625 0.1875 -2.90625 L 0.1875 -3.0625 L 1.5625 -3.0625 C 1.945312 -3.0625 2.242188 -2.992188 2.453125 -2.859375 C 2.660156 -2.722656 2.765625 -2.535156 2.765625 -2.296875 Z M 1.140625 -1.65625 L 1.40625 -1.65625 C 1.65625 -1.65625 1.835938 -1.703125 1.953125 -1.796875 C 2.078125 -1.890625 2.140625 -2.050781 2.140625 -2.28125 C 2.140625 -2.445312 2.085938 -2.582031 1.984375 -2.6875 C 1.890625 -2.789062 1.75 -2.84375 1.5625 -2.84375 L 1.21875 -2.84375 C 1.164062 -2.84375 1.140625 -2.820312 1.140625 -2.78125 Z M 1.140625 -1.65625 "/></g></g></g><g fill="#000000" fill-opacity="1"><g transform="translate(51.918977, 5.421274)"><g><path d="M 1.75 0.046875 C 1.507812 0.046875 1.289062 0.0078125 1.09375 -0.0625 C 0.90625 -0.132812 0.742188 -0.234375 0.609375 -0.359375 C 0.472656 -0.492188 0.367188 -0.65625 0.296875 -0.84375 C 0.222656 -1.03125 0.1875 -1.242188 0.1875 -1.484375 C 0.1875 -1.722656 0.222656 -1.941406 0.296875 -2.140625 C 0.378906 -2.335938 0.488281 -2.507812 0.625 -2.65625 C 0.769531 -2.800781 0.941406 -2.910156 1.140625 -2.984375 C 1.335938 -3.066406 1.554688 -3.109375 1.796875 -3.109375 C 1.960938 -3.109375 2.117188 -3.082031 2.265625 -3.03125 C 2.410156 -2.988281 2.570312 -2.921875 2.75 -2.828125 L 2.828125 -3.0625 L 2.96875 -3.0625 L 2.96875 -2.0625 L 2.765625 -2.0625 C 2.710938 -2.3125 2.601562 -2.503906 2.4375 -2.640625 C 2.28125 -2.773438 2.082031 -2.84375 1.84375 -2.84375 C 1.53125 -2.84375 1.289062 -2.722656 1.125 -2.484375 C 0.957031 -2.253906 0.875 -1.929688 0.875 -1.515625 C 0.875 -1.097656 0.957031 -0.78125 1.125 -0.5625 C 1.289062 -0.34375 1.53125 -0.234375 1.84375 -0.234375 C 2.0625 -0.234375 2.234375 -0.289062 2.359375 -0.40625 C 2.492188 -0.519531 2.5625 -0.675781 2.5625 -0.875 C 2.5625 -1 2.523438 -1.085938 2.453125 -1.140625 C 2.390625 -1.203125 2.285156 -1.238281 2.140625 -1.25 L 2.140625 -1.421875 L 3.4375 -1.421875 L 3.4375 -1.25 C 3.300781 -1.25 3.207031 -1.21875 3.15625 -1.15625 C 3.101562 -1.101562 3.078125 -1.003906 3.078125 -0.859375 L 3.078125 -0.328125 C 3.023438 -0.328125 2.976562 -0.320312 2.9375 -0.3125 C 2.894531 -0.3125 2.851562 -0.304688 2.8125 -0.296875 C 2.78125 -0.285156 2.738281 -0.265625 2.6875 -0.234375 C 2.644531 -0.210938 2.585938 -0.179688 2.515625 -0.140625 C 2.304688 -0.015625 2.050781 0.046875 1.75 0.046875 Z M 1.75 0.046875 "/></g></g></g><g fill="#000000" fill-opacity="1"><g transform="translate(57.182964, 5.421274)"><g><path d="M 2 -0.921875 L 0.875 -0.921875 C 0.75 -0.640625 0.6875 -0.445312 0.6875 -0.34375 C 0.6875 -0.257812 0.710938 -0.207031 0.765625 -0.1875 C 0.828125 -0.164062 0.921875 -0.15625 1.046875 -0.15625 L 1.046875 0 L -0.046875 0 L -0.046875 -0.15625 C 0.015625 -0.164062 0.0664062 -0.175781 0.109375 -0.1875 C 0.160156 -0.207031 0.203125 -0.226562 0.234375 -0.25 C 0.273438 -0.269531 0.304688 -0.300781 0.328125 -0.34375 C 0.359375 -0.382812 0.382812 -0.429688 0.40625 -0.484375 L 1.453125 -3.109375 L 1.75 -3.109375 L 2.703125 -0.78125 C 2.753906 -0.644531 2.800781 -0.535156 2.84375 -0.453125 C 2.882812 -0.378906 2.925781 -0.320312 2.96875 -0.28125 C 3.007812 -0.238281 3.054688 -0.207031 3.109375 -0.1875 C 3.171875 -0.175781 3.25 -0.164062 3.34375 -0.15625 L 3.34375 0 L 1.828125 0 L 1.828125 -0.15625 C 1.960938 -0.164062 2.054688 -0.179688 2.109375 -0.203125 C 2.160156 -0.222656 2.1875 -0.265625 2.1875 -0.328125 C 2.1875 -0.367188 2.175781 -0.414062 2.15625 -0.46875 C 2.144531 -0.53125 2.125 -0.601562 2.09375 -0.6875 Z M 0.953125 -1.171875 L 1.90625 -1.171875 L 1.453125 -2.375 L 1.4375 -2.375 Z M 0.953125 -1.171875 "/></g></g></g><g fill="#000000" fill-opacity="1"><g transform="translate(62.179561, 5.421274)"><g><path d="M 2.671875 0.046875 L 0.90625 -2.46875 L 0.890625 -2.46875 L 0.890625 -0.765625 C 0.890625 -0.628906 0.894531 -0.519531 0.90625 -0.4375 C 0.914062 -0.363281 0.9375 -0.304688 0.96875 -0.265625 C 1 -0.222656 1.039062 -0.191406 1.09375 -0.171875 C 1.144531 -0.160156 1.210938 -0.15625 1.296875 -0.15625 L 1.296875 0 L 0.125 0 L 0.125 -0.15625 C 0.21875 -0.15625 0.296875 -0.160156 0.359375 -0.171875 C 0.421875 -0.191406 0.46875 -0.222656 0.5 -0.265625 C 0.53125 -0.304688 0.550781 -0.363281 0.5625 -0.4375 C 0.570312 -0.507812 0.578125 -0.609375 0.578125 -0.734375 L 0.578125 -2.328125 C 0.578125 -2.441406 0.570312 -2.535156 0.5625 -2.609375 C 0.550781 -2.679688 0.53125 -2.738281 0.5 -2.78125 C 0.46875 -2.820312 0.425781 -2.851562 0.375 -2.875 C 0.320312 -2.894531 0.25 -2.90625 0.15625 -2.90625 L 0.15625 -3.0625 L 1.265625 -3.0625 L 2.875 -0.765625 L 2.890625 -0.765625 L 2.890625 -2.3125 C 2.890625 -2.4375 2.882812 -2.535156 2.875 -2.609375 C 2.863281 -2.691406 2.84375 -2.753906 2.8125 -2.796875 C 2.78125 -2.835938 2.738281 -2.863281 2.6875 -2.875 C 2.632812 -2.894531 2.566406 -2.90625 2.484375 -2.90625 L 2.484375 -3.0625 L 3.65625 -3.0625 L 3.65625 -2.90625 C 3.5625 -2.90625 3.484375 -2.894531 3.421875 -2.875 C 3.359375 -2.863281 3.3125 -2.835938 3.28125 -2.796875 C 3.25 -2.753906 3.226562 -2.695312 3.21875 -2.625 C 3.207031 -2.550781 3.203125 -2.453125 3.203125 -2.328125 L 3.203125 0.046875 Z M 2.671875 0.046875 "/></g></g></g><g fill="#000000" fill-opacity="1"><g transform="translate(67.698965, 5.421274)"><g/></g></g><g fill="#000000" fill-opacity="1"><g transform="translate(70.528501, 5.421274)"><g><path d="M 2.796875 -2.21875 C 2.796875 -1.925781 2.679688 -1.703125 2.453125 -1.546875 C 2.234375 -1.398438 1.910156 -1.328125 1.484375 -1.328125 L 1.140625 -1.328125 L 1.140625 -0.640625 C 1.140625 -0.535156 1.144531 -0.453125 1.15625 -0.390625 C 1.175781 -0.328125 1.207031 -0.273438 1.25 -0.234375 C 1.289062 -0.203125 1.347656 -0.179688 1.421875 -0.171875 C 1.492188 -0.160156 1.59375 -0.15625 1.71875 -0.15625 L 1.71875 0 L 0.140625 0 L 0.140625 -0.15625 C 0.222656 -0.15625 0.289062 -0.160156 0.34375 -0.171875 C 0.40625 -0.191406 0.453125 -0.21875 0.484375 -0.25 C 0.515625 -0.28125 0.535156 -0.320312 0.546875 -0.375 C 0.554688 -0.4375 0.5625 -0.515625 0.5625 -0.609375 L 0.5625 -2.453125 C 0.5625 -2.546875 0.554688 -2.617188 0.546875 -2.671875 C 0.535156 -2.734375 0.515625 -2.78125 0.484375 -2.8125 C 0.460938 -2.84375 0.425781 -2.863281 0.375 -2.875 C 0.320312 -2.894531 0.257812 -2.90625 0.1875 -2.90625 L 0.1875 -3.0625 L 1.5625 -3.0625 C 1.96875 -3.0625 2.273438 -2.988281 2.484375 -2.84375 C 2.691406 -2.707031 2.796875 -2.5 2.796875 -2.21875 Z M 1.140625 -1.578125 L 1.40625 -1.578125 C 1.65625 -1.578125 1.835938 -1.628906 1.953125 -1.734375 C 2.078125 -1.835938 2.140625 -2 2.140625 -2.21875 C 2.140625 -2.414062 2.085938 -2.566406 1.984375 -2.671875 C 1.890625 -2.785156 1.734375 -2.84375 1.515625 -2.84375 L 1.21875 -2.84375 C 1.164062 -2.84375 1.140625 -2.820312 1.140625 -2.78125 Z M 1.140625 -1.578125 "/></g></g></g><g fill="#000000" fill-opacity="1"><g transform="translate(75.157936, 5.421274)"><g><path d="M 2.765625 -2.296875 C 2.765625 -2.078125 2.703125 -1.890625 2.578125 -1.734375 C 2.453125 -1.585938 2.25 -1.492188 1.96875 -1.453125 L 2.890625 -0.390625 C 2.953125 -0.316406 3.023438 -0.257812 3.109375 -0.21875 C 3.203125 -0.175781 3.296875 -0.15625 3.390625 -0.15625 L 3.390625 0 L 2.4375 0 L 1.453125 -1.21875 C 1.390625 -1.289062 1.332031 -1.34375 1.28125 -1.375 C 1.226562 -1.40625 1.179688 -1.421875 1.140625 -1.421875 L 1.140625 -0.640625 C 1.140625 -0.535156 1.144531 -0.453125 1.15625 -0.390625 C 1.175781 -0.328125 1.203125 -0.273438 1.234375 -0.234375 C 1.273438 -0.203125 1.332031 -0.179688 1.40625 -0.171875 C 1.488281 -0.160156 1.59375 -0.15625 1.71875 -0.15625 L 1.71875 0 L 0.140625 0 L 0.140625 -0.15625 C 0.222656 -0.15625 0.289062 -0.160156 0.34375 -0.171875 C 0.40625 -0.179688 0.453125 -0.203125 0.484375 -0.234375 C 0.515625 -0.273438 0.535156 -0.320312 0.546875 -0.375 C 0.554688 -0.4375 0.5625 -0.515625 0.5625 -0.609375 L 0.5625 -2.453125 C 0.5625 -2.546875 0.554688 -2.617188 0.546875 -2.671875 C 0.535156 -2.734375 0.515625 -2.78125 0.484375 -2.8125 C 0.460938 -2.84375 0.425781 -2.863281 0.375 -2.875 C 0.332031 -2.894531 0.269531 -2.90625 0.1875 -2.90625 L 0.1875 -3.0625 L 1.5625 -3.0625 C 1.945312 -3.0625 2.242188 -2.992188 2.453125 -2.859375 C 2.660156 -2.722656 2.765625 -2.535156 2.765625 -2.296875 Z M 1.140625 -1.65625 L 1.40625 -1.65625 C 1.65625 -1.65625 1.835938 -1.703125 1.953125 -1.796875 C 2.078125 -1.890625 2.140625 -2.050781 2.140625 -2.28125 C 2.140625 -2.445312 2.085938 -2.582031 1.984375 -2.6875 C 1.890625 -2.789062 1.75 -2.84375 1.5625 -2.84375 L 1.21875 -2.84375 C 1.164062 -2.84375 1.140625 -2.820312 1.140625 -2.78125 Z M 1.140625 -1.65625 "/></g></g></g><g fill="#000000" fill-opacity="1"><g transform="translate(80.178481, 5.421274)"><g><path d="M 1.140625 -1.703125 C 1.316406 -1.703125 1.453125 -1.707031 1.546875 -1.71875 C 1.648438 -1.726562 1.726562 -1.75 1.78125 -1.78125 C 1.84375 -1.8125 1.882812 -1.859375 1.90625 -1.921875 C 1.9375 -1.984375 1.957031 -2.070312 1.96875 -2.1875 L 2.125 -2.1875 L 2.125 -1.015625 L 1.96875 -1.015625 C 1.957031 -1.117188 1.9375 -1.203125 1.90625 -1.265625 C 1.882812 -1.328125 1.84375 -1.375 1.78125 -1.40625 C 1.71875 -1.445312 1.632812 -1.472656 1.53125 -1.484375 C 1.4375 -1.492188 1.304688 -1.5 1.140625 -1.5 L 1.140625 -0.671875 C 1.140625 -0.585938 1.148438 -0.515625 1.171875 -0.453125 C 1.203125 -0.398438 1.242188 -0.351562 1.296875 -0.3125 C 1.347656 -0.28125 1.414062 -0.253906 1.5 -0.234375 C 1.59375 -0.222656 1.703125 -0.21875 1.828125 -0.21875 C 1.972656 -0.21875 2.097656 -0.226562 2.203125 -0.25 C 2.304688 -0.269531 2.394531 -0.304688 2.46875 -0.359375 C 2.539062 -0.410156 2.597656 -0.476562 2.640625 -0.5625 C 2.679688 -0.65625 2.71875 -0.769531 2.75 -0.90625 L 2.90625 -0.90625 L 2.84375 0 L 0.140625 0 L 0.140625 -0.15625 C 0.222656 -0.15625 0.289062 -0.160156 0.34375 -0.171875 C 0.40625 -0.191406 0.453125 -0.21875 0.484375 -0.25 C 0.515625 -0.28125 0.535156 -0.320312 0.546875 -0.375 C 0.554688 -0.4375 0.5625 -0.515625 0.5625 -0.609375 L 0.5625 -2.453125 C 0.5625 -2.546875 0.554688 -2.617188 0.546875 -2.671875 C 0.535156 -2.734375 0.515625 -2.78125 0.484375 -2.8125 C 0.460938 -2.84375 0.425781 -2.863281 0.375 -2.875 C 0.320312 -2.894531 0.257812 -2.90625 0.1875 -2.90625 L 0.1875 -3.0625 L 2.703125 -3.0625 L 2.734375 -2.28125 L 2.5625 -2.28125 C 2.539062 -2.394531 2.515625 -2.488281 2.484375 -2.5625 C 2.453125 -2.632812 2.40625 -2.691406 2.34375 -2.734375 C 2.28125 -2.785156 2.195312 -2.816406 2.09375 -2.828125 C 2 -2.847656 1.882812 -2.859375 1.75 -2.859375 L 1.296875 -2.859375 C 1.222656 -2.859375 1.175781 -2.847656 1.15625 -2.828125 C 1.144531 -2.816406 1.140625 -2.773438 1.140625 -2.703125 Z M 1.140625 -1.703125 "/></g></g></g><g fill="#000000" fill-opacity="1"><g transform="translate(84.995484, 5.421274)"><g><path d="M 0.21875 -1.015625 L 0.375 -1.015625 C 0.40625 -0.765625 0.503906 -0.566406 0.671875 -0.421875 C 0.835938 -0.273438 1.039062 -0.203125 1.28125 -0.203125 C 1.382812 -0.203125 1.472656 -0.210938 1.546875 -0.234375 C 1.628906 -0.265625 1.703125 -0.300781 1.765625 -0.34375 C 1.828125 -0.382812 1.875 -0.429688 1.90625 -0.484375 C 1.9375 -0.546875 1.953125 -0.617188 1.953125 -0.703125 C 1.953125 -0.765625 1.941406 -0.816406 1.921875 -0.859375 C 1.898438 -0.910156 1.859375 -0.957031 1.796875 -1 C 1.742188 -1.039062 1.671875 -1.082031 1.578125 -1.125 C 1.484375 -1.175781 1.359375 -1.226562 1.203125 -1.28125 C 0.890625 -1.40625 0.65625 -1.546875 0.5 -1.703125 C 0.351562 -1.859375 0.28125 -2.046875 0.28125 -2.265625 C 0.28125 -2.390625 0.304688 -2.503906 0.359375 -2.609375 C 0.410156 -2.710938 0.476562 -2.800781 0.5625 -2.875 C 0.644531 -2.945312 0.742188 -3.003906 0.859375 -3.046875 C 0.984375 -3.085938 1.117188 -3.109375 1.265625 -3.109375 C 1.398438 -3.109375 1.523438 -3.085938 1.640625 -3.046875 C 1.765625 -3.003906 1.890625 -2.941406 2.015625 -2.859375 L 2.078125 -3.046875 L 2.171875 -3.046875 L 2.21875 -2.1875 L 2.0625 -2.1875 C 2 -2.40625 1.898438 -2.570312 1.765625 -2.6875 C 1.628906 -2.800781 1.472656 -2.859375 1.296875 -2.859375 C 1.128906 -2.859375 0.992188 -2.816406 0.890625 -2.734375 C 0.785156 -2.660156 0.734375 -2.5625 0.734375 -2.4375 C 0.734375 -2.375 0.742188 -2.320312 0.765625 -2.28125 C 0.785156 -2.238281 0.820312 -2.195312 0.875 -2.15625 C 0.925781 -2.113281 0.992188 -2.070312 1.078125 -2.03125 C 1.171875 -1.988281 1.285156 -1.941406 1.421875 -1.890625 C 1.609375 -1.816406 1.765625 -1.742188 1.890625 -1.671875 C 2.023438 -1.597656 2.132812 -1.519531 2.21875 -1.4375 C 2.300781 -1.351562 2.363281 -1.265625 2.40625 -1.171875 C 2.445312 -1.085938 2.46875 -0.988281 2.46875 -0.875 C 2.46875 -0.738281 2.4375 -0.613281 2.375 -0.5 C 2.3125 -0.382812 2.226562 -0.285156 2.125 -0.203125 C 2.019531 -0.128906 1.894531 -0.0664062 1.75 -0.015625 C 1.601562 0.0234375 1.445312 0.046875 1.28125 0.046875 C 1.113281 0.046875 0.96875 0.0234375 0.84375 -0.015625 C 0.71875 -0.0664062 0.585938 -0.140625 0.453125 -0.234375 L 0.375 0 L 0.28125 0 Z M 0.21875 -1.015625 "/></g></g></g><g fill="#000000" fill-opacity="1"><g transform="translate(89.409407, 5.421274)"><g><path d="M 1.140625 -1.703125 C 1.316406 -1.703125 1.453125 -1.707031 1.546875 -1.71875 C 1.648438 -1.726562 1.726562 -1.75 1.78125 -1.78125 C 1.84375 -1.8125 1.882812 -1.859375 1.90625 -1.921875 C 1.9375 -1.984375 1.957031 -2.070312 1.96875 -2.1875 L 2.125 -2.1875 L 2.125 -1.015625 L 1.96875 -1.015625 C 1.957031 -1.117188 1.9375 -1.203125 1.90625 -1.265625 C 1.882812 -1.328125 1.84375 -1.375 1.78125 -1.40625 C 1.71875 -1.445312 1.632812 -1.472656 1.53125 -1.484375 C 1.4375 -1.492188 1.304688 -1.5 1.140625 -1.5 L 1.140625 -0.671875 C 1.140625 -0.585938 1.148438 -0.515625 1.171875 -0.453125 C 1.203125 -0.398438 1.242188 -0.351562 1.296875 -0.3125 C 1.347656 -0.28125 1.414062 -0.253906 1.5 -0.234375 C 1.59375 -0.222656 1.703125 -0.21875 1.828125 -0.21875 C 1.972656 -0.21875 2.097656 -0.226562 2.203125 -0.25 C 2.304688 -0.269531 2.394531 -0.304688 2.46875 -0.359375 C 2.539062 -0.410156 2.597656 -0.476562 2.640625 -0.5625 C 2.679688 -0.65625 2.71875 -0.769531 2.75 -0.90625 L 2.90625 -0.90625 L 2.84375 0 L 0.140625 0 L 0.140625 -0.15625 C 0.222656 -0.15625 0.289062 -0.160156 0.34375 -0.171875 C 0.40625 -0.191406 0.453125 -0.21875 0.484375 -0.25 C 0.515625 -0.28125 0.535156 -0.320312 0.546875 -0.375 C 0.554688 -0.4375 0.5625 -0.515625 0.5625 -0.609375 L 0.5625 -2.453125 C 0.5625 -2.546875 0.554688 -2.617188 0.546875 -2.671875 C 0.535156 -2.734375 0.515625 -2.78125 0.484375 -2.8125 C 0.460938 -2.84375 0.425781 -2.863281 0.375 -2.875 C 0.320312 -2.894531 0.257812 -2.90625 0.1875 -2.90625 L 0.1875 -3.0625 L 2.703125 -3.0625 L 2.734375 -2.28125 L 2.5625 -2.28125 C 2.539062 -2.394531 2.515625 -2.488281 2.484375 -2.5625 C 2.453125 -2.632812 2.40625 -2.691406 2.34375 -2.734375 C 2.28125 -2.785156 2.195312 -2.816406 2.09375 -2.828125 C 2 -2.847656 1.882812 -2.859375 1.75 -2.859375 L 1.296875 -2.859375 C 1.222656 -2.859375 1.175781 -2.847656 1.15625 -2.828125 C 1.144531 -2.816406 1.140625 -2.773438 1.140625 -2.703125 Z M 1.140625 -1.703125 "/></g></g></g><g fill="#000000" fill-opacity="1"><g transform="translate(94.226409, 5.421274)"><g><path d="M 2.671875 0.046875 L 0.90625 -2.46875 L 0.890625 -2.46875 L 0.890625 -0.765625 C 0.890625 -0.628906 0.894531 -0.519531 0.90625 -0.4375 C 0.914062 -0.363281 0.9375 -0.304688 0.96875 -0.265625 C 1 -0.222656 1.039062 -0.191406 1.09375 -0.171875 C 1.144531 -0.160156 1.210938 -0.15625 1.296875 -0.15625 L 1.296875 0 L 0.125 0 L 0.125 -0.15625 C 0.21875 -0.15625 0.296875 -0.160156 0.359375 -0.171875 C 0.421875 -0.191406 0.46875 -0.222656 0.5 -0.265625 C 0.53125 -0.304688 0.550781 -0.363281 0.5625 -0.4375 C 0.570312 -0.507812 0.578125 -0.609375 0.578125 -0.734375 L 0.578125 -2.328125 C 0.578125 -2.441406 0.570312 -2.535156 0.5625 -2.609375 C 0.550781 -2.679688 0.53125 -2.738281 0.5 -2.78125 C 0.46875 -2.820312 0.425781 -2.851562 0.375 -2.875 C 0.320312 -2.894531 0.25 -2.90625 0.15625 -2.90625 L 0.15625 -3.0625 L 1.265625 -3.0625 L 2.875 -0.765625 L 2.890625 -0.765625 L 2.890625 -2.3125 C 2.890625 -2.4375 2.882812 -2.535156 2.875 -2.609375 C 2.863281 -2.691406 2.84375 -2.753906 2.8125 -2.796875 C 2.78125 -2.835938 2.738281 -2.863281 2.6875 -2.875 C 2.632812 -2.894531 2.566406 -2.90625 2.484375 -2.90625 L 2.484375 -3.0625 L 3.65625 -3.0625 L 3.65625 -2.90625 C 3.5625 -2.90625 3.484375 -2.894531 3.421875 -2.875 C 3.359375 -2.863281 3.3125 -2.835938 3.28125 -2.796875 C 3.25 -2.753906 3.226562 -2.695312 3.21875 -2.625 C 3.207031 -2.550781 3.203125 -2.453125 3.203125 -2.328125 L 3.203125 0.046875 Z M 2.671875 0.046875 "/></g></g></g><g fill="#000000" fill-opacity="1"><g transform="translate(99.745811, 5.421274)"><g><path d="M 3.25 -2.1875 L 3.078125 -2.1875 C 3.066406 -2.320312 3.046875 -2.429688 3.015625 -2.515625 C 2.984375 -2.597656 2.941406 -2.664062 2.890625 -2.71875 C 2.835938 -2.769531 2.769531 -2.804688 2.6875 -2.828125 C 2.601562 -2.847656 2.507812 -2.859375 2.40625 -2.859375 C 2.300781 -2.859375 2.21875 -2.851562 2.15625 -2.84375 C 2.09375 -2.84375 2.046875 -2.835938 2.015625 -2.828125 C 1.984375 -2.828125 1.960938 -2.816406 1.953125 -2.796875 C 1.941406 -2.773438 1.9375 -2.753906 1.9375 -2.734375 L 1.9375 -0.65625 C 1.9375 -0.5625 1.941406 -0.484375 1.953125 -0.421875 C 1.960938 -0.367188 1.984375 -0.320312 2.015625 -0.28125 C 2.054688 -0.238281 2.113281 -0.207031 2.1875 -0.1875 C 2.257812 -0.164062 2.351562 -0.15625 2.46875 -0.15625 L 2.46875 0 L 0.796875 0 L 0.796875 -0.15625 C 0.921875 -0.15625 1.019531 -0.164062 1.09375 -0.1875 C 1.164062 -0.207031 1.21875 -0.238281 1.25 -0.28125 C 1.289062 -0.320312 1.316406 -0.367188 1.328125 -0.421875 C 1.335938 -0.484375 1.34375 -0.5625 1.34375 -0.65625 L 1.34375 -2.734375 C 1.34375 -2.753906 1.335938 -2.773438 1.328125 -2.796875 C 1.316406 -2.816406 1.296875 -2.828125 1.265625 -2.828125 C 1.242188 -2.835938 1.203125 -2.84375 1.140625 -2.84375 C 1.085938 -2.851562 1.019531 -2.859375 0.9375 -2.859375 C 0.84375 -2.859375 0.75 -2.851562 0.65625 -2.84375 C 0.570312 -2.832031 0.492188 -2.804688 0.421875 -2.765625 C 0.359375 -2.722656 0.304688 -2.65625 0.265625 -2.5625 C 0.222656 -2.476562 0.203125 -2.351562 0.203125 -2.1875 L 0.046875 -2.1875 L 0.09375 -3.0625 L 3.203125 -3.0625 Z M 3.25 -2.1875 "/></g></g></g><g fill="#000000" fill-opacity="1"><g transform="translate(104.814243, 5.421274)"><g><path d="M 0.21875 -1.015625 L 0.375 -1.015625 C 0.40625 -0.765625 0.503906 -0.566406 0.671875 -0.421875 C 0.835938 -0.273438 1.039062 -0.203125 1.28125 -0.203125 C 1.382812 -0.203125 1.472656 -0.210938 1.546875 -0.234375 C 1.628906 -0.265625 1.703125 -0.300781 1.765625 -0.34375 C 1.828125 -0.382812 1.875 -0.429688 1.90625 -0.484375 C 1.9375 -0.546875 1.953125 -0.617188 1.953125 -0.703125 C 1.953125 -0.765625 1.941406 -0.816406 1.921875 -0.859375 C 1.898438 -0.910156 1.859375 -0.957031 1.796875 -1 C 1.742188 -1.039062 1.671875 -1.082031 1.578125 -1.125 C 1.484375 -1.175781 1.359375 -1.226562 1.203125 -1.28125 C 0.890625 -1.40625 0.65625 -1.546875 0.5 -1.703125 C 0.351562 -1.859375 0.28125 -2.046875 0.28125 -2.265625 C 0.28125 -2.390625 0.304688 -2.503906 0.359375 -2.609375 C 0.410156 -2.710938 0.476562 -2.800781 0.5625 -2.875 C 0.644531 -2.945312 0.742188 -3.003906 0.859375 -3.046875 C 0.984375 -3.085938 1.117188 -3.109375 1.265625 -3.109375 C 1.398438 -3.109375 1.523438 -3.085938 1.640625 -3.046875 C 1.765625 -3.003906 1.890625 -2.941406 2.015625 -2.859375 L 2.078125 -3.046875 L 2.171875 -3.046875 L 2.21875 -2.1875 L 2.0625 -2.1875 C 2 -2.40625 1.898438 -2.570312 1.765625 -2.6875 C 1.628906 -2.800781 1.472656 -2.859375 1.296875 -2.859375 C 1.128906 -2.859375 0.992188 -2.816406 0.890625 -2.734375 C 0.785156 -2.660156 0.734375 -2.5625 0.734375 -2.4375 C 0.734375 -2.375 0.742188 -2.320312 0.765625 -2.28125 C 0.785156 -2.238281 0.820312 -2.195312 0.875 -2.15625 C 0.925781 -2.113281 0.992188 -2.070312 1.078125 -2.03125 C 1.171875 -1.988281 1.285156 -1.941406 1.421875 -1.890625 C 1.609375 -1.816406 1.765625 -1.742188 1.890625 -1.671875 C 2.023438 -1.597656 2.132812 -1.519531 2.21875 -1.4375 C 2.300781 -1.351562 2.363281 -1.265625 2.40625 -1.171875 C 2.445312 -1.085938 2.46875 -0.988281 2.46875 -0.875 C 2.46875 -0.738281 2.4375 -0.613281 2.375 -0.5 C 2.3125 -0.382812 2.226562 -0.285156 2.125 -0.203125 C 2.019531 -0.128906 1.894531 -0.0664062 1.75 -0.015625 C 1.601562 0.0234375 1.445312 0.046875 1.28125 0.046875 C 1.113281 0.046875 0.96875 0.0234375 0.84375 -0.015625 C 0.71875 -0.0664062 0.585938 -0.140625 0.453125 -0.234375 L 0.375 0 L 0.28125 0 Z M 0.21875 -1.015625 "/></g></g></g><g fill="#000000" fill-opacity="1"><g transform="translate(28.56513, 33.71059)"><g><path d="M 0.21875 -1.015625 L 0.375 -1.015625 C 0.40625 -0.765625 0.503906 -0.566406 0.671875 -0.421875 C 0.835938 -0.273438 1.039062 -0.203125 1.28125 -0.203125 C 1.382812 -0.203125 1.472656 -0.210938 1.546875 -0.234375 C 1.628906 -0.265625 1.703125 -0.300781 1.765625 -0.34375 C 1.828125 -0.382812 1.875 -0.429688 1.90625 -0.484375 C 1.9375 -0.546875 1.953125 -0.617188 1.953125 -0.703125 C 1.953125 -0.765625 1.941406 -0.816406 1.921875 -0.859375 C 1.898438 -0.910156 1.859375 -0.957031 1.796875 -1 C 1.742188 -1.039062 1.671875 -1.082031 1.578125 -1.125 C 1.484375 -1.175781 1.359375 -1.226562 1.203125 -1.28125 C 0.890625 -1.40625 0.65625 -1.546875 0.5 -1.703125 C 0.351562 -1.859375 0.28125 -2.046875 0.28125 -2.265625 C 0.28125 -2.390625 0.304688 -2.503906 0.359375 -2.609375 C 0.410156 -2.710938 0.476562 -2.800781 0.5625 -2.875 C 0.644531 -2.945312 0.742188 -3.003906 0.859375 -3.046875 C 0.984375 -3.085938 1.117188 -3.109375 1.265625 -3.109375 C 1.398438 -3.109375 1.523438 -3.085938 1.640625 -3.046875 C 1.765625 -3.003906 1.890625 -2.941406 2.015625 -2.859375 L 2.078125 -3.046875 L 2.171875 -3.046875 L 2.21875 -2.1875 L 2.0625 -2.1875 C 2 -2.40625 1.898438 -2.570312 1.765625 -2.6875 C 1.628906 -2.800781 1.472656 -2.859375 1.296875 -2.859375 C 1.128906 -2.859375 0.992188 -2.816406 0.890625 -2.734375 C 0.785156 -2.660156 0.734375 -2.5625 0.734375 -2.4375 C 0.734375 -2.375 0.742188 -2.320312 0.765625 -2.28125 C 0.785156 -2.238281 0.820312 -2.195312 0.875 -2.15625 C 0.925781 -2.113281 0.992188 -2.070312 1.078125 -2.03125 C 1.171875 -1.988281 1.285156 -1.941406 1.421875 -1.890625 C 1.609375 -1.816406 1.765625 -1.742188 1.890625 -1.671875 C 2.023438 -1.597656 2.132812 -1.519531 2.21875 -1.4375 C 2.300781 -1.351562 2.363281 -1.265625 2.40625 -1.171875 C 2.445312 -1.085938 2.46875 -0.988281 2.46875 -0.875 C 2.46875 -0.738281 2.4375 -0.613281 2.375 -0.5 C 2.3125 -0.382812 2.226562 -0.285156 2.125 -0.203125 C 2.019531 -0.128906 1.894531 -0.0664062 1.75 -0.015625 C 1.601562 0.0234375 1.445312 0.046875 1.28125 0.046875 C 1.113281 0.046875 0.96875 0.0234375 0.84375 -0.015625 C 0.71875 -0.0664062 0.585938 -0.140625 0.453125 -0.234375 L 0.375 0 L 0.28125 0 Z M 0.21875 -1.015625 "/></g></g></g><g fill="#000000" fill-opacity="1"><g transform="translate(32.979055, 33.71059)"><g><path d="M 3.25 -2.1875 L 3.078125 -2.1875 C 3.066406 -2.320312 3.046875 -2.429688 3.015625 -2.515625 C 2.984375 -2.597656 2.941406 -2.664062 2.890625 -2.71875 C 2.835938 -2.769531 2.769531 -2.804688 2.6875 -2.828125 C 2.601562 -2.847656 2.507812 -2.859375 2.40625 -2.859375 C 2.300781 -2.859375 2.21875 -2.851562 2.15625 -2.84375 C 2.09375 -2.84375 2.046875 -2.835938 2.015625 -2.828125 C 1.984375 -2.828125 1.960938 -2.816406 1.953125 -2.796875 C 1.941406 -2.773438 1.9375 -2.753906 1.9375 -2.734375 L 1.9375 -0.65625 C 1.9375 -0.5625 1.941406 -0.484375 1.953125 -0.421875 C 1.960938 -0.367188 1.984375 -0.320312 2.015625 -0.28125 C 2.054688 -0.238281 2.113281 -0.207031 2.1875 -0.1875 C 2.257812 -0.164062 2.351562 -0.15625 2.46875 -0.15625 L 2.46875 0 L 0.796875 0 L 0.796875 -0.15625 C 0.921875 -0.15625 1.019531 -0.164062 1.09375 -0.1875 C 1.164062 -0.207031 1.21875 -0.238281 1.25 -0.28125 C 1.289062 -0.320312 1.316406 -0.367188 1.328125 -0.421875 C 1.335938 -0.484375 1.34375 -0.5625 1.34375 -0.65625 L 1.34375 -2.734375 C 1.34375 -2.753906 1.335938 -2.773438 1.328125 -2.796875 C 1.316406 -2.816406 1.296875 -2.828125 1.265625 -2.828125 C 1.242188 -2.835938 1.203125 -2.84375 1.140625 -2.84375 C 1.085938 -2.851562 1.019531 -2.859375 0.9375 -2.859375 C 0.84375 -2.859375 0.75 -2.851562 0.65625 -2.84375 C 0.570312 -2.832031 0.492188 -2.804688 0.421875 -2.765625 C 0.359375 -2.722656 0.304688 -2.65625 0.265625 -2.5625 C 0.222656 -2.476562 0.203125 -2.351562 0.203125 -2.1875 L 0.046875 -2.1875 L 0.09375 -3.0625 L 3.203125 -3.0625 Z M 3.25 -2.1875 "/></g></g></g><g fill="#000000" fill-opacity="1"><g transform="translate(38.047489, 33.71059)"><g><path d="M 2 -0.921875 L 0.875 -0.921875 C 0.75 -0.640625 0.6875 -0.445312 0.6875 -0.34375 C 0.6875 -0.257812 0.710938 -0.207031 0.765625 -0.1875 C 0.828125 -0.164062 0.921875 -0.15625 1.046875 -0.15625 L 1.046875 0 L -0.046875 0 L -0.046875 -0.15625 C 0.015625 -0.164062 0.0664062 -0.175781 0.109375 -0.1875 C 0.160156 -0.207031 0.203125 -0.226562 0.234375 -0.25 C 0.273438 -0.269531 0.304688 -0.300781 0.328125 -0.34375 C 0.359375 -0.382812 0.382812 -0.429688 0.40625 -0.484375 L 1.453125 -3.109375 L 1.75 -3.109375 L 2.703125 -0.78125 C 2.753906 -0.644531 2.800781 -0.535156 2.84375 -0.453125 C 2.882812 -0.378906 2.925781 -0.320312 2.96875 -0.28125 C 3.007812 -0.238281 3.054688 -0.207031 3.109375 -0.1875 C 3.171875 -0.175781 3.25 -0.164062 3.34375 -0.15625 L 3.34375 0 L 1.828125 0 L 1.828125 -0.15625 C 1.960938 -0.164062 2.054688 -0.179688 2.109375 -0.203125 C 2.160156 -0.222656 2.1875 -0.265625 2.1875 -0.328125 C 2.1875 -0.367188 2.175781 -0.414062 2.15625 -0.46875 C 2.144531 -0.53125 2.125 -0.601562 2.09375 -0.6875 Z M 0.953125 -1.171875 L 1.90625 -1.171875 L 1.453125 -2.375 L 1.4375 -2.375 Z M 0.953125 -1.171875 "/></g></g></g><g fill="#000000" fill-opacity="1"><g transform="translate(43.044085, 33.71059)"><g><path d="M 0.40625 -2.5625 C 0.363281 -2.632812 0.328125 -2.691406 0.296875 -2.734375 C 0.265625 -2.785156 0.226562 -2.820312 0.1875 -2.84375 C 0.15625 -2.863281 0.117188 -2.878906 0.078125 -2.890625 C 0.0351562 -2.898438 -0.0078125 -2.90625 -0.0625 -2.90625 L -0.0625 -3.0625 L 1.28125 -3.0625 L 1.28125 -2.90625 C 1.164062 -2.90625 1.085938 -2.894531 1.046875 -2.875 C 1.003906 -2.851562 0.984375 -2.820312 0.984375 -2.78125 C 0.984375 -2.75 0.988281 -2.710938 1 -2.671875 C 1.019531 -2.640625 1.046875 -2.59375 1.078125 -2.53125 L 1.65625 -1.453125 L 1.671875 -1.453125 L 2.171875 -2.28125 C 2.253906 -2.425781 2.3125 -2.535156 2.34375 -2.609375 C 2.382812 -2.679688 2.40625 -2.742188 2.40625 -2.796875 C 2.40625 -2.835938 2.382812 -2.863281 2.34375 -2.875 C 2.300781 -2.894531 2.222656 -2.90625 2.109375 -2.90625 L 2.109375 -3.0625 L 3.109375 -3.0625 L 3.109375 -2.90625 C 3.054688 -2.90625 3.003906 -2.894531 2.953125 -2.875 C 2.898438 -2.863281 2.847656 -2.828125 2.796875 -2.765625 C 2.742188 -2.710938 2.6875 -2.640625 2.625 -2.546875 C 2.5625 -2.453125 2.484375 -2.320312 2.390625 -2.15625 L 1.8125 -1.171875 L 1.8125 -0.765625 C 1.8125 -0.628906 1.816406 -0.519531 1.828125 -0.4375 C 1.835938 -0.363281 1.859375 -0.304688 1.890625 -0.265625 C 1.921875 -0.222656 1.960938 -0.191406 2.015625 -0.171875 C 2.066406 -0.160156 2.140625 -0.15625 2.234375 -0.15625 L 2.234375 0 L 0.8125 0 L 0.8125 -0.15625 C 0.894531 -0.15625 0.960938 -0.160156 1.015625 -0.171875 C 1.066406 -0.191406 1.109375 -0.21875 1.140625 -0.25 C 1.171875 -0.289062 1.191406 -0.347656 1.203125 -0.421875 C 1.222656 -0.503906 1.234375 -0.609375 1.234375 -0.734375 L 1.234375 -1.09375 Z M 0.40625 -2.5625 "/></g></g></g><g fill="#000000" fill-opacity="1"><g transform="translate(47.84513, 33.71059)"><g><path d="M 2.8125 -3.0625 L 3.015625 -3.0625 L 2.9375 -2.0625 L 2.765625 -2.0625 C 2.710938 -2.300781 2.601562 -2.488281 2.4375 -2.625 C 2.28125 -2.769531 2.085938 -2.84375 1.859375 -2.84375 C 1.703125 -2.84375 1.5625 -2.8125 1.4375 -2.75 C 1.320312 -2.6875 1.222656 -2.597656 1.140625 -2.484375 C 1.054688 -2.367188 0.988281 -2.226562 0.9375 -2.0625 C 0.894531 -1.894531 0.875 -1.707031 0.875 -1.5 C 0.875 -1.09375 0.957031 -0.773438 1.125 -0.546875 C 1.300781 -0.328125 1.550781 -0.21875 1.875 -0.21875 C 2.144531 -0.21875 2.363281 -0.289062 2.53125 -0.4375 C 2.707031 -0.582031 2.832031 -0.796875 2.90625 -1.078125 L 3.09375 -1.078125 L 3.09375 0 L 2.90625 0 L 2.84375 -0.3125 C 2.550781 -0.0703125 2.195312 0.046875 1.78125 0.046875 C 1.539062 0.046875 1.320312 0.0078125 1.125 -0.0625 C 0.925781 -0.132812 0.757812 -0.234375 0.625 -0.359375 C 0.488281 -0.492188 0.378906 -0.65625 0.296875 -0.84375 C 0.222656 -1.039062 0.1875 -1.253906 0.1875 -1.484375 C 0.1875 -1.722656 0.222656 -1.941406 0.296875 -2.140625 C 0.378906 -2.335938 0.492188 -2.507812 0.640625 -2.65625 C 0.785156 -2.800781 0.957031 -2.910156 1.15625 -2.984375 C 1.363281 -3.066406 1.585938 -3.109375 1.828125 -3.109375 C 1.992188 -3.109375 2.144531 -3.082031 2.28125 -3.03125 C 2.425781 -2.988281 2.578125 -2.921875 2.734375 -2.828125 Z M 2.8125 -3.0625 "/></g></g></g><g fill="#000000" fill-opacity="1"><g transform="translate(52.8976, 33.71059)"><g><path d="M 2 -0.921875 L 0.875 -0.921875 C 0.75 -0.640625 0.6875 -0.445312 0.6875 -0.34375 C 0.6875 -0.257812 0.710938 -0.207031 0.765625 -0.1875 C 0.828125 -0.164062 0.921875 -0.15625 1.046875 -0.15625 L 1.046875 0 L -0.046875 0 L -0.046875 -0.15625 C 0.015625 -0.164062 0.0664062 -0.175781 0.109375 -0.1875 C 0.160156 -0.207031 0.203125 -0.226562 0.234375 -0.25 C 0.273438 -0.269531 0.304688 -0.300781 0.328125 -0.34375 C 0.359375 -0.382812 0.382812 -0.429688 0.40625 -0.484375 L 1.453125 -3.109375 L 1.75 -3.109375 L 2.703125 -0.78125 C 2.753906 -0.644531 2.800781 -0.535156 2.84375 -0.453125 C 2.882812 -0.378906 2.925781 -0.320312 2.96875 -0.28125 C 3.007812 -0.238281 3.054688 -0.207031 3.109375 -0.1875 C 3.171875 -0.175781 3.25 -0.164062 3.34375 -0.15625 L 3.34375 0 L 1.828125 0 L 1.828125 -0.15625 C 1.960938 -0.164062 2.054688 -0.179688 2.109375 -0.203125 C 2.160156 -0.222656 2.1875 -0.265625 2.1875 -0.328125 C 2.1875 -0.367188 2.175781 -0.414062 2.15625 -0.46875 C 2.144531 -0.53125 2.125 -0.601562 2.09375 -0.6875 Z M 0.953125 -1.171875 L 1.90625 -1.171875 L 1.453125 -2.375 L 1.4375 -2.375 Z M 0.953125 -1.171875 "/></g></g></g><g fill="#000000" fill-opacity="1"><g transform="translate(57.894197, 33.71059)"><g><path d="M 3.25 -2.1875 L 3.078125 -2.1875 C 3.066406 -2.320312 3.046875 -2.429688 3.015625 -2.515625 C 2.984375 -2.597656 2.941406 -2.664062 2.890625 -2.71875 C 2.835938 -2.769531 2.769531 -2.804688 2.6875 -2.828125 C 2.601562 -2.847656 2.507812 -2.859375 2.40625 -2.859375 C 2.300781 -2.859375 2.21875 -2.851562 2.15625 -2.84375 C 2.09375 -2.84375 2.046875 -2.835938 2.015625 -2.828125 C 1.984375 -2.828125 1.960938 -2.816406 1.953125 -2.796875 C 1.941406 -2.773438 1.9375 -2.753906 1.9375 -2.734375 L 1.9375 -0.65625 C 1.9375 -0.5625 1.941406 -0.484375 1.953125 -0.421875 C 1.960938 -0.367188 1.984375 -0.320312 2.015625 -0.28125 C 2.054688 -0.238281 2.113281 -0.207031 2.1875 -0.1875 C 2.257812 -0.164062 2.351562 -0.15625 2.46875 -0.15625 L 2.46875 0 L 0.796875 0 L 0.796875 -0.15625 C 0.921875 -0.15625 1.019531 -0.164062 1.09375 -0.1875 C 1.164062 -0.207031 1.21875 -0.238281 1.25 -0.28125 C 1.289062 -0.320312 1.316406 -0.367188 1.328125 -0.421875 C 1.335938 -0.484375 1.34375 -0.5625 1.34375 -0.65625 L 1.34375 -2.734375 C 1.34375 -2.753906 1.335938 -2.773438 1.328125 -2.796875 C 1.316406 -2.816406 1.296875 -2.828125 1.265625 -2.828125 C 1.242188 -2.835938 1.203125 -2.84375 1.140625 -2.84375 C 1.085938 -2.851562 1.019531 -2.859375 0.9375 -2.859375 C 0.84375 -2.859375 0.75 -2.851562 0.65625 -2.84375 C 0.570312 -2.832031 0.492188 -2.804688 0.421875 -2.765625 C 0.359375 -2.722656 0.304688 -2.65625 0.265625 -2.5625 C 0.222656 -2.476562 0.203125 -2.351562 0.203125 -2.1875 L 0.046875 -2.1875 L 0.09375 -3.0625 L 3.203125 -3.0625 Z M 3.25 -2.1875 "/></g></g></g><g fill="#000000" fill-opacity="1"><g transform="translate(62.962632, 33.71059)"><g><path d="M 1.5625 0 L 0.140625 0 L 0.140625 -0.15625 C 0.234375 -0.15625 0.304688 -0.160156 0.359375 -0.171875 C 0.410156 -0.191406 0.453125 -0.222656 0.484375 -0.265625 C 0.515625 -0.304688 0.535156 -0.363281 0.546875 -0.4375 C 0.554688 -0.507812 0.5625 -0.609375 0.5625 -0.734375 L 0.5625 -2.328125 C 0.5625 -2.441406 0.554688 -2.535156 0.546875 -2.609375 C 0.535156 -2.679688 0.515625 -2.738281 0.484375 -2.78125 C 0.460938 -2.820312 0.425781 -2.851562 0.375 -2.875 C 0.332031 -2.894531 0.269531 -2.90625 0.1875 -2.90625 L 0.1875 -3.0625 L 1.53125 -3.0625 L 1.53125 -2.90625 C 1.445312 -2.90625 1.378906 -2.894531 1.328125 -2.875 C 1.273438 -2.851562 1.234375 -2.820312 1.203125 -2.78125 C 1.179688 -2.738281 1.164062 -2.679688 1.15625 -2.609375 C 1.144531 -2.535156 1.140625 -2.441406 1.140625 -2.328125 L 1.140625 -0.734375 C 1.140625 -0.609375 1.144531 -0.507812 1.15625 -0.4375 C 1.164062 -0.363281 1.1875 -0.304688 1.21875 -0.265625 C 1.25 -0.222656 1.289062 -0.191406 1.34375 -0.171875 C 1.40625 -0.160156 1.476562 -0.15625 1.5625 -0.15625 Z M 1.5625 0 "/></g></g></g><g fill="#000000" fill-opacity="1"><g transform="translate(66.442688, 33.71059)"><g><path d="M 1.875 -3.109375 C 2.113281 -3.109375 2.335938 -3.066406 2.546875 -2.984375 C 2.753906 -2.898438 2.929688 -2.785156 3.078125 -2.640625 C 3.234375 -2.503906 3.351562 -2.335938 3.4375 -2.140625 C 3.53125 -1.941406 3.578125 -1.734375 3.578125 -1.515625 C 3.578125 -1.296875 3.53125 -1.09375 3.4375 -0.90625 C 3.351562 -0.71875 3.234375 -0.550781 3.078125 -0.40625 C 2.929688 -0.269531 2.753906 -0.160156 2.546875 -0.078125 C 2.335938 0.00390625 2.113281 0.046875 1.875 0.046875 C 1.644531 0.046875 1.425781 0.00390625 1.21875 -0.078125 C 1.007812 -0.160156 0.828125 -0.269531 0.671875 -0.40625 C 0.515625 -0.550781 0.390625 -0.71875 0.296875 -0.90625 C 0.210938 -1.09375 0.171875 -1.296875 0.171875 -1.515625 C 0.171875 -1.734375 0.210938 -1.941406 0.296875 -2.140625 C 0.390625 -2.335938 0.515625 -2.503906 0.671875 -2.640625 C 0.828125 -2.785156 1.003906 -2.898438 1.203125 -2.984375 C 1.410156 -3.066406 1.632812 -3.109375 1.875 -3.109375 Z M 1.875 -0.21875 C 2.03125 -0.21875 2.171875 -0.25 2.296875 -0.3125 C 2.421875 -0.375 2.523438 -0.457031 2.609375 -0.5625 C 2.703125 -0.675781 2.769531 -0.8125 2.8125 -0.96875 C 2.863281 -1.125 2.890625 -1.300781 2.890625 -1.5 C 2.890625 -1.707031 2.863281 -1.894531 2.8125 -2.0625 C 2.769531 -2.226562 2.703125 -2.367188 2.609375 -2.484375 C 2.523438 -2.597656 2.421875 -2.6875 2.296875 -2.75 C 2.171875 -2.8125 2.03125 -2.84375 1.875 -2.84375 C 1.71875 -2.84375 1.578125 -2.8125 1.453125 -2.75 C 1.335938 -2.6875 1.234375 -2.597656 1.140625 -2.484375 C 1.054688 -2.367188 0.988281 -2.226562 0.9375 -2.0625 C 0.894531 -1.894531 0.875 -1.707031 0.875 -1.5 C 0.875 -1.300781 0.894531 -1.125 0.9375 -0.96875 C 0.988281 -0.8125 1.054688 -0.675781 1.140625 -0.5625 C 1.234375 -0.457031 1.335938 -0.375 1.453125 -0.3125 C 1.578125 -0.25 1.71875 -0.21875 1.875 -0.21875 Z M 1.875 -0.21875 "/></g></g></g><g fill="#000000" fill-opacity="1"><g transform="translate(71.974068, 33.71059)"><g><path d="M 2.671875 0.046875 L 0.90625 -2.46875 L 0.890625 -2.46875 L 0.890625 -0.765625 C 0.890625 -0.628906 0.894531 -0.519531 0.90625 -0.4375 C 0.914062 -0.363281 0.9375 -0.304688 0.96875 -0.265625 C 1 -0.222656 1.039062 -0.191406 1.09375 -0.171875 C 1.144531 -0.160156 1.210938 -0.15625 1.296875 -0.15625 L 1.296875 0 L 0.125 0 L 0.125 -0.15625 C 0.21875 -0.15625 0.296875 -0.160156 0.359375 -0.171875 C 0.421875 -0.191406 0.46875 -0.222656 0.5 -0.265625 C 0.53125 -0.304688 0.550781 -0.363281 0.5625 -0.4375 C 0.570312 -0.507812 0.578125 -0.609375 0.578125 -0.734375 L 0.578125 -2.328125 C 0.578125 -2.441406 0.570312 -2.535156 0.5625 -2.609375 C 0.550781 -2.679688 0.53125 -2.738281 0.5 -2.78125 C 0.46875 -2.820312 0.425781 -2.851562 0.375 -2.875 C 0.320312 -2.894531 0.25 -2.90625 0.15625 -2.90625 L 0.15625 -3.0625 L 1.265625 -3.0625 L 2.875 -0.765625 L 2.890625 -0.765625 L 2.890625 -2.3125 C 2.890625 -2.4375 2.882812 -2.535156 2.875 -2.609375 C 2.863281 -2.691406 2.84375 -2.753906 2.8125 -2.796875 C 2.78125 -2.835938 2.738281 -2.863281 2.6875 -2.875 C 2.632812 -2.894531 2.566406 -2.90625 2.484375 -2.90625 L 2.484375 -3.0625 L 3.65625 -3.0625 L 3.65625 -2.90625 C 3.5625 -2.90625 3.484375 -2.894531 3.421875 -2.875 C 3.359375 -2.863281 3.3125 -2.835938 3.28125 -2.796875 C 3.25 -2.753906 3.226562 -2.695312 3.21875 -2.625 C 3.207031 -2.550781 3.203125 -2.453125 3.203125 -2.328125 L 3.203125 0.046875 Z M 2.671875 0.046875 "/></g></g></g><g fill="#000000" fill-opacity="1"><g transform="translate(77.493469, 33.71059)"><g/></g></g><g fill="#000000" fill-opacity="1"><g transform="translate(80.323002, 33.71059)"><g><path d="M 1.421875 -1.890625 C 1.535156 -1.972656 1.617188 -2.0625 1.671875 -2.15625 C 1.722656 -2.25 1.75 -2.347656 1.75 -2.453125 C 1.75 -2.566406 1.71875 -2.65625 1.65625 -2.71875 C 1.601562 -2.789062 1.53125 -2.828125 1.4375 -2.828125 C 1.269531 -2.828125 1.1875 -2.707031 1.1875 -2.46875 C 1.1875 -2.363281 1.207031 -2.257812 1.25 -2.15625 C 1.289062 -2.0625 1.347656 -1.972656 1.421875 -1.890625 Z M 1.125 -1.40625 C 0.988281 -1.320312 0.882812 -1.21875 0.8125 -1.09375 C 0.738281 -0.96875 0.703125 -0.84375 0.703125 -0.71875 C 0.703125 -0.582031 0.742188 -0.46875 0.828125 -0.375 C 0.910156 -0.289062 1.019531 -0.25 1.15625 -0.25 C 1.257812 -0.25 1.367188 -0.273438 1.484375 -0.328125 C 1.609375 -0.378906 1.722656 -0.445312 1.828125 -0.53125 Z M 2.203125 -0.890625 C 2.265625 -0.960938 2.320312 -1.035156 2.375 -1.109375 C 2.425781 -1.179688 2.472656 -1.25 2.515625 -1.3125 C 2.554688 -1.375 2.585938 -1.425781 2.609375 -1.46875 C 2.628906 -1.519531 2.640625 -1.566406 2.640625 -1.609375 C 2.640625 -1.648438 2.617188 -1.675781 2.578125 -1.6875 C 2.535156 -1.707031 2.46875 -1.71875 2.375 -1.71875 L 2.375 -1.875 L 3.34375 -1.875 L 3.34375 -1.71875 C 3.28125 -1.71875 3.226562 -1.710938 3.1875 -1.703125 C 3.144531 -1.691406 3.101562 -1.675781 3.0625 -1.65625 C 3.03125 -1.632812 3 -1.609375 2.96875 -1.578125 C 2.9375 -1.546875 2.910156 -1.507812 2.890625 -1.46875 L 2.328125 -0.703125 C 2.441406 -0.566406 2.5625 -0.457031 2.6875 -0.375 C 2.8125 -0.300781 2.929688 -0.265625 3.046875 -0.265625 C 3.117188 -0.265625 3.175781 -0.273438 3.21875 -0.296875 C 3.257812 -0.316406 3.300781 -0.367188 3.34375 -0.453125 L 3.453125 -0.421875 C 3.421875 -0.265625 3.351562 -0.144531 3.25 -0.0625 C 3.144531 0.0078125 3.007812 0.046875 2.84375 0.046875 C 2.769531 0.046875 2.703125 0.0351562 2.640625 0.015625 C 2.578125 -0.00390625 2.507812 -0.03125 2.4375 -0.0625 C 2.375 -0.09375 2.304688 -0.132812 2.234375 -0.1875 C 2.171875 -0.25 2.09375 -0.316406 2 -0.390625 C 1.863281 -0.253906 1.703125 -0.144531 1.515625 -0.0625 C 1.335938 0.0078125 1.148438 0.046875 0.953125 0.046875 C 0.828125 0.046875 0.710938 0.03125 0.609375 0 C 0.503906 -0.0390625 0.410156 -0.09375 0.328125 -0.15625 C 0.253906 -0.21875 0.191406 -0.289062 0.140625 -0.375 C 0.0976562 -0.46875 0.078125 -0.566406 0.078125 -0.671875 C 0.078125 -0.847656 0.148438 -1.007812 0.296875 -1.15625 C 0.441406 -1.3125 0.671875 -1.46875 0.984375 -1.625 C 0.898438 -1.75 0.835938 -1.863281 0.796875 -1.96875 C 0.753906 -2.082031 0.734375 -2.195312 0.734375 -2.3125 C 0.734375 -2.4375 0.75 -2.546875 0.78125 -2.640625 C 0.820312 -2.734375 0.875 -2.816406 0.9375 -2.890625 C 1.007812 -2.960938 1.09375 -3.015625 1.1875 -3.046875 C 1.28125 -3.085938 1.382812 -3.109375 1.5 -3.109375 C 1.601562 -3.109375 1.695312 -3.09375 1.78125 -3.0625 C 1.863281 -3.03125 1.9375 -2.988281 2 -2.9375 C 2.0625 -2.882812 2.109375 -2.820312 2.140625 -2.75 C 2.179688 -2.675781 2.203125 -2.597656 2.203125 -2.515625 C 2.203125 -2.367188 2.148438 -2.226562 2.046875 -2.09375 C 1.941406 -1.96875 1.78125 -1.832031 1.5625 -1.6875 Z M 2.203125 -0.890625 "/></g></g></g><g fill="#000000" fill-opacity="1"><g transform="translate(85.646852, 33.71059)"><g/></g></g><g fill="#000000" fill-opacity="1"><g transform="translate(88.476385, 33.71059)"><g><path d="M 2.796875 -2.21875 C 2.796875 -1.925781 2.679688 -1.703125 2.453125 -1.546875 C 2.234375 -1.398438 1.910156 -1.328125 1.484375 -1.328125 L 1.140625 -1.328125 L 1.140625 -0.640625 C 1.140625 -0.535156 1.144531 -0.453125 1.15625 -0.390625 C 1.175781 -0.328125 1.207031 -0.273438 1.25 -0.234375 C 1.289062 -0.203125 1.347656 -0.179688 1.421875 -0.171875 C 1.492188 -0.160156 1.59375 -0.15625 1.71875 -0.15625 L 1.71875 0 L 0.140625 0 L 0.140625 -0.15625 C 0.222656 -0.15625 0.289062 -0.160156 0.34375 -0.171875 C 0.40625 -0.191406 0.453125 -0.21875 0.484375 -0.25 C 0.515625 -0.28125 0.535156 -0.320312 0.546875 -0.375 C 0.554688 -0.4375 0.5625 -0.515625 0.5625 -0.609375 L 0.5625 -2.453125 C 0.5625 -2.546875 0.554688 -2.617188 0.546875 -2.671875 C 0.535156 -2.734375 0.515625 -2.78125 0.484375 -2.8125 C 0.460938 -2.84375 0.425781 -2.863281 0.375 -2.875 C 0.320312 -2.894531 0.257812 -2.90625 0.1875 -2.90625 L 0.1875 -3.0625 L 1.5625 -3.0625 C 1.96875 -3.0625 2.273438 -2.988281 2.484375 -2.84375 C 2.691406 -2.707031 2.796875 -2.5 2.796875 -2.21875 Z M 1.140625 -1.578125 L 1.40625 -1.578125 C 1.65625 -1.578125 1.835938 -1.628906 1.953125 -1.734375 C 2.078125 -1.835938 2.140625 -2 2.140625 -2.21875 C 2.140625 -2.414062 2.085938 -2.566406 1.984375 -2.671875 C 1.890625 -2.785156 1.734375 -2.84375 1.515625 -2.84375 L 1.21875 -2.84375 C 1.164062 -2.84375 1.140625 -2.820312 1.140625 -2.78125 Z M 1.140625 -1.578125 "/></g></g></g><g fill="#000000" fill-opacity="1"><g transform="translate(93.105818, 33.71059)"><g><path d="M 1.5625 0 L 0.140625 0 L 0.140625 -0.15625 C 0.234375 -0.15625 0.304688 -0.160156 0.359375 -0.171875 C 0.410156 -0.191406 0.453125 -0.222656 0.484375 -0.265625 C 0.515625 -0.304688 0.535156 -0.363281 0.546875 -0.4375 C 0.554688 -0.507812 0.5625 -0.609375 0.5625 -0.734375 L 0.5625 -2.328125 C 0.5625 -2.441406 0.554688 -2.535156 0.546875 -2.609375 C 0.535156 -2.679688 0.515625 -2.738281 0.484375 -2.78125 C 0.460938 -2.820312 0.425781 -2.851562 0.375 -2.875 C 0.332031 -2.894531 0.269531 -2.90625 0.1875 -2.90625 L 0.1875 -3.0625 L 1.53125 -3.0625 L 1.53125 -2.90625 C 1.445312 -2.90625 1.378906 -2.894531 1.328125 -2.875 C 1.273438 -2.851562 1.234375 -2.820312 1.203125 -2.78125 C 1.179688 -2.738281 1.164062 -2.679688 1.15625 -2.609375 C 1.144531 -2.535156 1.140625 -2.441406 1.140625 -2.328125 L 1.140625 -0.734375 C 1.140625 -0.609375 1.144531 -0.507812 1.15625 -0.4375 C 1.164062 -0.363281 1.1875 -0.304688 1.21875 -0.265625 C 1.25 -0.222656 1.289062 -0.191406 1.34375 -0.171875 C 1.40625 -0.160156 1.476562 -0.15625 1.5625 -0.15625 Z M 1.5625 0 "/></g></g></g><g fill="#000000" fill-opacity="1"><g transform="translate(96.585872, 33.71059)"><g><path d="M 2.8125 -3.0625 L 3.015625 -3.0625 L 2.9375 -2.0625 L 2.765625 -2.0625 C 2.710938 -2.300781 2.601562 -2.488281 2.4375 -2.625 C 2.28125 -2.769531 2.085938 -2.84375 1.859375 -2.84375 C 1.703125 -2.84375 1.5625 -2.8125 1.4375 -2.75 C 1.320312 -2.6875 1.222656 -2.597656 1.140625 -2.484375 C 1.054688 -2.367188 0.988281 -2.226562 0.9375 -2.0625 C 0.894531 -1.894531 0.875 -1.707031 0.875 -1.5 C 0.875 -1.09375 0.957031 -0.773438 1.125 -0.546875 C 1.300781 -0.328125 1.550781 -0.21875 1.875 -0.21875 C 2.144531 -0.21875 2.363281 -0.289062 2.53125 -0.4375 C 2.707031 -0.582031 2.832031 -0.796875 2.90625 -1.078125 L 3.09375 -1.078125 L 3.09375 0 L 2.90625 0 L 2.84375 -0.3125 C 2.550781 -0.0703125 2.195312 0.046875 1.78125 0.046875 C 1.539062 0.046875 1.320312 0.0078125 1.125 -0.0625 C 0.925781 -0.132812 0.757812 -0.234375 0.625 -0.359375 C 0.488281 -0.492188 0.378906 -0.65625 0.296875 -0.84375 C 0.222656 -1.039062 0.1875 -1.253906 0.1875 -1.484375 C 0.1875 -1.722656 0.222656 -1.941406 0.296875 -2.140625 C 0.378906 -2.335938 0.492188 -2.507812 0.640625 -2.65625 C 0.785156 -2.800781 0.957031 -2.910156 1.15625 -2.984375 C 1.363281 -3.066406 1.585938 -3.109375 1.828125 -3.109375 C 1.992188 -3.109375 2.144531 -3.082031 2.28125 -3.03125 C 2.425781 -2.988281 2.578125 -2.921875 2.734375 -2.828125 Z M 2.8125 -3.0625 "/></g></g></g><g fill="#000000" fill-opacity="1"><g transform="translate(101.638339, 33.71059)"><g><path d="M 2.671875 0.046875 L 0.90625 -2.46875 L 0.890625 -2.46875 L 0.890625 -0.765625 C 0.890625 -0.628906 0.894531 -0.519531 0.90625 -0.4375 C 0.914062 -0.363281 0.9375 -0.304688 0.96875 -0.265625 C 1 -0.222656 1.039062 -0.191406 1.09375 -0.171875 C 1.144531 -0.160156 1.210938 -0.15625 1.296875 -0.15625 L 1.296875 0 L 0.125 0 L 0.125 -0.15625 C 0.21875 -0.15625 0.296875 -0.160156 0.359375 -0.171875 C 0.421875 -0.191406 0.46875 -0.222656 0.5 -0.265625 C 0.53125 -0.304688 0.550781 -0.363281 0.5625 -0.4375 C 0.570312 -0.507812 0.578125 -0.609375 0.578125 -0.734375 L 0.578125 -2.328125 C 0.578125 -2.441406 0.570312 -2.535156 0.5625 -2.609375 C 0.550781 -2.679688 0.53125 -2.738281 0.5 -2.78125 C 0.46875 -2.820312 0.425781 -2.851562 0.375 -2.875 C 0.320312 -2.894531 0.25 -2.90625 0.15625 -2.90625 L 0.15625 -3.0625 L 1.265625 -3.0625 L 2.875 -0.765625 L 2.890625 -0.765625 L 2.890625 -2.3125 C 2.890625 -2.4375 2.882812 -2.535156 2.875 -2.609375 C 2.863281 -2.691406 2.84375 -2.753906 2.8125 -2.796875 C 2.78125 -2.835938 2.738281 -2.863281 2.6875 -2.875 C 2.632812 -2.894531 2.566406 -2.90625 2.484375 -2.90625 L 2.484375 -3.0625 L 3.65625 -3.0625 L 3.65625 -2.90625 C 3.5625 -2.90625 3.484375 -2.894531 3.421875 -2.875 C 3.359375 -2.863281 3.3125 -2.835938 3.28125 -2.796875 C 3.25 -2.753906 3.226562 -2.695312 3.21875 -2.625 C 3.207031 -2.550781 3.203125 -2.453125 3.203125 -2.328125 L 3.203125 0.046875 Z M 2.671875 0.046875 "/></g></g></g><g fill="#000000" fill-opacity="1"><g transform="translate(107.15774, 33.71059)"><g><path d="M 1.5625 0 L 0.140625 0 L 0.140625 -0.15625 C 0.234375 -0.15625 0.304688 -0.160156 0.359375 -0.171875 C 0.410156 -0.191406 0.453125 -0.222656 0.484375 -0.265625 C 0.515625 -0.304688 0.535156 -0.363281 0.546875 -0.4375 C 0.554688 -0.507812 0.5625 -0.609375 0.5625 -0.734375 L 0.5625 -2.328125 C 0.5625 -2.441406 0.554688 -2.535156 0.546875 -2.609375 C 0.535156 -2.679688 0.515625 -2.738281 0.484375 -2.78125 C 0.460938 -2.820312 0.425781 -2.851562 0.375 -2.875 C 0.332031 -2.894531 0.269531 -2.90625 0.1875 -2.90625 L 0.1875 -3.0625 L 1.53125 -3.0625 L 1.53125 -2.90625 C 1.445312 -2.90625 1.378906 -2.894531 1.328125 -2.875 C 1.273438 -2.851562 1.234375 -2.820312 1.203125 -2.78125 C 1.179688 -2.738281 1.164062 -2.679688 1.15625 -2.609375 C 1.144531 -2.535156 1.140625 -2.441406 1.140625 -2.328125 L 1.140625 -0.734375 C 1.140625 -0.609375 1.144531 -0.507812 1.15625 -0.4375 C 1.164062 -0.363281 1.1875 -0.304688 1.21875 -0.265625 C 1.25 -0.222656 1.289062 -0.191406 1.34375 -0.171875 C 1.40625 -0.160156 1.476562 -0.15625 1.5625 -0.15625 Z M 1.5625 0 "/></g></g></g><g fill="#000000" fill-opacity="1"><g transform="translate(110.637794, 33.71059)"><g><path d="M 2.8125 -3.0625 L 3.015625 -3.0625 L 2.9375 -2.0625 L 2.765625 -2.0625 C 2.710938 -2.300781 2.601562 -2.488281 2.4375 -2.625 C 2.28125 -2.769531 2.085938 -2.84375 1.859375 -2.84375 C 1.703125 -2.84375 1.5625 -2.8125 1.4375 -2.75 C 1.320312 -2.6875 1.222656 -2.597656 1.140625 -2.484375 C 1.054688 -2.367188 0.988281 -2.226562 0.9375 -2.0625 C 0.894531 -1.894531 0.875 -1.707031 0.875 -1.5 C 0.875 -1.09375 0.957031 -0.773438 1.125 -0.546875 C 1.300781 -0.328125 1.550781 -0.21875 1.875 -0.21875 C 2.144531 -0.21875 2.363281 -0.289062 2.53125 -0.4375 C 2.707031 -0.582031 2.832031 -0.796875 2.90625 -1.078125 L 3.09375 -1.078125 L 3.09375 0 L 2.90625 0 L 2.84375 -0.3125 C 2.550781 -0.0703125 2.195312 0.046875 1.78125 0.046875 C 1.539062 0.046875 1.320312 0.0078125 1.125 -0.0625 C 0.925781 -0.132812 0.757812 -0.234375 0.625 -0.359375 C 0.488281 -0.492188 0.378906 -0.65625 0.296875 -0.84375 C 0.222656 -1.039062 0.1875 -1.253906 0.1875 -1.484375 C 0.1875 -1.722656 0.222656 -1.941406 0.296875 -2.140625 C 0.378906 -2.335938 0.492188 -2.507812 0.640625 -2.65625 C 0.785156 -2.800781 0.957031 -2.910156 1.15625 -2.984375 C 1.363281 -3.066406 1.585938 -3.109375 1.828125 -3.109375 C 1.992188 -3.109375 2.144531 -3.082031 2.28125 -3.03125 C 2.425781 -2.988281 2.578125 -2.921875 2.734375 -2.828125 Z M 2.8125 -3.0625 "/></g></g></g></svg>