<svg xmlns="http://www.w3.org/2000/svg" xmlns:xlink="http://www.w3.org/1999/xlink" width="190" zoomAndPan="magnify" viewBox="0 0 142.5 37.5" height="50" preserveAspectRatio="xMidYMid meet" version="1.0"><defs><g/></defs><g fill="#ffffff" fill-opacity="1"><g transform="translate(47.31713, 9.161796)"><g><path d="M 6.578125 -2.6875 C 6.578125 -2.195312 6.519531 -1.773438 6.40625 -1.421875 C 6.300781 -1.078125 6.132812 -0.789062 5.90625 -0.5625 C 5.6875 -0.332031 5.398438 -0.164062 5.046875 -0.0625 C 4.691406 0.0390625 4.265625 0.09375 3.765625 0.09375 C 2.828125 0.09375 2.140625 -0.0976562 1.703125 -0.484375 C 1.273438 -0.878906 1.0625 -1.507812 1.0625 -2.375 L 1.0625 -4.75 C 1.0625 -4.976562 1.054688 -5.164062 1.046875 -5.3125 C 1.046875 -5.46875 1.039062 -5.597656 1.03125 -5.703125 C 1.019531 -5.804688 1.003906 -5.890625 0.984375 -5.953125 C 0.960938 -6.023438 0.9375 -6.085938 0.90625 -6.140625 C 0.851562 -6.210938 0.773438 -6.265625 0.671875 -6.296875 C 0.578125 -6.328125 0.429688 -6.34375 0.234375 -6.34375 L 0.234375 -6.6875 L 3.359375 -6.6875 L 3.359375 -6.34375 C 3.109375 -6.34375 2.925781 -6.328125 2.8125 -6.296875 C 2.695312 -6.273438 2.609375 -6.226562 2.546875 -6.15625 C 2.503906 -6.101562 2.46875 -6.039062 2.4375 -5.96875 C 2.414062 -5.90625 2.394531 -5.820312 2.375 -5.71875 C 2.363281 -5.613281 2.351562 -5.484375 2.34375 -5.328125 C 2.34375 -5.171875 2.34375 -4.976562 2.34375 -4.75 L 2.34375 -2.46875 C 2.34375 -1.8125 2.484375 -1.320312 2.765625 -1 C 3.046875 -0.6875 3.476562 -0.53125 4.0625 -0.53125 C 5.257812 -0.53125 5.859375 -1.195312 5.859375 -2.53125 L 5.859375 -4.53125 C 5.859375 -4.78125 5.851562 -4.988281 5.84375 -5.15625 C 5.832031 -5.332031 5.816406 -5.476562 5.796875 -5.59375 C 5.773438 -5.71875 5.75 -5.820312 5.71875 -5.90625 C 5.6875 -5.988281 5.648438 -6.054688 5.609375 -6.109375 C 5.523438 -6.191406 5.414062 -6.25 5.28125 -6.28125 C 5.15625 -6.320312 4.984375 -6.34375 4.765625 -6.34375 L 4.765625 -6.6875 L 7.578125 -6.6875 L 7.578125 -6.34375 C 7.359375 -6.34375 7.191406 -6.328125 7.078125 -6.296875 C 6.960938 -6.265625 6.875 -6.207031 6.8125 -6.125 C 6.757812 -6.070312 6.71875 -6.003906 6.6875 -5.921875 C 6.664062 -5.835938 6.644531 -5.734375 6.625 -5.609375 C 6.613281 -5.484375 6.601562 -5.332031 6.59375 -5.15625 C 6.582031 -4.988281 6.578125 -4.78125 6.578125 -4.53125 Z M 6.578125 -2.6875 "/></g></g></g><g fill="#ffffff" fill-opacity="1"><g transform="translate(58.804589, 9.161796)"><g><path d="M 5.828125 0.09375 L 1.96875 -5.390625 L 1.9375 -5.390625 L 1.9375 -1.65625 C 1.9375 -1.363281 1.945312 -1.132812 1.96875 -0.96875 C 1.988281 -0.800781 2.03125 -0.671875 2.09375 -0.578125 C 2.164062 -0.484375 2.257812 -0.421875 2.375 -0.390625 C 2.488281 -0.367188 2.644531 -0.351562 2.84375 -0.34375 L 2.84375 0 L 0.265625 0 L 0.265625 -0.34375 C 0.472656 -0.351562 0.640625 -0.375 0.765625 -0.40625 C 0.898438 -0.4375 1.003906 -0.492188 1.078125 -0.578125 C 1.148438 -0.671875 1.195312 -0.796875 1.21875 -0.953125 C 1.25 -1.109375 1.265625 -1.320312 1.265625 -1.59375 L 1.265625 -5.09375 C 1.265625 -5.332031 1.25 -5.53125 1.21875 -5.6875 C 1.195312 -5.851562 1.15625 -5.984375 1.09375 -6.078125 C 1.03125 -6.171875 0.9375 -6.234375 0.8125 -6.265625 C 0.695312 -6.304688 0.539062 -6.332031 0.34375 -6.34375 L 0.34375 -6.6875 L 2.765625 -6.6875 L 6.265625 -1.671875 L 6.3125 -1.671875 L 6.3125 -5.03125 C 6.3125 -5.3125 6.300781 -5.535156 6.28125 -5.703125 C 6.257812 -5.878906 6.210938 -6.015625 6.140625 -6.109375 C 6.078125 -6.203125 5.984375 -6.257812 5.859375 -6.28125 C 5.742188 -6.3125 5.59375 -6.332031 5.40625 -6.34375 L 5.40625 -6.6875 L 7.984375 -6.6875 L 7.984375 -6.34375 C 7.765625 -6.332031 7.585938 -6.3125 7.453125 -6.28125 C 7.328125 -6.25 7.226562 -6.191406 7.15625 -6.109375 C 7.082031 -6.023438 7.035156 -5.898438 7.015625 -5.734375 C 6.992188 -5.566406 6.984375 -5.351562 6.984375 -5.09375 L 6.984375 0.09375 Z M 5.828125 0.09375 "/></g></g></g><g fill="#ffffff" fill-opacity="1"><g transform="translate(70.813019, 9.161796)"><g><path d="M 3.421875 0 L 0.3125 0 L 0.3125 -0.34375 C 0.507812 -0.351562 0.664062 -0.375 0.78125 -0.40625 C 0.90625 -0.4375 1 -0.492188 1.0625 -0.578125 C 1.125 -0.671875 1.164062 -0.796875 1.1875 -0.953125 C 1.207031 -1.109375 1.21875 -1.320312 1.21875 -1.59375 L 1.21875 -5.09375 C 1.21875 -5.332031 1.207031 -5.53125 1.1875 -5.6875 C 1.175781 -5.851562 1.140625 -5.984375 1.078125 -6.078125 C 1.015625 -6.171875 0.929688 -6.234375 0.828125 -6.265625 C 0.722656 -6.304688 0.582031 -6.332031 0.40625 -6.34375 L 0.40625 -6.6875 L 3.328125 -6.6875 L 3.328125 -6.34375 C 3.148438 -6.332031 3.003906 -6.304688 2.890625 -6.265625 C 2.785156 -6.234375 2.703125 -6.171875 2.640625 -6.078125 C 2.585938 -5.984375 2.550781 -5.851562 2.53125 -5.6875 C 2.507812 -5.53125 2.5 -5.332031 2.5 -5.09375 L 2.5 -1.59375 C 2.5 -1.320312 2.507812 -1.109375 2.53125 -0.953125 C 2.550781 -0.796875 2.59375 -0.671875 2.65625 -0.578125 C 2.726562 -0.492188 2.820312 -0.4375 2.9375 -0.40625 C 3.0625 -0.375 3.222656 -0.351562 3.421875 -0.34375 Z M 3.421875 0 "/></g></g></g><g fill="#ffffff" fill-opacity="1"><g transform="translate(78.384489, 9.161796)"><g><path d="M 7.078125 -4.78125 L 6.703125 -4.78125 C 6.691406 -5.0625 6.648438 -5.296875 6.578125 -5.484375 C 6.515625 -5.671875 6.421875 -5.820312 6.296875 -5.9375 C 6.171875 -6.050781 6.019531 -6.128906 5.84375 -6.171875 C 5.675781 -6.210938 5.476562 -6.234375 5.25 -6.234375 C 5.019531 -6.234375 4.835938 -6.226562 4.703125 -6.21875 C 4.566406 -6.21875 4.460938 -6.207031 4.390625 -6.1875 C 4.316406 -6.164062 4.269531 -6.132812 4.25 -6.09375 C 4.226562 -6.0625 4.21875 -6.019531 4.21875 -5.96875 L 4.21875 -1.421875 C 4.21875 -1.234375 4.226562 -1.070312 4.25 -0.9375 C 4.28125 -0.800781 4.332031 -0.691406 4.40625 -0.609375 C 4.488281 -0.523438 4.609375 -0.460938 4.765625 -0.421875 C 4.921875 -0.378906 5.128906 -0.351562 5.390625 -0.34375 L 5.390625 0 L 1.75 0 L 1.75 -0.34375 C 2.007812 -0.351562 2.21875 -0.378906 2.375 -0.421875 C 2.53125 -0.460938 2.648438 -0.523438 2.734375 -0.609375 C 2.816406 -0.691406 2.867188 -0.800781 2.890625 -0.9375 C 2.921875 -1.070312 2.9375 -1.234375 2.9375 -1.421875 L 2.9375 -5.96875 C 2.9375 -6.019531 2.925781 -6.0625 2.90625 -6.09375 C 2.882812 -6.132812 2.84375 -6.164062 2.78125 -6.1875 C 2.71875 -6.207031 2.625 -6.21875 2.5 -6.21875 C 2.382812 -6.226562 2.234375 -6.234375 2.046875 -6.234375 C 1.835938 -6.234375 1.632812 -6.222656 1.4375 -6.203125 C 1.25 -6.179688 1.082031 -6.125 0.9375 -6.03125 C 0.789062 -5.9375 0.671875 -5.789062 0.578125 -5.59375 C 0.492188 -5.40625 0.445312 -5.132812 0.4375 -4.78125 L 0.109375 -4.78125 L 0.1875 -6.6875 L 7 -6.6875 Z M 7.078125 -4.78125 "/></g></g></g><g fill="#ffffff" fill-opacity="1"><g transform="translate(89.411758, 9.161796)"><g><path d="M 0.46875 -2.21875 L 0.8125 -2.21875 C 0.882812 -1.664062 1.097656 -1.226562 1.453125 -0.90625 C 1.816406 -0.59375 2.265625 -0.4375 2.796875 -0.4375 C 3.015625 -0.4375 3.210938 -0.460938 3.390625 -0.515625 C 3.566406 -0.566406 3.71875 -0.640625 3.84375 -0.734375 C 3.976562 -0.835938 4.078125 -0.953125 4.140625 -1.078125 C 4.210938 -1.210938 4.25 -1.359375 4.25 -1.515625 C 4.25 -1.660156 4.226562 -1.78125 4.1875 -1.875 C 4.144531 -1.976562 4.0625 -2.078125 3.9375 -2.171875 C 3.8125 -2.265625 3.644531 -2.359375 3.4375 -2.453125 C 3.226562 -2.554688 2.953125 -2.675781 2.609375 -2.8125 C 1.929688 -3.070312 1.429688 -3.375 1.109375 -3.71875 C 0.785156 -4.0625 0.625 -4.46875 0.625 -4.9375 C 0.625 -5.207031 0.675781 -5.453125 0.78125 -5.671875 C 0.882812 -5.898438 1.03125 -6.09375 1.21875 -6.25 C 1.40625 -6.414062 1.628906 -6.546875 1.890625 -6.640625 C 2.160156 -6.734375 2.453125 -6.78125 2.765625 -6.78125 C 3.066406 -6.78125 3.347656 -6.734375 3.609375 -6.640625 C 3.867188 -6.546875 4.125 -6.40625 4.375 -6.21875 L 4.53125 -6.65625 L 4.75 -6.65625 L 4.84375 -4.78125 L 4.5 -4.78125 C 4.363281 -5.25 4.144531 -5.609375 3.84375 -5.859375 C 3.550781 -6.117188 3.210938 -6.25 2.828125 -6.25 C 2.460938 -6.25 2.164062 -6.160156 1.9375 -5.984375 C 1.71875 -5.804688 1.609375 -5.578125 1.609375 -5.296875 C 1.609375 -5.171875 1.628906 -5.0625 1.671875 -4.96875 C 1.710938 -4.875 1.785156 -4.78125 1.890625 -4.6875 C 2.003906 -4.601562 2.15625 -4.515625 2.34375 -4.421875 C 2.539062 -4.335938 2.789062 -4.242188 3.09375 -4.140625 C 3.5 -3.984375 3.84375 -3.820312 4.125 -3.65625 C 4.414062 -3.5 4.648438 -3.328125 4.828125 -3.140625 C 5.015625 -2.960938 5.148438 -2.769531 5.234375 -2.5625 C 5.328125 -2.363281 5.375 -2.144531 5.375 -1.90625 C 5.375 -1.601562 5.304688 -1.332031 5.171875 -1.09375 C 5.046875 -0.851562 4.867188 -0.644531 4.640625 -0.46875 C 4.410156 -0.289062 4.140625 -0.148438 3.828125 -0.046875 C 3.515625 0.046875 3.164062 0.09375 2.78125 0.09375 C 2.4375 0.09375 2.125 0.046875 1.84375 -0.046875 C 1.5625 -0.148438 1.273438 -0.304688 0.984375 -0.515625 L 0.8125 0 L 0.59375 0 Z M 0.46875 -2.21875 "/></g></g></g><g fill="#ffffff" fill-opacity="1"><g transform="translate(13.558044, 20.738924)"><g><path d="M 4.359375 -2.03125 L 1.890625 -2.03125 C 1.617188 -1.414062 1.484375 -0.988281 1.484375 -0.75 C 1.484375 -0.570312 1.546875 -0.457031 1.671875 -0.40625 C 1.804688 -0.363281 2.003906 -0.34375 2.265625 -0.34375 L 2.265625 0 L -0.109375 0 L -0.109375 -0.34375 C 0.0234375 -0.363281 0.144531 -0.382812 0.25 -0.40625 C 0.351562 -0.4375 0.441406 -0.476562 0.515625 -0.53125 C 0.597656 -0.582031 0.664062 -0.648438 0.71875 -0.734375 C 0.78125 -0.828125 0.835938 -0.929688 0.890625 -1.046875 L 3.171875 -6.78125 L 3.8125 -6.78125 L 5.890625 -1.703125 C 6.015625 -1.410156 6.117188 -1.175781 6.203125 -1 C 6.285156 -0.832031 6.375 -0.703125 6.46875 -0.609375 C 6.5625 -0.523438 6.671875 -0.460938 6.796875 -0.421875 C 6.921875 -0.390625 7.082031 -0.367188 7.28125 -0.359375 L 7.28125 0 L 4 0 L 4 -0.359375 C 4.269531 -0.367188 4.46875 -0.394531 4.59375 -0.4375 C 4.71875 -0.488281 4.78125 -0.582031 4.78125 -0.71875 C 4.78125 -0.800781 4.757812 -0.90625 4.71875 -1.03125 C 4.675781 -1.15625 4.617188 -1.3125 4.546875 -1.5 Z M 2.09375 -2.546875 L 4.15625 -2.546875 L 3.15625 -5.171875 L 3.125 -5.171875 Z M 2.09375 -2.546875 "/></g></g></g><g fill="#ffffff" fill-opacity="1"><g transform="translate(24.429017, 20.738924)"><g><path d="M 3.8125 -1.5 L 4.9375 -4.390625 C 5.039062 -4.671875 5.125 -4.898438 5.1875 -5.078125 C 5.257812 -5.253906 5.3125 -5.398438 5.34375 -5.515625 C 5.382812 -5.640625 5.410156 -5.734375 5.421875 -5.796875 C 5.429688 -5.867188 5.4375 -5.9375 5.4375 -6 C 5.4375 -6.144531 5.382812 -6.238281 5.28125 -6.28125 C 5.175781 -6.320312 4.96875 -6.34375 4.65625 -6.34375 L 4.65625 -6.6875 L 7.125 -6.6875 L 7.125 -6.34375 C 6.644531 -6.34375 6.3125 -6.109375 6.125 -5.640625 L 3.84375 0.09375 L 3.203125 0.09375 L 1.125 -4.984375 C 1.007812 -5.253906 0.90625 -5.476562 0.8125 -5.65625 C 0.71875 -5.832031 0.617188 -5.96875 0.515625 -6.0625 C 0.410156 -6.164062 0.296875 -6.234375 0.171875 -6.265625 C 0.046875 -6.304688 -0.0976562 -6.328125 -0.265625 -6.328125 L -0.265625 -6.6875 L 3.015625 -6.6875 L 3.015625 -6.328125 C 2.859375 -6.328125 2.726562 -6.320312 2.625 -6.3125 C 2.53125 -6.300781 2.453125 -6.28125 2.390625 -6.25 C 2.335938 -6.226562 2.296875 -6.191406 2.265625 -6.140625 C 2.242188 -6.097656 2.234375 -6.046875 2.234375 -5.984375 C 2.234375 -5.898438 2.25 -5.800781 2.28125 -5.6875 C 2.3125 -5.582031 2.359375 -5.453125 2.421875 -5.296875 Z M 3.8125 -1.5 "/></g></g></g><g fill="#ffffff" fill-opacity="1"><g transform="translate(35.265256, 20.738924)"><g><path d="M 4.359375 -2.03125 L 1.890625 -2.03125 C 1.617188 -1.414062 1.484375 -0.988281 1.484375 -0.75 C 1.484375 -0.570312 1.546875 -0.457031 1.671875 -0.40625 C 1.804688 -0.363281 2.003906 -0.34375 2.265625 -0.34375 L 2.265625 0 L -0.109375 0 L -0.109375 -0.34375 C 0.0234375 -0.363281 0.144531 -0.382812 0.25 -0.40625 C 0.351562 -0.4375 0.441406 -0.476562 0.515625 -0.53125 C 0.597656 -0.582031 0.664062 -0.648438 0.71875 -0.734375 C 0.78125 -0.828125 0.835938 -0.929688 0.890625 -1.046875 L 3.171875 -6.78125 L 3.8125 -6.78125 L 5.890625 -1.703125 C 6.015625 -1.410156 6.117188 -1.175781 6.203125 -1 C 6.285156 -0.832031 6.375 -0.703125 6.46875 -0.609375 C 6.5625 -0.523438 6.671875 -0.460938 6.796875 -0.421875 C 6.921875 -0.390625 7.082031 -0.367188 7.28125 -0.359375 L 7.28125 0 L 4 0 L 4 -0.359375 C 4.269531 -0.367188 4.46875 -0.394531 4.59375 -0.4375 C 4.71875 -0.488281 4.78125 -0.582031 4.78125 -0.71875 C 4.78125 -0.800781 4.757812 -0.90625 4.71875 -1.03125 C 4.675781 -1.15625 4.617188 -1.3125 4.546875 -1.5 Z M 2.09375 -2.546875 L 4.15625 -2.546875 L 3.15625 -5.171875 L 3.125 -5.171875 Z M 2.09375 -2.546875 "/></g></g></g><g fill="#ffffff" fill-opacity="1"><g transform="translate(46.136227, 20.738924)"><g><path d="M 3.421875 0 L 0.3125 0 L 0.3125 -0.34375 C 0.507812 -0.351562 0.664062 -0.375 0.78125 -0.40625 C 0.90625 -0.4375 1 -0.492188 1.0625 -0.578125 C 1.125 -0.671875 1.164062 -0.796875 1.1875 -0.953125 C 1.207031 -1.109375 1.21875 -1.320312 1.21875 -1.59375 L 1.21875 -5.09375 C 1.21875 -5.332031 1.207031 -5.53125 1.1875 -5.6875 C 1.175781 -5.851562 1.140625 -5.984375 1.078125 -6.078125 C 1.015625 -6.171875 0.929688 -6.234375 0.828125 -6.265625 C 0.722656 -6.304688 0.582031 -6.332031 0.40625 -6.34375 L 0.40625 -6.6875 L 3.328125 -6.6875 L 3.328125 -6.34375 C 3.148438 -6.332031 3.003906 -6.304688 2.890625 -6.265625 C 2.785156 -6.234375 2.703125 -6.171875 2.640625 -6.078125 C 2.585938 -5.984375 2.550781 -5.851562 2.53125 -5.6875 C 2.507812 -5.53125 2.5 -5.332031 2.5 -5.09375 L 2.5 -1.59375 C 2.5 -1.320312 2.507812 -1.109375 2.53125 -0.953125 C 2.550781 -0.796875 2.59375 -0.671875 2.65625 -0.578125 C 2.726562 -0.492188 2.820312 -0.4375 2.9375 -0.40625 C 3.0625 -0.375 3.222656 -0.351562 3.421875 -0.34375 Z M 3.421875 0 "/></g></g></g><g fill="#ffffff" fill-opacity="1"><g transform="translate(53.7077, 20.738924)"><g><path d="M 6.296875 0 L 0.296875 0 L 0.296875 -0.34375 C 0.492188 -0.351562 0.648438 -0.367188 0.765625 -0.390625 C 0.890625 -0.421875 0.984375 -0.472656 1.046875 -0.546875 C 1.109375 -0.617188 1.148438 -0.71875 1.171875 -0.84375 C 1.203125 -0.96875 1.21875 -1.132812 1.21875 -1.34375 L 1.21875 -5.34375 C 1.21875 -5.550781 1.207031 -5.71875 1.1875 -5.84375 C 1.164062 -5.96875 1.125 -6.066406 1.0625 -6.140625 C 1.007812 -6.210938 0.925781 -6.257812 0.8125 -6.28125 C 0.707031 -6.3125 0.570312 -6.332031 0.40625 -6.34375 L 0.40625 -6.6875 L 3.390625 -6.6875 L 3.390625 -6.34375 C 3.191406 -6.332031 3.035156 -6.3125 2.921875 -6.28125 C 2.804688 -6.257812 2.710938 -6.207031 2.640625 -6.125 C 2.578125 -6.050781 2.535156 -5.945312 2.515625 -5.8125 C 2.503906 -5.6875 2.5 -5.515625 2.5 -5.296875 L 2.5 -1.65625 C 2.5 -1.40625 2.519531 -1.203125 2.5625 -1.046875 C 2.613281 -0.898438 2.695312 -0.785156 2.8125 -0.703125 C 2.9375 -0.617188 3.097656 -0.5625 3.296875 -0.53125 C 3.503906 -0.5 3.757812 -0.484375 4.0625 -0.484375 C 4.394531 -0.484375 4.675781 -0.5 4.90625 -0.53125 C 5.132812 -0.570312 5.320312 -0.648438 5.46875 -0.765625 C 5.625 -0.878906 5.75 -1.03125 5.84375 -1.21875 C 5.9375 -1.414062 6.015625 -1.664062 6.078125 -1.96875 L 6.421875 -1.96875 Z M 6.296875 0 "/></g></g></g><g fill="#ffffff" fill-opacity="1"><g transform="translate(64.109793, 20.738924)"><g><path d="M 4.359375 -2.03125 L 1.890625 -2.03125 C 1.617188 -1.414062 1.484375 -0.988281 1.484375 -0.75 C 1.484375 -0.570312 1.546875 -0.457031 1.671875 -0.40625 C 1.804688 -0.363281 2.003906 -0.34375 2.265625 -0.34375 L 2.265625 0 L -0.109375 0 L -0.109375 -0.34375 C 0.0234375 -0.363281 0.144531 -0.382812 0.25 -0.40625 C 0.351562 -0.4375 0.441406 -0.476562 0.515625 -0.53125 C 0.597656 -0.582031 0.664062 -0.648438 0.71875 -0.734375 C 0.78125 -0.828125 0.835938 -0.929688 0.890625 -1.046875 L 3.171875 -6.78125 L 3.8125 -6.78125 L 5.890625 -1.703125 C 6.015625 -1.410156 6.117188 -1.175781 6.203125 -1 C 6.285156 -0.832031 6.375 -0.703125 6.46875 -0.609375 C 6.5625 -0.523438 6.671875 -0.460938 6.796875 -0.421875 C 6.921875 -0.390625 7.082031 -0.367188 7.28125 -0.359375 L 7.28125 0 L 4 0 L 4 -0.359375 C 4.269531 -0.367188 4.46875 -0.394531 4.59375 -0.4375 C 4.71875 -0.488281 4.78125 -0.582031 4.78125 -0.71875 C 4.78125 -0.800781 4.757812 -0.90625 4.71875 -1.03125 C 4.675781 -1.15625 4.617188 -1.3125 4.546875 -1.5 Z M 2.09375 -2.546875 L 4.15625 -2.546875 L 3.15625 -5.171875 L 3.125 -5.171875 Z M 2.09375 -2.546875 "/></g></g></g><g fill="#ffffff" fill-opacity="1"><g transform="translate(74.980768, 20.738924)"><g><path d="M 0.28125 0 L 0.28125 -0.34375 C 0.476562 -0.351562 0.632812 -0.367188 0.75 -0.390625 C 0.875 -0.421875 0.96875 -0.472656 1.03125 -0.546875 C 1.101562 -0.617188 1.148438 -0.71875 1.171875 -0.84375 C 1.191406 -0.96875 1.203125 -1.132812 1.203125 -1.34375 L 1.203125 -5.34375 C 1.203125 -5.550781 1.191406 -5.71875 1.171875 -5.84375 C 1.160156 -5.96875 1.125 -6.066406 1.0625 -6.140625 C 1.007812 -6.210938 0.9375 -6.257812 0.84375 -6.28125 C 0.75 -6.3125 0.625 -6.332031 0.46875 -6.34375 L 0.46875 -6.6875 L 3.25 -6.6875 C 4.125 -6.6875 4.796875 -6.546875 5.265625 -6.265625 C 5.742188 -5.984375 5.984375 -5.582031 5.984375 -5.0625 C 5.984375 -4.375 5.488281 -3.890625 4.5 -3.609375 L 4.5 -3.578125 C 4.820312 -3.578125 5.109375 -3.53125 5.359375 -3.4375 C 5.617188 -3.34375 5.835938 -3.210938 6.015625 -3.046875 C 6.203125 -2.890625 6.34375 -2.703125 6.4375 -2.484375 C 6.53125 -2.265625 6.578125 -2.023438 6.578125 -1.765625 C 6.578125 -1.472656 6.503906 -1.210938 6.359375 -0.984375 C 6.222656 -0.765625 6.023438 -0.582031 5.765625 -0.4375 C 5.242188 -0.144531 4.53125 0 3.625 0 Z M 3.6875 -0.53125 C 4.625 -0.53125 5.09375 -0.953125 5.09375 -1.796875 C 5.09375 -2.304688 4.925781 -2.679688 4.59375 -2.921875 C 4.414062 -3.035156 4.1875 -3.117188 3.90625 -3.171875 C 3.632812 -3.222656 3.300781 -3.25 2.90625 -3.25 L 2.484375 -3.25 L 2.484375 -1.515625 C 2.484375 -1.160156 2.578125 -0.90625 2.765625 -0.75 C 2.953125 -0.601562 3.257812 -0.53125 3.6875 -0.53125 Z M 3 -3.78125 C 3.257812 -3.78125 3.484375 -3.800781 3.671875 -3.84375 C 3.867188 -3.894531 4.03125 -3.96875 4.15625 -4.0625 C 4.4375 -4.257812 4.578125 -4.554688 4.578125 -4.953125 C 4.578125 -5.378906 4.472656 -5.6875 4.265625 -5.875 C 4.054688 -6.0625 3.71875 -6.15625 3.25 -6.15625 L 2.640625 -6.15625 C 2.535156 -6.15625 2.484375 -6.109375 2.484375 -6.015625 L 2.484375 -3.78125 Z M 3 -3.78125 "/></g></g></g><g fill="#ffffff" fill-opacity="1"><g transform="translate(85.74755, 20.738924)"><g><path d="M 3.421875 0 L 0.3125 0 L 0.3125 -0.34375 C 0.507812 -0.351562 0.664062 -0.375 0.78125 -0.40625 C 0.90625 -0.4375 1 -0.492188 1.0625 -0.578125 C 1.125 -0.671875 1.164062 -0.796875 1.1875 -0.953125 C 1.207031 -1.109375 1.21875 -1.320312 1.21875 -1.59375 L 1.21875 -5.09375 C 1.21875 -5.332031 1.207031 -5.53125 1.1875 -5.6875 C 1.175781 -5.851562 1.140625 -5.984375 1.078125 -6.078125 C 1.015625 -6.171875 0.929688 -6.234375 0.828125 -6.265625 C 0.722656 -6.304688 0.582031 -6.332031 0.40625 -6.34375 L 0.40625 -6.6875 L 3.328125 -6.6875 L 3.328125 -6.34375 C 3.148438 -6.332031 3.003906 -6.304688 2.890625 -6.265625 C 2.785156 -6.234375 2.703125 -6.171875 2.640625 -6.078125 C 2.585938 -5.984375 2.550781 -5.851562 2.53125 -5.6875 C 2.507812 -5.53125 2.5 -5.332031 2.5 -5.09375 L 2.5 -1.59375 C 2.5 -1.320312 2.507812 -1.109375 2.53125 -0.953125 C 2.550781 -0.796875 2.59375 -0.671875 2.65625 -0.578125 C 2.726562 -0.492188 2.820312 -0.4375 2.9375 -0.40625 C 3.0625 -0.375 3.222656 -0.351562 3.421875 -0.34375 Z M 3.421875 0 "/></g></g></g><g fill="#ffffff" fill-opacity="1"><g transform="translate(93.319023, 20.738924)"><g><path d="M 6.296875 0 L 0.296875 0 L 0.296875 -0.34375 C 0.492188 -0.351562 0.648438 -0.367188 0.765625 -0.390625 C 0.890625 -0.421875 0.984375 -0.472656 1.046875 -0.546875 C 1.109375 -0.617188 1.148438 -0.71875 1.171875 -0.84375 C 1.203125 -0.96875 1.21875 -1.132812 1.21875 -1.34375 L 1.21875 -5.34375 C 1.21875 -5.550781 1.207031 -5.71875 1.1875 -5.84375 C 1.164062 -5.96875 1.125 -6.066406 1.0625 -6.140625 C 1.007812 -6.210938 0.925781 -6.257812 0.8125 -6.28125 C 0.707031 -6.3125 0.570312 -6.332031 0.40625 -6.34375 L 0.40625 -6.6875 L 3.390625 -6.6875 L 3.390625 -6.34375 C 3.191406 -6.332031 3.035156 -6.3125 2.921875 -6.28125 C 2.804688 -6.257812 2.710938 -6.207031 2.640625 -6.125 C 2.578125 -6.050781 2.535156 -5.945312 2.515625 -5.8125 C 2.503906 -5.6875 2.5 -5.515625 2.5 -5.296875 L 2.5 -1.65625 C 2.5 -1.40625 2.519531 -1.203125 2.5625 -1.046875 C 2.613281 -0.898438 2.695312 -0.785156 2.8125 -0.703125 C 2.9375 -0.617188 3.097656 -0.5625 3.296875 -0.53125 C 3.503906 -0.5 3.757812 -0.484375 4.0625 -0.484375 C 4.394531 -0.484375 4.675781 -0.5 4.90625 -0.53125 C 5.132812 -0.570312 5.320312 -0.648438 5.46875 -0.765625 C 5.625 -0.878906 5.75 -1.03125 5.84375 -1.21875 C 5.9375 -1.414062 6.015625 -1.664062 6.078125 -1.96875 L 6.421875 -1.96875 Z M 6.296875 0 "/></g></g></g><g fill="#ffffff" fill-opacity="1"><g transform="translate(103.721116, 20.738924)"><g><path d="M 3.421875 0 L 0.3125 0 L 0.3125 -0.34375 C 0.507812 -0.351562 0.664062 -0.375 0.78125 -0.40625 C 0.90625 -0.4375 1 -0.492188 1.0625 -0.578125 C 1.125 -0.671875 1.164062 -0.796875 1.1875 -0.953125 C 1.207031 -1.109375 1.21875 -1.320312 1.21875 -1.59375 L 1.21875 -5.09375 C 1.21875 -5.332031 1.207031 -5.53125 1.1875 -5.6875 C 1.175781 -5.851562 1.140625 -5.984375 1.078125 -6.078125 C 1.015625 -6.171875 0.929688 -6.234375 0.828125 -6.265625 C 0.722656 -6.304688 0.582031 -6.332031 0.40625 -6.34375 L 0.40625 -6.6875 L 3.328125 -6.6875 L 3.328125 -6.34375 C 3.148438 -6.332031 3.003906 -6.304688 2.890625 -6.265625 C 2.785156 -6.234375 2.703125 -6.171875 2.640625 -6.078125 C 2.585938 -5.984375 2.550781 -5.851562 2.53125 -5.6875 C 2.507812 -5.53125 2.5 -5.332031 2.5 -5.09375 L 2.5 -1.59375 C 2.5 -1.320312 2.507812 -1.109375 2.53125 -0.953125 C 2.550781 -0.796875 2.59375 -0.671875 2.65625 -0.578125 C 2.726562 -0.492188 2.820312 -0.4375 2.9375 -0.40625 C 3.0625 -0.375 3.222656 -0.351562 3.421875 -0.34375 Z M 3.421875 0 "/></g></g></g><g fill="#ffffff" fill-opacity="1"><g transform="translate(111.292583, 20.738924)"><g><path d="M 7.078125 -4.78125 L 6.703125 -4.78125 C 6.691406 -5.0625 6.648438 -5.296875 6.578125 -5.484375 C 6.515625 -5.671875 6.421875 -5.820312 6.296875 -5.9375 C 6.171875 -6.050781 6.019531 -6.128906 5.84375 -6.171875 C 5.675781 -6.210938 5.476562 -6.234375 5.25 -6.234375 C 5.019531 -6.234375 4.835938 -6.226562 4.703125 -6.21875 C 4.566406 -6.21875 4.460938 -6.207031 4.390625 -6.1875 C 4.316406 -6.164062 4.269531 -6.132812 4.25 -6.09375 C 4.226562 -6.0625 4.21875 -6.019531 4.21875 -5.96875 L 4.21875 -1.421875 C 4.21875 -1.234375 4.226562 -1.070312 4.25 -0.9375 C 4.28125 -0.800781 4.332031 -0.691406 4.40625 -0.609375 C 4.488281 -0.523438 4.609375 -0.460938 4.765625 -0.421875 C 4.921875 -0.378906 5.128906 -0.351562 5.390625 -0.34375 L 5.390625 0 L 1.75 0 L 1.75 -0.34375 C 2.007812 -0.351562 2.21875 -0.378906 2.375 -0.421875 C 2.53125 -0.460938 2.648438 -0.523438 2.734375 -0.609375 C 2.816406 -0.691406 2.867188 -0.800781 2.890625 -0.9375 C 2.921875 -1.070312 2.9375 -1.234375 2.9375 -1.421875 L 2.9375 -5.96875 C 2.9375 -6.019531 2.925781 -6.0625 2.90625 -6.09375 C 2.882812 -6.132812 2.84375 -6.164062 2.78125 -6.1875 C 2.71875 -6.207031 2.625 -6.21875 2.5 -6.21875 C 2.382812 -6.226562 2.234375 -6.234375 2.046875 -6.234375 C 1.835938 -6.234375 1.632812 -6.222656 1.4375 -6.203125 C 1.25 -6.179688 1.082031 -6.125 0.9375 -6.03125 C 0.789062 -5.9375 0.671875 -5.789062 0.578125 -5.59375 C 0.492188 -5.40625 0.445312 -5.132812 0.4375 -4.78125 L 0.109375 -4.78125 L 0.1875 -6.6875 L 7 -6.6875 Z M 7.078125 -4.78125 "/></g></g></g><g fill="#ffffff" fill-opacity="1"><g transform="translate(122.319846, 20.738924)"><g><path d="M 0.875 -5.59375 C 0.789062 -5.75 0.710938 -5.875 0.640625 -5.96875 C 0.566406 -6.0625 0.488281 -6.132812 0.40625 -6.1875 C 0.332031 -6.25 0.253906 -6.289062 0.171875 -6.3125 C 0.0859375 -6.332031 -0.0078125 -6.34375 -0.125 -6.34375 L -0.125 -6.6875 L 2.796875 -6.6875 L 2.796875 -6.34375 C 2.554688 -6.34375 2.382812 -6.316406 2.28125 -6.265625 C 2.1875 -6.222656 2.140625 -6.15625 2.140625 -6.0625 C 2.140625 -6.007812 2.15625 -5.941406 2.1875 -5.859375 C 2.21875 -5.773438 2.273438 -5.664062 2.359375 -5.53125 L 3.59375 -3.15625 L 3.625 -3.15625 L 4.71875 -4.984375 C 4.914062 -5.304688 5.050781 -5.546875 5.125 -5.703125 C 5.195312 -5.859375 5.234375 -5.984375 5.234375 -6.078125 C 5.234375 -6.179688 5.1875 -6.25 5.09375 -6.28125 C 5.007812 -6.320312 4.847656 -6.34375 4.609375 -6.34375 L 4.609375 -6.6875 L 6.78125 -6.6875 L 6.78125 -6.34375 C 6.65625 -6.34375 6.539062 -6.320312 6.4375 -6.28125 C 6.332031 -6.238281 6.222656 -6.15625 6.109375 -6.03125 C 5.992188 -5.914062 5.863281 -5.753906 5.71875 -5.546875 C 5.582031 -5.335938 5.414062 -5.0625 5.21875 -4.71875 L 3.953125 -2.546875 L 3.953125 -1.65625 C 3.953125 -1.363281 3.960938 -1.128906 3.984375 -0.953125 C 4.015625 -0.785156 4.0625 -0.65625 4.125 -0.5625 C 4.195312 -0.476562 4.289062 -0.421875 4.40625 -0.390625 C 4.519531 -0.359375 4.671875 -0.34375 4.859375 -0.34375 L 4.859375 0 L 1.765625 0 L 1.765625 -0.34375 C 1.941406 -0.34375 2.085938 -0.359375 2.203125 -0.390625 C 2.328125 -0.421875 2.421875 -0.476562 2.484375 -0.5625 C 2.554688 -0.644531 2.601562 -0.769531 2.625 -0.9375 C 2.65625 -1.101562 2.671875 -1.320312 2.671875 -1.59375 L 2.671875 -2.390625 Z M 0.875 -5.59375 "/></g></g></g><g fill="#ffffff" fill-opacity="1"><g transform="translate(45.406452, 32.316052)"><g><path d="M 6.140625 -6.6875 L 6.5625 -6.6875 L 6.390625 -4.484375 L 6.046875 -4.484375 C 5.921875 -5.023438 5.679688 -5.445312 5.328125 -5.75 C 4.984375 -6.0625 4.5625 -6.21875 4.0625 -6.21875 C 3.71875 -6.21875 3.410156 -6.144531 3.140625 -6 C 2.878906 -5.863281 2.65625 -5.671875 2.46875 -5.421875 C 2.289062 -5.171875 2.15625 -4.863281 2.0625 -4.5 C 1.96875 -4.144531 1.921875 -3.738281 1.921875 -3.28125 C 1.921875 -2.382812 2.101562 -1.691406 2.46875 -1.203125 C 2.832031 -0.722656 3.375 -0.484375 4.09375 -0.484375 C 4.675781 -0.484375 5.15625 -0.640625 5.53125 -0.953125 C 5.914062 -1.265625 6.1875 -1.734375 6.34375 -2.359375 L 6.734375 -2.359375 L 6.734375 0 L 6.328125 0 L 6.203125 -0.6875 C 5.566406 -0.164062 4.796875 0.09375 3.890625 0.09375 C 3.359375 0.09375 2.878906 0.015625 2.453125 -0.140625 C 2.023438 -0.296875 1.660156 -0.519531 1.359375 -0.8125 C 1.054688 -1.101562 0.820312 -1.453125 0.65625 -1.859375 C 0.488281 -2.265625 0.40625 -2.722656 0.40625 -3.234375 C 0.40625 -3.753906 0.488281 -4.234375 0.65625 -4.671875 C 0.832031 -5.109375 1.078125 -5.484375 1.390625 -5.796875 C 1.710938 -6.109375 2.09375 -6.347656 2.53125 -6.515625 C 2.96875 -6.691406 3.453125 -6.78125 3.984375 -6.78125 C 4.335938 -6.78125 4.664062 -6.726562 4.96875 -6.625 C 5.28125 -6.53125 5.617188 -6.375 5.984375 -6.15625 Z M 6.140625 -6.6875 "/></g></g></g><g fill="#ffffff" fill-opacity="1"><g transform="translate(56.398984, 32.316052)"><g><path d="M 7 -1.40625 C 7 -1.175781 7.003906 -0.992188 7.015625 -0.859375 C 7.035156 -0.722656 7.078125 -0.617188 7.140625 -0.546875 C 7.210938 -0.472656 7.304688 -0.421875 7.421875 -0.390625 C 7.546875 -0.367188 7.707031 -0.351562 7.90625 -0.34375 L 7.90625 0 L 4.71875 0 L 4.71875 -0.34375 C 4.925781 -0.351562 5.09375 -0.367188 5.21875 -0.390625 C 5.351562 -0.421875 5.457031 -0.472656 5.53125 -0.546875 C 5.601562 -0.617188 5.648438 -0.71875 5.671875 -0.84375 C 5.703125 -0.96875 5.71875 -1.132812 5.71875 -1.34375 L 5.71875 -3.15625 L 2.5 -3.15625 L 2.5 -1.40625 C 2.5 -1.175781 2.507812 -0.992188 2.53125 -0.859375 C 2.550781 -0.722656 2.59375 -0.617188 2.65625 -0.546875 C 2.726562 -0.472656 2.828125 -0.421875 2.953125 -0.390625 C 3.085938 -0.367188 3.265625 -0.351562 3.484375 -0.34375 L 3.484375 0 L 0.296875 0 L 0.296875 -0.34375 C 0.492188 -0.351562 0.648438 -0.367188 0.765625 -0.390625 C 0.890625 -0.421875 0.984375 -0.472656 1.046875 -0.546875 C 1.109375 -0.617188 1.148438 -0.71875 1.171875 -0.84375 C 1.203125 -0.96875 1.21875 -1.132812 1.21875 -1.34375 L 1.21875 -5.34375 C 1.21875 -5.550781 1.207031 -5.71875 1.1875 -5.84375 C 1.164062 -5.96875 1.125 -6.066406 1.0625 -6.140625 C 1.007812 -6.210938 0.925781 -6.257812 0.8125 -6.28125 C 0.707031 -6.3125 0.570312 -6.332031 0.40625 -6.34375 L 0.40625 -6.6875 L 3.390625 -6.6875 L 3.390625 -6.34375 C 3.191406 -6.332031 3.035156 -6.3125 2.921875 -6.28125 C 2.804688 -6.257812 2.710938 -6.207031 2.640625 -6.125 C 2.578125 -6.050781 2.535156 -5.945312 2.515625 -5.8125 C 2.503906 -5.6875 2.5 -5.515625 2.5 -5.296875 L 2.5 -3.6875 L 5.71875 -3.6875 L 5.71875 -5.34375 C 5.71875 -5.550781 5.703125 -5.71875 5.671875 -5.84375 C 5.648438 -5.96875 5.609375 -6.066406 5.546875 -6.140625 C 5.484375 -6.210938 5.390625 -6.257812 5.265625 -6.28125 C 5.148438 -6.3125 4.992188 -6.332031 4.796875 -6.34375 L 4.796875 -6.6875 L 7.8125 -6.6875 L 7.8125 -6.34375 C 7.632812 -6.332031 7.492188 -6.3125 7.390625 -6.28125 C 7.285156 -6.257812 7.203125 -6.207031 7.140625 -6.125 C 7.078125 -6.050781 7.035156 -5.945312 7.015625 -5.8125 C 7.003906 -5.6875 7 -5.515625 7 -5.296875 Z M 7 -1.40625 "/></g></g></g><g fill="#ffffff" fill-opacity="1"><g transform="translate(68.450827, 32.316052)"><g><path d="M 2.5 -3.703125 C 2.863281 -3.703125 3.160156 -3.710938 3.390625 -3.734375 C 3.617188 -3.753906 3.789062 -3.800781 3.90625 -3.875 C 4.03125 -3.945312 4.117188 -4.050781 4.171875 -4.1875 C 4.222656 -4.332031 4.265625 -4.523438 4.296875 -4.765625 L 4.625 -4.765625 L 4.625 -2.21875 L 4.296875 -2.21875 C 4.265625 -2.445312 4.21875 -2.628906 4.15625 -2.765625 C 4.101562 -2.910156 4.007812 -3.019531 3.875 -3.09375 C 3.75 -3.164062 3.578125 -3.207031 3.359375 -3.21875 C 3.148438 -3.238281 2.863281 -3.25 2.5 -3.25 L 2.5 -1.46875 C 2.5 -1.28125 2.519531 -1.125 2.5625 -1 C 2.613281 -0.875 2.695312 -0.769531 2.8125 -0.6875 C 2.925781 -0.613281 3.078125 -0.5625 3.265625 -0.53125 C 3.460938 -0.5 3.703125 -0.484375 3.984375 -0.484375 C 4.304688 -0.484375 4.582031 -0.503906 4.8125 -0.546875 C 5.039062 -0.585938 5.226562 -0.664062 5.375 -0.78125 C 5.53125 -0.90625 5.65625 -1.0625 5.75 -1.25 C 5.84375 -1.445312 5.921875 -1.691406 5.984375 -1.984375 L 6.328125 -1.984375 L 6.1875 0 L 0.296875 0 L 0.296875 -0.34375 C 0.492188 -0.351562 0.648438 -0.367188 0.765625 -0.390625 C 0.890625 -0.421875 0.984375 -0.472656 1.046875 -0.546875 C 1.109375 -0.617188 1.148438 -0.71875 1.171875 -0.84375 C 1.203125 -0.96875 1.21875 -1.132812 1.21875 -1.34375 L 1.21875 -5.34375 C 1.21875 -5.550781 1.207031 -5.71875 1.1875 -5.84375 C 1.164062 -5.96875 1.125 -6.066406 1.0625 -6.140625 C 1.007812 -6.210938 0.925781 -6.257812 0.8125 -6.28125 C 0.707031 -6.3125 0.570312 -6.332031 0.40625 -6.34375 L 0.40625 -6.6875 L 5.890625 -6.6875 L 5.953125 -4.984375 L 5.578125 -4.984375 C 5.546875 -5.222656 5.488281 -5.421875 5.40625 -5.578125 C 5.332031 -5.742188 5.226562 -5.875 5.09375 -5.96875 C 4.96875 -6.0625 4.796875 -6.128906 4.578125 -6.171875 C 4.367188 -6.210938 4.113281 -6.234375 3.8125 -6.234375 L 2.828125 -6.234375 C 2.671875 -6.234375 2.578125 -6.210938 2.546875 -6.171875 C 2.515625 -6.128906 2.5 -6.039062 2.5 -5.90625 Z M 2.5 -3.703125 "/></g></g></g><g fill="#ffffff" fill-opacity="1"><g transform="translate(78.931065, 32.316052)"><g><path d="M 6.140625 -6.6875 L 6.5625 -6.6875 L 6.390625 -4.484375 L 6.046875 -4.484375 C 5.921875 -5.023438 5.679688 -5.445312 5.328125 -5.75 C 4.984375 -6.0625 4.5625 -6.21875 4.0625 -6.21875 C 3.71875 -6.21875 3.410156 -6.144531 3.140625 -6 C 2.878906 -5.863281 2.65625 -5.671875 2.46875 -5.421875 C 2.289062 -5.171875 2.15625 -4.863281 2.0625 -4.5 C 1.96875 -4.144531 1.921875 -3.738281 1.921875 -3.28125 C 1.921875 -2.382812 2.101562 -1.691406 2.46875 -1.203125 C 2.832031 -0.722656 3.375 -0.484375 4.09375 -0.484375 C 4.675781 -0.484375 5.15625 -0.640625 5.53125 -0.953125 C 5.914062 -1.265625 6.1875 -1.734375 6.34375 -2.359375 L 6.734375 -2.359375 L 6.734375 0 L 6.328125 0 L 6.203125 -0.6875 C 5.566406 -0.164062 4.796875 0.09375 3.890625 0.09375 C 3.359375 0.09375 2.878906 0.015625 2.453125 -0.140625 C 2.023438 -0.296875 1.660156 -0.519531 1.359375 -0.8125 C 1.054688 -1.101562 0.820312 -1.453125 0.65625 -1.859375 C 0.488281 -2.265625 0.40625 -2.722656 0.40625 -3.234375 C 0.40625 -3.753906 0.488281 -4.234375 0.65625 -4.671875 C 0.832031 -5.109375 1.078125 -5.484375 1.390625 -5.796875 C 1.710938 -6.109375 2.09375 -6.347656 2.53125 -6.515625 C 2.96875 -6.691406 3.453125 -6.78125 3.984375 -6.78125 C 4.335938 -6.78125 4.664062 -6.726562 4.96875 -6.625 C 5.28125 -6.53125 5.617188 -6.375 5.984375 -6.15625 Z M 6.140625 -6.6875 "/></g></g></g><g fill="#ffffff" fill-opacity="1"><g transform="translate(89.923598, 32.316052)"><g><path d="M 2.5 -1.40625 C 2.5 -1.175781 2.503906 -0.992188 2.515625 -0.859375 C 2.535156 -0.734375 2.578125 -0.628906 2.640625 -0.546875 C 2.703125 -0.472656 2.785156 -0.421875 2.890625 -0.390625 C 2.992188 -0.367188 3.132812 -0.351562 3.3125 -0.34375 L 3.3125 0 L 0.296875 0 L 0.296875 -0.34375 C 0.492188 -0.351562 0.648438 -0.367188 0.765625 -0.390625 C 0.890625 -0.421875 0.984375 -0.472656 1.046875 -0.546875 C 1.109375 -0.617188 1.148438 -0.71875 1.171875 -0.84375 C 1.203125 -0.96875 1.21875 -1.132812 1.21875 -1.34375 L 1.21875 -5.34375 C 1.21875 -5.539062 1.207031 -5.703125 1.1875 -5.828125 C 1.164062 -5.960938 1.125 -6.0625 1.0625 -6.125 C 1.007812 -6.195312 0.925781 -6.25 0.8125 -6.28125 C 0.707031 -6.3125 0.570312 -6.332031 0.40625 -6.34375 L 0.40625 -6.6875 L 3.390625 -6.6875 L 3.390625 -6.34375 C 3.191406 -6.332031 3.035156 -6.3125 2.921875 -6.28125 C 2.804688 -6.257812 2.710938 -6.207031 2.640625 -6.125 C 2.578125 -6.050781 2.535156 -5.945312 2.515625 -5.8125 C 2.503906 -5.6875 2.5 -5.515625 2.5 -5.296875 L 2.5 -3.359375 L 4.75 -5.78125 C 4.875 -5.925781 4.9375 -6.046875 4.9375 -6.140625 C 4.9375 -6.203125 4.894531 -6.25 4.8125 -6.28125 C 4.726562 -6.320312 4.578125 -6.34375 4.359375 -6.34375 L 4.359375 -6.6875 L 6.71875 -6.6875 L 6.71875 -6.34375 C 6.59375 -6.34375 6.484375 -6.332031 6.390625 -6.3125 C 6.296875 -6.300781 6.195312 -6.265625 6.09375 -6.203125 C 6 -6.140625 5.894531 -6.054688 5.78125 -5.953125 C 5.664062 -5.847656 5.519531 -5.707031 5.34375 -5.53125 L 3.796875 -3.90625 L 6.34375 -0.796875 C 6.46875 -0.648438 6.601562 -0.539062 6.75 -0.46875 C 6.894531 -0.394531 7.085938 -0.351562 7.328125 -0.34375 L 7.328125 0 L 4.109375 0 L 4.109375 -0.34375 C 4.347656 -0.351562 4.519531 -0.375 4.625 -0.40625 C 4.726562 -0.4375 4.78125 -0.492188 4.78125 -0.578125 C 4.78125 -0.609375 4.773438 -0.632812 4.765625 -0.65625 C 4.753906 -0.6875 4.738281 -0.71875 4.71875 -0.75 C 4.695312 -0.789062 4.664062 -0.835938 4.625 -0.890625 C 4.582031 -0.953125 4.53125 -1.023438 4.46875 -1.109375 L 2.921875 -3 L 2.5 -2.546875 Z M 2.5 -1.40625 "/></g></g></g></svg>